<svg width="30" height="30" viewBox="0 0 30 30" fill="none" xmlns="http://www.w3.org/2000/svg">
<path d="M19.5275 18.7612C20.0515 18.9358 20.6178 18.6527 20.7924 18.1287C20.9671 17.6048 20.6839 17.0385 20.16 16.8638L19.5275 18.7612ZM15.625 16.4062H14.625C14.625 16.8367 14.9004 17.2188 15.3088 17.3549L15.625 16.4062ZM16.625 10.5261C16.625 9.9738 16.1773 9.52609 15.625 9.52609C15.0727 9.52609 14.625 9.9738 14.625 10.5261H16.625ZM20.16 16.8638L15.9412 15.4576L15.3088 17.3549L19.5275 18.7612L20.16 16.8638ZM16.625 16.4062V10.5261H14.625V16.4062H16.625ZM25.875 15C25.875 20.6609 21.2859 25.25 15.625 25.25V27.25C22.3905 27.25 27.875 21.7655 27.875 15H25.875ZM15.625 25.25C9.96408 25.25 5.375 20.6609 5.375 15H3.375C3.375 21.7655 8.85951 27.25 15.625 27.25V25.25ZM5.375 15C5.375 9.33908 9.96408 4.75 15.625 4.75V2.75C8.85951 2.75 3.375 8.23451 3.375 15H5.375ZM15.625 4.75C21.2859 4.75 25.875 9.33908 25.875 15H27.875C27.875 8.23451 22.3905 2.75 15.625 2.75V4.75Z" fill="#2C2775"/>
</svg>
