<svg width="24" height="25" viewBox="0 0 24 25" fill="none" xmlns="http://www.w3.org/2000/svg">
<path d="M6.99844 0.120117C3.13972 0.120117 0 3.26169 0 7.12137V17.1207C0 20.9799 3.14157 24.1201 7.00125 24.1201H17.0006C20.8598 24.1201 24 20.9785 24 17.1189V7.11855C24 3.25983 20.8584 0.120117 16.9987 0.120117H6.99844ZM19.2 3.96012C19.7299 3.96012 20.16 4.3902 20.16 4.92012C20.16 5.45004 19.7299 5.88012 19.2 5.88012C18.6701 5.88012 18.24 5.45004 18.24 4.92012C18.24 4.3902 18.6701 3.96012 19.2 3.96012ZM12 5.88012C15.4416 5.88012 18.24 8.67852 18.24 12.1201C18.24 15.5617 15.4411 18.3601 12 18.3601C8.5584 18.3601 5.76 15.5612 5.76 12.1201C5.76 8.679 8.5584 5.88012 12 5.88012ZM12 7.80012C9.61392 7.80012 7.68 9.73404 7.68 12.1201C7.68 14.5062 9.61392 16.4401 12 16.4401C14.3861 16.4401 16.32 14.5062 16.32 12.1201C16.32 9.73404 14.3861 7.80012 12 7.80012Z" fill="white"/>
</svg>
