<svg width="42" height="42" viewBox="0 0 42 42" fill="none" xmlns="http://www.w3.org/2000/svg">
<path fill-rule="evenodd" clip-rule="evenodd" d="M21 42C32.598 42 42 32.598 42 21C42 9.40202 32.598 0 21 0C9.40202 0 0 9.40202 0 21C0 32.598 9.40202 42 21 42ZM30.9994 28.0854V25.2251C31.011 24.7576 30.8501 24.302 30.5471 23.9452C30.2441 23.5883 29.8203 23.355 29.3563 23.2897C28.4391 23.169 27.5386 22.9451 26.6718 22.6223C26.3299 22.494 25.9583 22.4663 25.601 22.5423C25.2438 22.6184 24.9159 22.795 24.6561 23.0513L23.4429 24.2622C21.0512 22.9049 19.0709 20.9286 17.711 18.5417L18.9242 17.3308C19.1811 17.0716 19.3581 16.7443 19.4343 16.3878C19.5105 16.0312 19.4827 15.6603 19.3541 15.3191C19.0307 14.4541 18.8064 13.5553 18.6854 12.64C18.6205 12.1818 18.3909 11.7628 18.0394 11.4611C17.6879 11.1594 17.2384 10.9955 16.7748 11.0001H13.9088C13.6436 11.0003 13.3813 11.0557 13.1386 11.1627C12.896 11.2696 12.6783 11.4258 12.4995 11.6214C12.3207 11.8169 12.1846 12.0474 12.0999 12.2983C12.0153 12.5492 11.9839 12.8149 12.0078 13.0786C12.3213 16.0256 13.3261 18.8574 14.9406 21.3447C16.4073 23.6484 18.3643 25.6014 20.6725 27.0653C23.1534 28.671 25.9772 29.6735 28.9168 29.9923C29.1818 30.0162 29.4489 29.9846 29.7009 29.8995C29.9529 29.8144 30.1844 29.6778 30.3804 29.4983C30.5765 29.3188 30.7328 29.1004 30.8394 28.8571C30.946 28.6138 31.0005 28.3509 30.9994 28.0854Z" fill="#A8A1FF"/>
</svg>
