<svg width="24" height="25" viewBox="0 0 24 25" fill="none" xmlns="http://www.w3.org/2000/svg">
<path d="M12 0.120117C18.6275 0.120117 24 5.49262 24 12.1201C24 18.7476 18.6275 24.1201 12 24.1201C5.3725 24.1201 0 18.7476 0 12.1201C0 5.49262 5.3725 0.120117 12 0.120117ZM16.1395 17.0116C16.36 16.3346 17.3945 9.58512 17.522 8.25512C17.5605 7.85212 17.4335 7.58462 17.184 7.46512C16.8825 7.32012 16.436 7.39262 15.9175 7.57962C15.207 7.83562 6.1225 11.6931 5.5975 11.9161C5.1 12.1276 4.629 12.3581 4.629 12.6921C4.629 12.9271 4.7685 13.0591 5.1525 13.1961C5.552 13.3386 6.5585 13.6436 7.153 13.8076C7.7255 13.9656 8.377 13.8286 8.742 13.6016C9.129 13.3611 13.597 10.3716 13.9175 10.1096C14.238 9.84762 14.4935 10.1831 14.2315 10.4456C13.9695 10.7076 10.903 13.6841 10.4985 14.0961C10.0075 14.5966 10.356 15.1151 10.6855 15.3226C11.0615 15.5596 13.767 17.3741 14.1745 17.6651C14.582 17.9561 14.995 18.0881 15.3735 18.0881C15.752 18.0881 15.951 17.5901 16.1395 17.0116Z" fill="white"/>
</svg>
