<svg width="24" height="27" viewBox="0 0 24 27" fill="none" xmlns="http://www.w3.org/2000/svg">
<path d="M23.3045 5.79384C22.8581 4.20289 21.9742 2.94618 20.6795 2.05712C19.0456 0.931864 17.1662 0.53524 15.5434 0.292364C13.2979 -0.0418691 11.2644 -0.0886617 9.32471 0.14753C7.50776 0.370352 6.13946 0.724639 4.8917 1.29729C2.44529 2.42032 0.976554 4.23632 0.527897 6.69404C0.309149 7.88837 0.161829 8.96683 0.0770081 9.99627C-0.119419 12.376 0.0591511 14.4817 0.621647 16.4336C1.17075 18.3365 2.12833 19.6957 3.5502 20.5892C3.9118 20.8165 4.37608 20.9814 4.82474 21.1396C5.0792 21.2287 5.32697 21.3156 5.53009 21.4114C5.71759 21.4983 5.71759 21.5139 5.71536 21.6699C5.69973 23.0224 5.71536 25.674 5.71536 25.674L5.71982 26.24H6.73767L6.90285 26.0796C7.01222 25.9771 9.53452 23.5439 10.4341 22.5634L10.5568 22.4275C10.7109 22.2493 10.7109 22.2493 10.8693 22.247C12.0836 22.2225 13.3247 22.1757 14.5568 22.1089C16.0501 22.0287 17.78 21.8838 19.4094 21.2064C20.9005 20.5848 21.9898 19.5977 22.6438 18.2741C23.3268 16.8926 23.7308 15.3975 23.8826 13.7018C24.1505 10.7204 23.9608 8.13347 23.3045 5.79384ZM17.934 17.3873C17.559 17.9956 17.001 18.4189 16.3425 18.693C15.8604 18.8936 15.3693 18.8512 14.8939 18.6507C10.914 16.9684 7.79123 14.319 5.72875 10.5088C5.30241 9.72442 5.00777 8.86879 4.66849 8.03989C4.59929 7.87054 4.60376 7.67 4.57251 7.48283C4.60153 6.14367 5.63054 5.38831 6.67071 5.16103C7.06803 5.0719 7.4207 5.21228 7.71534 5.49526C8.5323 6.27068 9.17739 7.17311 9.66399 8.18472C9.87604 8.62814 9.78006 9.02031 9.41845 9.35008C9.34256 9.41916 9.26444 9.48155 9.18185 9.54394C8.35596 10.1634 8.23543 10.6335 8.67516 11.5672C9.42515 13.1559 10.6707 14.2232 12.28 14.885C12.7041 15.0588 13.1037 14.9719 13.4274 14.6287C13.472 14.5842 13.5211 14.5396 13.5524 14.4861C14.1863 13.43 15.1081 13.5347 15.9586 14.1363C16.5166 14.5329 17.059 14.9518 17.6104 15.3551C18.4519 15.9724 18.4452 16.5517 17.934 17.3873ZM12.655 6.84556C12.4675 6.84556 12.28 6.86116 12.0948 6.89236C11.7823 6.9436 11.4899 6.73415 11.4363 6.4222C11.385 6.11248 11.5948 5.81835 11.9073 5.7671C12.1528 5.72477 12.405 5.70471 12.655 5.70471C15.1305 5.70471 17.1438 7.71457 17.1438 10.1857C17.1438 10.4375 17.1238 10.6892 17.0813 10.9321C17.0345 11.2106 16.7934 11.409 16.5188 11.409C16.4876 11.409 16.4563 11.4067 16.4229 11.4C16.1126 11.3488 15.9028 11.0547 15.9541 10.7449C15.9854 10.5622 16.001 10.3751 16.001 10.1857C16.001 8.34515 14.4988 6.84556 12.655 6.84556ZM15.4296 10.2681C15.4296 10.5823 15.1729 10.8385 14.8581 10.8385C14.5434 10.8385 14.2867 10.5823 14.2867 10.2681C14.2867 9.32557 13.5166 8.55684 12.5724 8.55684C12.2577 8.55684 12.001 8.30059 12.001 7.98641C12.001 7.67223 12.2577 7.41599 12.5724 7.41599C14.1483 7.41599 15.4296 8.69499 15.4296 10.2681ZM18.6929 11.536C18.6327 11.8011 18.3961 11.9794 18.1349 11.9794C18.0925 11.9794 18.0501 11.9749 18.0077 11.966C17.6996 11.8947 17.5077 11.5894 17.5769 11.2819C17.6595 10.9188 17.7019 10.5422 17.7019 10.1634C17.7019 7.39148 15.4407 5.13429 12.664 5.13429C12.2845 5.13429 11.9073 5.17663 11.5434 5.25907C11.2354 5.33037 10.9296 5.13652 10.8604 4.82902C10.789 4.52153 10.9832 4.21626 11.2912 4.14719C11.7376 4.04469 12.1997 3.99344 12.664 3.99344C16.0724 3.99344 18.8447 6.76089 18.8447 10.1634C18.8447 10.6269 18.7934 11.0881 18.6929 11.536Z" fill="white"/>
</svg>
