<svg width="101" height="100" viewBox="0 0 101 100" fill="none" xmlns="http://www.w3.org/2000/svg">
<g clip-path="url(#clip0_299_624)">
<path d="M100.5 18.3087C99.9903 18.8678 99.5879 19.6673 98.953 19.9495C94.7125 21.849 93.7693 24.5062 93.926 28.8173C93.9992 30.8004 94.2134 32.7835 94.237 34.7666C94.2526 36.1253 94.2004 37.5205 93.9051 38.8348C92.9906 42.8846 89.5104 45.7848 84.9563 46.1924C79.1925 46.7071 71.5501 43.2948 69.9746 35.4825C68.9817 30.56 70.7741 26.518 74.3458 23.2024C77.8338 19.9652 82.0979 18.1623 86.6703 17.2296C90.195 16.5084 93.8111 16.255 97.3827 15.7638C98.8093 15.5678 99.8492 16.0407 100.5 17.3315V18.3087Z" fill="url(#paint0_linear_299_624)"/>
<path d="M35.4831 94.5109C33.8789 93.7715 32.3556 93.1287 30.8846 92.3867C23.6707 88.7445 17.1152 84.2113 11.7355 78.1078C5.50917 71.0402 1.60304 62.8857 0.766947 53.4639C-0.518546 38.9656 2.818 25.5646 11.226 13.6346C15.7382 7.23321 21.9279 3.0449 29.7689 1.62093C43.7447 -0.918705 58.4495 7.95435 61.8227 21.3109C62.8625 25.4313 62.5464 29.4968 61.6946 33.5937C60.869 37.5625 60.5842 41.5836 60.8141 45.6412C60.835 46.0149 60.6835 46.4825 60.4483 46.7726C54.5565 54.0701 49.5765 61.966 45.0773 70.1753C44.6958 70.873 44.3431 71.1891 43.4573 71.129C40.4422 70.9278 37.8111 72.5608 36.6118 75.2128C35.3995 77.8961 35.9456 80.8355 38.0227 83.0825C38.2553 83.3333 38.4591 83.8559 38.3546 84.1329C37.0978 87.4511 35.9769 90.8033 35.4831 94.5135V94.5109ZM31.0074 19.9079C30.9996 24.8669 34.9762 28.8776 39.9066 28.888C44.8343 28.8985 48.8763 24.8826 48.8893 19.9653C48.8998 15.0193 44.9231 11.0244 39.9667 11.0087C34.9971 10.9904 31.0152 14.9462 31.0074 19.9079ZM19.3387 37.0425C15.4482 37.0347 12.2946 40.1413 12.2737 44.003C12.2528 47.9118 15.4299 51.1072 19.3256 51.0889C23.1873 51.0732 26.3514 47.9117 26.3592 44.0631C26.3671 40.2171 23.1978 37.0478 19.3387 37.0425ZM32.2746 64.098C32.2668 60.2311 29.1157 57.0853 25.2488 57.0826C21.4054 57.0826 18.2282 60.2467 18.2047 64.1006C18.1812 67.9858 21.3793 71.1604 25.3011 71.1447C29.1732 71.129 32.2824 67.9884 32.2746 64.098Z" fill="url(#paint1_linear_299_624)"/>
<path d="M69.9796 41.9887C74.4161 46.6604 75.2601 47.1699 80.9324 48.5782C80.5588 49.7774 80.2453 50.9898 79.8089 52.1603C78.27 56.3016 76.0674 60.1032 73.7055 63.8133C67.5001 73.5695 60.5396 82.7482 52.3093 90.8975C50.0519 93.1315 47.5305 95.1224 44.9987 97.0507C43.9484 97.8502 42.5897 98.3179 41.3016 98.7072C40.071 99.0782 39.2375 98.4537 38.9083 97.1917C38.4537 95.4568 38.8352 93.7611 39.2349 92.0811C40.4107 87.1429 42.4565 82.5314 44.68 78.0034C49.5606 68.0722 55.2461 58.6191 62.1386 49.9473C64.1348 47.4364 66.5281 45.2416 68.7594 42.9215C69.1122 42.5557 69.5746 42.2918 69.9796 41.9861V41.9887Z" fill="url(#paint2_linear_299_624)"/>
<path d="M73.3731 70.3215C76.3674 75.0324 78.2251 79.7772 75.8422 85.2144C74.8363 87.5085 73.1824 89.3061 71.1784 90.7562C65.2238 95.0673 58.3757 96.4076 51.167 96.6689C59.6377 88.8253 66.7183 79.8399 73.3731 70.3215Z" fill="url(#paint3_linear_299_624)"/>
</g>
<defs>
<linearGradient id="paint0_linear_299_624" x1="85.1015" y1="15.7212" x2="85.1015" y2="46.2428" gradientUnits="userSpaceOnUse">
<stop stop-color="#FFE958"/>
<stop offset="1" stop-color="#FF9E58"/>
</linearGradient>
<linearGradient id="paint1_linear_299_624" x1="31.4888" y1="1.18701" x2="31.4888" y2="94.5135" gradientUnits="userSpaceOnUse">
<stop stop-color="#FFE958"/>
<stop offset="1" stop-color="#FF9E58"/>
</linearGradient>
<linearGradient id="paint2_linear_299_624" x1="59.8172" y1="41.9861" x2="59.8172" y2="98.8133" gradientUnits="userSpaceOnUse">
<stop stop-color="#FFE958"/>
<stop offset="1" stop-color="#FF9E58"/>
</linearGradient>
<linearGradient id="paint3_linear_299_624" x1="64.0479" y1="70.3215" x2="64.0479" y2="96.6689" gradientUnits="userSpaceOnUse">
<stop stop-color="#FFE958"/>
<stop offset="1" stop-color="#FF9E58"/>
</linearGradient>
<clipPath id="clip0_299_624">
<rect width="100" height="100" fill="white" transform="translate(0.5)"/>
</clipPath>
</defs>
</svg>
