<svg width="61" height="60" viewBox="0 0 61 60" fill="none" xmlns="http://www.w3.org/2000/svg">
<g clip-path="url(#clip0_559_760)">
<path d="M52.5499 36.8C51.8999 34.7 51.2899 32.71 50.6799 30.73C49.6499 27.38 48.6099 24.04 47.5999 20.69C47.4699 20.25 47.2899 20.08 46.8199 20.1C45.8999 20.14 44.9799 20.11 44.0299 20.11V29.21C44.3399 29.21 44.6599 29.21 44.9799 29.21C48.4999 29.13 48.6299 29.29 48.5299 32.8C48.5099 33.51 48.5299 34.23 48.3999 34.92C47.8699 37.9 45.0799 40.06 42.0999 39.83C38.9599 39.59 36.5399 37.14 36.4299 34.05C36.3899 32.98 36.3999 31.92 36.4199 30.85C36.4399 29.82 37.0199 29.24 38.0699 29.22C39.0099 29.2 39.9499 29.22 40.9299 29.22V20.17H34.8999V44.36H25.8099V20.15H19.7699V29.22C20.6499 29.22 21.5099 29.22 22.3799 29.22C23.7099 29.22 24.2499 29.75 24.2499 31.06C24.2499 32.08 24.2699 33.1 24.2299 34.12C24.0999 37.3 21.4199 39.84 18.2199 39.85C15.0099 39.86 12.2699 37.28 12.1499 34.09C12.1099 33.03 12.1299 31.96 12.1399 30.89C12.1499 29.83 12.7499 29.24 13.8399 29.22C14.7399 29.2 15.6399 29.2 16.5399 29.2C16.5599 29.2 16.5799 29.18 16.6399 29.15V20.13C15.5999 20.13 14.5799 20.1 13.5699 20.16C13.3999 20.16 13.1699 20.49 13.0999 20.72C11.9999 24.22 10.9299 27.72 9.84994 31.23C9.28994 33.06 8.71994 34.88 8.11994 36.83C8.90994 36.83 9.60994 36.82 10.3099 36.83C11.5899 36.85 12.1499 37.4 12.1299 38.66C12.1199 39.94 12.1899 41.23 11.9899 42.49C11.5099 45.58 8.71994 47.65 5.52994 47.43C2.55994 47.23 0.139941 44.69 0.0299414 41.64C-0.0100586 40.57 -5.85932e-05 39.51 0.0199414 38.44C0.0399414 37.45 0.559941 36.9 1.55994 36.85C2.47994 36.81 3.40994 36.81 4.32994 36.85C4.76994 36.86 4.99994 36.74 5.13994 36.29C6.71994 31.11 8.30994 25.93 9.89994 20.75C9.94994 20.58 9.97994 20.4 10.0199 20.23C9.94994 20.2 9.92994 20.19 9.89994 20.18C7.73994 19.99 6.98994 18.84 7.64994 16.71C7.84994 16.05 8.32994 15.71 8.99994 15.62C9.22994 15.59 9.46994 15.6 9.70994 15.6C23.4499 15.6 37.1999 15.6 50.9399 15.6C52.6199 15.6 53.0799 16.06 53.0799 17.76C53.0799 18.02 53.0799 18.28 53.0799 18.54C53.0499 19.54 52.4699 20.12 51.4799 20.15C51.2199 20.15 50.9599 20.15 50.6199 20.15C50.6999 20.46 50.7499 20.71 50.8199 20.95C52.3799 26.04 53.9599 31.12 55.5099 36.21C55.6699 36.72 55.9099 36.87 56.4099 36.85C57.2599 36.81 58.1199 36.82 58.9699 36.85C60.1199 36.88 60.6699 37.43 60.6499 38.58C60.6299 39.97 60.7299 41.4 60.4699 42.75C59.8899 45.78 57.0299 47.73 53.9399 47.42C50.9599 47.12 48.6099 44.56 48.5399 41.51C48.5199 40.52 48.5299 39.52 48.5399 38.52C48.5499 37.46 49.0899 36.89 50.1399 36.84C50.9099 36.81 51.6899 36.84 52.5499 36.84V36.8Z" fill="url(#paint0_linear_559_760)"/>
<path d="M16.61 51.9601C16.72 51.4601 16.77 51.0101 16.91 50.5901C17.5 48.6901 19.19 47.4301 21.25 47.4201C27.31 47.4001 33.38 47.3901 39.44 47.4201C41.97 47.4301 43.69 49.1601 44.02 51.9601H44.82C49.44 51.9601 54.06 51.9601 58.68 51.9601C60.16 51.9601 60.66 52.4501 60.66 53.9101C60.66 55.2401 60.67 56.5601 60.66 57.8901C60.65 58.9601 60.11 59.5001 59.05 59.5401C58.86 59.5401 58.67 59.5401 58.48 59.5401C39.72 59.5401 20.96 59.5401 2.20002 59.5401C1.92002 59.5401 1.63002 59.5401 1.35002 59.5101C0.60002 59.4201 0.0700195 58.9101 0.0500195 58.1501C0.0100195 56.5601 0.0100195 54.9801 0.0500195 53.3901C0.0700195 52.4901 0.72002 51.9601 1.74002 51.9501C3.45002 51.9401 5.15002 51.9501 6.86002 51.9501C9.87002 51.9501 12.88 51.9501 15.88 51.9501H16.63L16.61 51.9601Z" fill="url(#paint1_linear_559_760)"/>
<path d="M28.2398 0C28.0398 0.51 27.9098 0.83 27.7798 1.15C26.3198 4.74 24.8498 8.33 23.4098 11.93C23.2198 12.4 22.9898 12.56 22.4798 12.56C18.4298 12.54 14.3798 12.55 10.2598 12.41C16.1998 8.31 22.1398 4.21 28.2398 0Z" fill="url(#paint2_linear_559_760)"/>
<path d="M32.4902 0.100088C38.4802 4.23009 44.3902 8.31009 50.4402 12.4801C50.1002 12.5101 49.9302 12.5501 49.7602 12.5501C45.8602 12.5501 41.9502 12.5501 38.0502 12.5501C37.7102 12.5501 37.4402 12.5701 37.2702 12.1401C35.6902 8.22009 34.0902 4.30009 32.5002 0.380088C32.4802 0.340088 32.5002 0.290088 32.5002 0.0900879L32.4902 0.100088Z" fill="url(#paint3_linear_559_760)"/>
<path d="M34.08 12.51H26.52C27.78 9.36999 29.01 6.27999 30.32 2.98999C31.61 6.26999 32.83 9.35999 34.07 12.51H34.08Z" fill="url(#paint4_linear_559_760)"/>
</g>
<defs>
<linearGradient id="paint0_linear_559_760" x1="30.3276" y1="15.5984" x2="30.3276" y2="47.4523" gradientUnits="userSpaceOnUse">
<stop stop-color="#FFE958"/>
<stop offset="1" stop-color="#FF9E58"/>
</linearGradient>
<linearGradient id="paint1_linear_559_760" x1="30.3422" y1="47.4011" x2="30.3422" y2="59.5401" gradientUnits="userSpaceOnUse">
<stop stop-color="#FFE958"/>
<stop offset="1" stop-color="#FF9E58"/>
</linearGradient>
<linearGradient id="paint2_linear_559_760" x1="19.2498" y1="0" x2="19.2498" y2="12.56" gradientUnits="userSpaceOnUse">
<stop stop-color="#FFE958"/>
<stop offset="1" stop-color="#FF9E58"/>
</linearGradient>
<linearGradient id="paint3_linear_559_760" x1="41.4652" y1="0.0900879" x2="41.4652" y2="12.5502" gradientUnits="userSpaceOnUse">
<stop stop-color="#FFE958"/>
<stop offset="1" stop-color="#FF9E58"/>
</linearGradient>
<linearGradient id="paint4_linear_559_760" x1="30.3" y1="2.98999" x2="30.3" y2="12.51" gradientUnits="userSpaceOnUse">
<stop stop-color="#FFE958"/>
<stop offset="1" stop-color="#FF9E58"/>
</linearGradient>
<clipPath id="clip0_559_760">
<rect width="60.66" height="59.55" fill="white"/>
</clipPath>
</defs>
</svg>
