<svg width="100" height="101" viewBox="0 0 100 101" fill="none" xmlns="http://www.w3.org/2000/svg">
<g clip-path="url(#clip0_299_647)">
<path d="M10.0051 101.248C7.90718 100.512 7.08741 98.9912 7.27599 96.8061C7.34409 96.0204 7.27075 95.2242 7.2917 94.4333C7.34409 92.5551 8.6484 91.2139 10.4975 91.1134C12.0096 91.0323 12.7657 90.2095 12.7657 88.6453V81.2595C15.2775 81.3415 17.6923 81.0743 20.005 80.2066C22.3623 79.3231 24.2847 77.8417 25.8091 75.6514C28.8211 79.7993 33.0012 81.3018 37.844 81.2701C42.6659 81.241 46.9324 79.9209 49.989 75.662C52.9853 79.8019 57.1655 81.3045 62.0161 81.2727C66.8353 81.241 71.1045 79.9289 74.1532 75.6778C77.4402 80.0929 81.9216 81.532 87.2149 81.1986V91.1081C87.8906 91.1081 88.493 91.1001 89.0928 91.1081C91.4212 91.1504 92.6994 92.4651 92.7125 94.8221C92.7151 95.4808 92.6653 96.1448 92.723 96.8008C92.9168 98.9859 92.0839 100.502 89.9964 101.248H10.0077H10.0051Z" fill="url(#paint0_linear_299_647)"/>
<path d="M29.3813 49.5498C35.8611 55.9886 43.5692 55.9886 50.0595 49.5657C52.5948 53.0866 56.2092 54.2929 60.316 54.2532C64.3679 54.2135 67.9875 53.0893 70.5464 49.4863C73.3384 53.2506 77.144 54.4305 81.6463 54.1818V62.6284C82.5054 62.6284 83.244 62.6098 83.9826 62.631C85.6641 62.6839 87.123 63.8611 87.1675 65.525C87.267 69.2126 87.1989 72.9055 87.1989 76.6407C85.8475 76.4926 84.5405 76.4476 83.2754 76.1936C79.4043 75.4159 76.9397 72.5828 76.484 68.5142C76.4316 68.0566 76.395 67.5936 76.3504 67.136C76.2064 65.6387 75.2425 64.7235 73.8649 64.7764C72.5396 64.8266 71.6438 65.8795 71.5757 67.3661C71.526 68.4137 71.5024 69.4904 71.2536 70.4982C70.5359 73.4107 68.6449 75.2334 65.7901 75.9952C63.5821 76.5851 61.3323 76.6645 59.0903 76.1936C55.3711 75.4133 53.0191 72.8658 52.3853 68.9825C52.2857 68.3661 52.2281 67.7391 52.1862 67.1175C52.0919 65.7102 51.1333 64.7473 49.8028 64.7526C48.4408 64.7578 47.4927 65.771 47.422 67.2312C47.3748 68.2471 47.3696 69.2893 47.1443 70.2707C46.4634 73.2705 44.5933 75.1831 41.6494 75.9767C39.4414 76.5719 37.1916 76.6592 34.9522 76.1936C30.8428 75.3392 28.2394 72.1172 28.0534 67.7365C28.0377 67.3423 28.0298 66.9403 27.9329 66.562C27.6134 65.2975 26.5553 64.5991 25.2771 64.7658C24.143 64.9139 23.352 65.861 23.2813 67.0937C23.2263 68.0777 23.2237 69.083 23.0194 70.0379C22.2599 73.6065 19.8895 75.7386 16.173 76.2545C15.0782 76.4053 13.9729 76.4608 12.7628 76.5693C12.7628 75.3604 12.7628 74.2123 12.7628 73.0669C12.7628 70.7892 12.7576 68.5142 12.7628 66.2366C12.7707 63.9537 14.0881 62.6416 16.3668 62.6257C16.9508 62.6204 17.5349 62.6257 18.2473 62.6257V54.5574C20.4474 54.1289 22.5139 53.8723 24.4887 53.3035C26.5133 52.7189 28.0979 51.3539 29.3708 49.5419L29.3813 49.5498Z" fill="url(#paint1_linear_299_647)"/>
<path d="M18.3132 50.2934C18.3132 48.0686 18.3132 46.0979 18.3132 44.1245C18.3132 43.2674 18.3001 42.4076 18.3158 41.5505C18.3604 39.4449 19.4682 38.3285 21.5688 38.3259C28.2974 38.3153 35.026 38.3206 41.7546 38.3206C42.1422 38.3206 42.5325 38.3206 43.0353 38.3206C43.0615 37.9132 43.1008 37.5667 43.1034 37.2201C43.1086 32.6014 43.1296 27.9826 43.0798 23.3639C43.072 22.7105 42.7524 22.0518 42.5246 21.4169C42.1474 20.3667 42.336 20.1286 43.4256 20.2212C44.7902 20.3349 46.1599 20.3852 47.5271 20.4672C48.0981 20.5016 48.3155 20.2635 48.5277 19.6816C48.8446 18.8112 49.3396 17.9568 49.942 17.2558C51.3564 15.6077 51.4166 14.6395 50.0834 12.9068C49.9053 12.674 49.9813 12.2429 49.942 11.9016C50.2537 11.9757 50.6518 11.9492 50.8639 12.1371C52.5611 13.637 52.5926 15.9807 51.0211 17.7663C50.4527 18.4118 49.976 19.134 49.4574 19.8217C49.5282 19.9196 49.5963 20.0175 49.667 20.1154C49.9944 20.0651 50.3427 20.0678 50.6465 19.954C51.9876 19.4488 53.3076 18.8826 54.6539 18.3959C55.4422 18.1102 56.2594 17.8695 57.0818 17.7214C57.679 17.6155 58.0457 18.0309 57.6371 18.544C56.6444 19.7874 56.8984 21.2132 56.8958 22.602C56.8827 27.4192 56.8906 32.2337 56.8906 37.0508V38.3338C57.3987 38.3338 57.7811 38.3338 58.1635 38.3338C64.8266 38.3338 71.4897 38.3338 78.1528 38.3338C80.6305 38.3338 81.6729 39.3787 81.6782 41.8786C81.686 44.6456 81.6782 47.41 81.6782 50.2828C80.4315 50.1399 79.2633 50.1003 78.1345 49.8595C75.0439 49.2035 73.0324 46.8915 72.5766 43.598C72.5033 43.0769 72.4693 42.5478 72.4064 42.0241C72.265 40.8548 71.398 40.1168 70.264 40.1882C69.1875 40.2543 68.462 41.0664 68.3886 42.2119C68.331 43.1298 68.3179 44.0689 68.1032 44.9524C67.3462 48.0872 65.1645 49.7749 61.3772 50.0738C60.1226 50.1717 58.8157 50.095 57.582 49.849C54.426 49.2167 52.3778 46.7777 51.9849 43.4102C51.9273 42.9182 51.909 42.4209 51.8304 41.9341C51.6523 40.8204 50.7906 40.1379 49.6879 40.212C48.6638 40.2781 47.9148 41.0717 47.8205 42.151C47.7367 43.1324 47.7445 44.143 47.501 45.0847C46.7152 48.1401 44.6173 49.7405 40.8745 50.0659C39.5912 50.177 38.2475 50.0976 36.9851 49.8357C33.7662 49.1691 31.6944 46.6164 31.3932 43.1801C31.3592 42.7859 31.3539 42.3891 31.2989 41.9976C31.1234 40.7808 30.2958 40.0136 29.2193 40.0506C28.1114 40.0877 27.3074 40.9871 27.2445 42.2225C27.2026 43.0425 27.1973 43.8758 27.0402 44.6747C26.5216 47.3174 24.9396 49.0395 22.3598 49.6955C21.1105 50.013 19.7983 50.0817 18.3132 50.2934Z" fill="url(#paint2_linear_299_647)"/>
<path d="M47.5264 17.8349C44.7554 16.3349 43.1918 12.7188 43.8335 9.34598C44.5275 5.69012 46.5574 2.77496 48.8465 0C52.9245 2.60037 57.618 8.5656 55.2529 14.8774C54.7893 16.1127 53.6579 17.3217 52.6102 17.6153C52.7962 17.0016 53.0529 16.4328 53.134 15.8376C53.4143 13.8245 52.5971 12.2294 51.1068 10.9676C50.3289 10.3062 49.318 10.42 48.6291 11.1369C47.9874 11.8035 47.9167 12.8008 48.4615 13.5811C49.2577 14.7239 49.2062 15.8085 48.307 16.8349C48.0293 17.1524 47.7831 17.5015 47.5264 17.8322V17.8349Z" fill="url(#paint3_linear_299_647)"/>
</g>
<defs>
<linearGradient id="paint0_linear_299_647" x1="50" y1="75.6514" x2="50" y2="101.248" gradientUnits="userSpaceOnUse">
<stop stop-color="#FFE958"/>
<stop offset="1" stop-color="#FF9E58"/>
</linearGradient>
<linearGradient id="paint1_linear_299_647" x1="49.9911" y1="49.4863" x2="49.9911" y2="76.6407" gradientUnits="userSpaceOnUse">
<stop stop-color="#FFE958"/>
<stop offset="1" stop-color="#FF9E58"/>
</linearGradient>
<linearGradient id="paint2_linear_299_647" x1="49.9949" y1="11.9016" x2="49.9949" y2="50.2934" gradientUnits="userSpaceOnUse">
<stop stop-color="#FFE958"/>
<stop offset="1" stop-color="#FF9E58"/>
</linearGradient>
<linearGradient id="paint3_linear_299_647" x1="49.7898" y1="0" x2="49.7898" y2="17.8349" gradientUnits="userSpaceOnUse">
<stop stop-color="#FFE958"/>
<stop offset="1" stop-color="#FF9E58"/>
</linearGradient>
<clipPath id="clip0_299_647">
<rect width="100" height="101" fill="white"/>
</clipPath>
</defs>
</svg>
