<svg width="60" height="60" viewBox="0 0 60 60" fill="none" xmlns="http://www.w3.org/2000/svg">
<g clip-path="url(#clip0_559_747)">
<path d="M1.3 59.8901C0.29 59.4301 0 58.6201 0 57.5401C0.04 52.0101 0.02 46.4701 0.02 40.9301C0.02 36.2001 2.92 32.7401 7.59 31.9101C7.64 31.9101 7.69 31.8601 7.86 31.7801C5.71 31.3701 4.04 30.3601 2.91 28.6001C1.78 26.8301 1.49 24.9201 2.04 22.8901C2.92 19.6701 6.18 17.4501 9.46 17.8101C12.9 18.1801 15.59 20.9601 15.79 24.3301C16.01 27.9301 13.67 30.9001 9.94 31.7401C11.65 32.1501 15.12 31.7501 17.13 30.8001C21.96 28.5201 24.52 24.7001 24.69 19.3401C24.78 16.6601 26.76 14.4801 29.43 14.1801C31.97 13.9001 34.5 15.5801 35.01 18.1301C35.26 19.3801 35.23 20.7401 35.05 22.0101C33.68 31.3501 28.55 37.7201 19.73 41.0901C19.19 41.3001 18.63 41.4801 18.06 41.5901C17.64 41.6701 17.55 41.8601 17.55 42.2601C17.57 44.9701 17.55 47.6801 17.55 50.3901C17.55 52.7901 17.52 55.1901 17.56 57.5801C17.58 58.6401 17.26 59.4301 16.27 59.8901H1.3Z" fill="url(#paint0_linear_559_747)"/>
<path d="M43.6402 59.8901C42.6602 59.4301 42.3502 58.6401 42.3502 57.5801C42.3802 52.4901 42.3502 47.4001 42.3702 42.3101C42.3702 41.8601 42.2402 41.6801 41.8002 41.5701C38.2902 40.6201 35.2502 38.8401 32.4702 36.4301C34.8702 33.5701 36.6002 30.3801 37.6702 26.7201C40.8702 30.7601 45.0402 32.2401 49.9602 31.7601C45.9202 30.5601 43.6602 27.5501 44.1502 24.0101C44.6402 20.5101 47.4502 17.8801 50.8302 17.7801C54.3502 17.6801 57.4002 20.1001 58.0202 23.4801C58.3802 25.4401 57.9702 27.2401 56.8302 28.8601C55.8102 30.3001 55.0202 30.7901 52.0802 31.8301C52.4002 31.8901 52.6402 31.9401 52.8802 31.9901C56.5402 32.7901 59.1802 35.5601 59.7902 39.2701C59.8102 39.3601 59.8602 39.4401 59.8902 39.5301V58.6001C59.6102 59.1801 59.1802 59.6101 58.6002 59.8901H43.6302H43.6402Z" fill="url(#paint1_linear_559_747)"/>
<path d="M24.7098 8.58009C24.6498 9.44009 24.3798 9.99009 23.7498 10.3101C23.0698 10.6601 22.3798 10.6201 21.8398 10.1101C20.5498 8.89009 19.2998 7.64009 18.0798 6.35009C17.4498 5.68009 17.5598 4.65009 18.1898 4.02009C18.8298 3.39009 19.8598 3.29009 20.5198 3.92009C21.8098 5.14009 23.0498 6.40009 24.2798 7.68009C24.5298 7.94009 24.6098 8.36009 24.6998 8.58009H24.7098Z" fill="url(#paint2_linear_559_747)"/>
<path d="M37.15 10.55C36.26 10.47 35.72 10.18 35.41 9.54001C35.08 8.85001 35.15 8.17001 35.66 7.64001C36.86 6.39001 38.08 5.16001 39.34 3.96001C40.03 3.31001 41.07 3.38001 41.72 4.03001C42.37 4.68001 42.45 5.72001 41.8 6.41001C40.61 7.67001 39.38 8.89001 38.12 10.08C37.83 10.35 37.38 10.45 37.15 10.55Z" fill="url(#paint3_linear_559_747)"/>
<path d="M31.7098 3.5301C31.7098 4.1101 31.7298 4.7001 31.7098 5.2801C31.6798 6.2701 30.8998 7.0201 29.9498 7.0101C28.9998 7.0101 28.2298 6.2501 28.2098 5.2601C28.1898 4.0901 28.1898 2.9301 28.2098 1.7601C28.2198 0.770097 28.9898 0.0100975 29.9398 9.75399e-05C30.9198 -0.00990246 31.6898 0.750098 31.7098 1.7801C31.7198 2.3601 31.7098 2.9501 31.7098 3.5301Z" fill="url(#paint4_linear_559_747)"/>
</g>
<defs>
<linearGradient id="paint0_linear_559_747" x1="17.5956" y1="14.1497" x2="17.5956" y2="59.8901" gradientUnits="userSpaceOnUse">
<stop stop-color="#FFE958"/>
<stop offset="1" stop-color="#FF9E58"/>
</linearGradient>
<linearGradient id="paint1_linear_559_747" x1="46.1802" y1="17.7771" x2="46.1802" y2="59.8901" gradientUnits="userSpaceOnUse">
<stop stop-color="#FFE958"/>
<stop offset="1" stop-color="#FF9E58"/>
</linearGradient>
<linearGradient id="paint2_linear_559_747" x1="21.1842" y1="3.49463" x2="21.1842" y2="10.5389" gradientUnits="userSpaceOnUse">
<stop stop-color="#FFE958"/>
<stop offset="1" stop-color="#FF9E58"/>
</linearGradient>
<linearGradient id="paint3_linear_559_747" x1="38.7289" y1="3.5061" x2="38.7289" y2="10.55" gradientUnits="userSpaceOnUse">
<stop stop-color="#FFE958"/>
<stop offset="1" stop-color="#FF9E58"/>
</linearGradient>
<linearGradient id="paint4_linear_559_747" x1="29.9568" y1="0" x2="29.9568" y2="7.0102" gradientUnits="userSpaceOnUse">
<stop stop-color="#FFE958"/>
<stop offset="1" stop-color="#FF9E58"/>
</linearGradient>
<clipPath id="clip0_559_747">
<rect width="59.9" height="59.89" fill="white"/>
</clipPath>
</defs>
</svg>
