<svg width="60" height="60" viewBox="0 0 60 60" fill="none" xmlns="http://www.w3.org/2000/svg">
<g clip-path="url(#clip0_559_754)">
<path d="M6.09995 59.8899C4.99995 59.6299 3.91995 59.3399 2.97995 58.6799C0.459952 56.8999 -0.620048 53.8599 0.359952 50.6999C1.27995 47.7299 2.38995 44.8199 3.41995 41.8799C3.42995 41.8499 3.46995 41.8199 3.50995 41.7699C6.27995 42.0999 8.82995 41.4699 11.1 39.7999C12.86 38.4999 14.08 36.7999 14.77 34.7199C16.08 30.7199 14.97 25.5799 10.22 22.5499C11.54 18.7899 12.87 15.0199 14.22 11.1699C14.54 11.4599 14.8 11.7499 15.11 11.9599C15.8 12.4399 16.48 12.9199 17.21 13.3199C21.89 15.9299 26.25 18.9899 30.28 22.5099C30.41 22.6199 30.54 22.7499 30.7 22.8999C28.62 25.2199 27.71 27.9399 28 31.0199C28.22 33.3599 29.19 35.3899 30.82 37.1099C33.96 40.4199 39.39 41.5499 44.08 38.5799C44.18 38.7099 44.2799 38.8399 44.3699 38.9899C45.1499 40.3099 45.9699 41.6199 46.7099 42.9699C47.5899 44.5799 48.74 45.9099 50.36 46.8099C50.43 46.8499 50.4799 46.9099 50.5499 46.9599C49.8699 48.2099 49.61 49.5499 49.61 50.9599C49.63 53.9399 47.4 56.2999 44.54 56.3699C41.59 56.4499 39.26 54.1999 39.13 51.1699C39.11 50.7999 39.13 50.4299 39.11 50.0599C39.05 49.1699 38.3599 48.4999 37.4799 48.4399C36.6399 48.3799 35.8599 48.9499 35.6899 49.7999C35.6099 50.1799 35.6199 50.5699 35.6199 50.9599C35.6199 52.1299 35.6199 53.2999 35.6199 54.4699C35.6099 57.2299 33.95 59.2499 31.23 59.7899C31.16 59.7999 31.09 59.8499 31.03 59.8899H29.74C29.74 59.8899 29.68 59.8299 29.64 59.8299C27.04 59.4699 25.11 57.1999 25.08 54.6899C25.08 54.2399 24.81 54.1199 24.41 54.2699C24.23 54.3399 24.04 54.3999 23.86 54.4599C18.53 56.2699 13.2 58.0799 7.86995 59.8899H6.11995H6.09995ZM24.02 24.7299C24.02 23.7499 23.27 22.9899 22.28 22.9899C21.33 22.9899 20.55 23.7399 20.53 24.6699C20.51 25.6599 21.29 26.4699 22.28 26.4699C23.26 26.4699 24.01 25.7199 24.01 24.7299H24.02ZM12.8 52.9199C12.8 51.9399 12.05 51.1899 11.06 51.1899C10.1 51.1899 9.32995 51.9299 9.29995 52.8599C9.26995 53.8399 10.08 54.6599 11.06 54.6599C12.03 54.6599 12.79 53.8899 12.8 52.9099V52.9199Z" fill="url(#paint0_linear_559_754)"/>
<path d="M59.9 39.89C59.8 40.2 59.72 40.52 59.61 40.82C58.82 42.98 57.26 44.2001 55 44.3801C52.88 44.5501 51.16 43.6701 50.11 41.8101C48.04 38.1401 45.81 34.5801 43.24 31.2401C36.46 22.4201 28.18 15.3501 18.43 10.0001C15.72 8.51005 14.75 5.60005 16.05 2.94005C17.35 0.290051 20.6 -0.779949 23.22 0.630051C28.1 3.26005 32.7 6.33005 37 9.83005C46.06 17.2001 53.4 26 59.02 36.23C59.39 36.9 59.61 37.65 59.91 38.37V39.89H59.9Z" fill="url(#paint1_linear_559_754)"/>
<path d="M33.3198 25.3301C36.5498 28.4901 39.4798 31.9201 42.0898 35.6101C39.7798 37.3801 35.6298 37.3301 33.1098 34.4501C30.8498 31.8501 30.9098 27.5601 33.3098 25.3401L33.3198 25.3301Z" fill="url(#paint2_linear_559_754)"/>
<path d="M8.96992 26.0601C10.8599 27.2201 12.4399 30.2501 11.4699 33.5001C10.5999 36.4101 7.63992 38.5301 4.66992 38.3101C6.10992 34.2301 7.52992 30.1701 8.97992 26.0601H8.96992Z" fill="url(#paint3_linear_559_754)"/>
</g>
<defs>
<linearGradient id="paint0_linear_559_754" x1="25.2757" y1="11.1699" x2="25.2757" y2="59.8899" gradientUnits="userSpaceOnUse">
<stop stop-color="#FFE958"/>
<stop offset="1" stop-color="#FF9E58"/>
</linearGradient>
<linearGradient id="paint1_linear_559_754" x1="37.6943" y1="0.00634766" x2="37.6943" y2="44.4007" gradientUnits="userSpaceOnUse">
<stop stop-color="#FFE958"/>
<stop offset="1" stop-color="#FF9E58"/>
</linearGradient>
<linearGradient id="paint2_linear_559_754" x1="36.7754" y1="25.3301" x2="36.7754" y2="36.8036" gradientUnits="userSpaceOnUse">
<stop stop-color="#FFE958"/>
<stop offset="1" stop-color="#FF9E58"/>
</linearGradient>
<linearGradient id="paint3_linear_559_754" x1="8.21716" y1="26.0601" x2="8.21716" y2="38.3257" gradientUnits="userSpaceOnUse">
<stop stop-color="#FFE958"/>
<stop offset="1" stop-color="#FF9E58"/>
</linearGradient>
<clipPath id="clip0_559_754">
<rect width="59.9" height="59.89" fill="white"/>
</clipPath>
</defs>
</svg>
