<svg width="100" height="100" viewBox="0 0 100 100" fill="none" xmlns="http://www.w3.org/2000/svg">
<g clip-path="url(#clip0_299_634)">
<path d="M51.8152 0.00260993C53.4438 0.268823 55.0881 0.472397 56.701 0.816908C61.0074 1.74082 64.9014 3.53384 68.1638 6.54831C72.0813 10.1657 73.7986 14.72 73.8039 19.9868C73.8039 21.0595 73.8221 22.1348 73.8352 23.2075C73.8352 23.2649 73.8796 23.3223 73.9605 23.5102C74.2528 23.5102 74.5973 23.5102 74.9444 23.5102C78.199 23.5102 81.4536 23.4894 84.7108 23.5181C87.2998 23.5416 89.3329 24.9457 90.1707 27.2007C90.9615 29.3304 90.3952 31.7524 88.7274 33.287C87.7095 34.224 86.5142 34.7512 85.1127 34.7747C84.8856 34.7773 84.6559 34.7851 84.4289 34.7851C61.2527 34.7851 38.0765 34.7643 14.9004 34.8086C11.5675 34.8138 9.69096 32.7833 9.08806 30.9355C7.87444 27.2111 10.5705 23.5703 14.6237 23.5181C17.8783 23.4763 21.1329 23.5102 24.3901 23.5076C24.7111 23.5076 25.0321 23.5076 25.5097 23.5076C25.5097 22.3488 25.5097 21.2553 25.5097 20.1617C25.515 17.6718 25.8255 15.2315 26.7677 12.9035C28.8922 7.65231 32.9219 4.3899 37.9878 2.25237C40.7622 1.08312 43.6722 0.420199 46.6789 0.190525C46.9633 0.169645 47.24 0.0652482 47.5219 0C48.9547 0 50.3876 0 51.8204 0L51.8152 0.00260993ZM28.6051 23.4502H70.6928V20.394H28.6051V23.4502Z" fill="url(#paint0_linear_299_634)"/>
<path d="M9.27864 36.3929C11.4449 37.9901 13.8852 38.118 16.3907 38.0998C22.2187 38.058 28.044 38.0867 33.872 38.0867C34.2609 38.0867 34.6498 38.0867 35.2031 38.0867C34.9864 38.7757 34.8298 39.3839 34.608 39.9659C33.0864 43.9356 30.3616 46.7021 26.298 48.0253C25.5776 48.2602 24.7294 48.161 23.9464 48.1193C22.5945 48.0462 21.2373 47.733 19.901 47.8218C18.0767 47.9444 16.9153 49.1085 16.5838 50.8936C15.9914 54.0699 16.8996 56.8051 19.2642 59.0314C19.4417 59.1984 19.6792 59.3028 19.9767 59.4907C20.1177 57.8648 20.2299 56.351 20.3865 54.8399C20.457 54.1639 20.5901 53.4905 20.731 52.8224C20.9685 51.6923 21.6106 51.1572 22.4979 51.3112C23.4479 51.4757 23.8159 52.1803 23.6802 53.4018C23.461 55.401 23.1034 57.408 23.1191 59.4098C23.2235 72.3942 33.1908 83.8675 46.0551 85.59C56.4922 86.989 64.8101 82.954 71.0243 74.6832C75.7666 68.3723 77.1316 61.1585 75.6309 53.407C75.409 52.2612 75.8397 51.4835 76.7662 51.2851C77.6588 51.0972 78.4078 51.6688 78.5827 52.8511C78.8411 54.5841 79.0003 56.3327 79.1908 58.0736C79.2352 58.4859 79.243 58.9035 79.2769 59.4907C79.6293 59.2767 79.8877 59.1697 80.0782 58.9923C82.3514 56.8443 83.291 54.1848 82.7742 51.1285C82.3384 48.5447 80.394 47.352 77.5361 47.6991C76.8915 47.7774 76.2181 47.8296 75.6256 48.0645C74.4929 48.5134 73.4672 48.2524 72.4206 47.8348C68.002 46.0679 65.4025 42.7559 64.1237 38.0737H65.3269C71.4785 38.0737 77.6327 38.058 83.7843 38.0815C86.0131 38.0893 88.1298 37.7605 90.0638 36.3694C92.1047 38.781 93.18 41.4875 92.8903 44.6298C92.812 45.4859 92.9477 45.9296 93.7411 46.3889C97.8074 48.7404 99.9032 53.0077 99.2142 57.2958C98.4573 61.9937 95.3176 65.4231 90.7945 66.4906C90.5727 66.5428 90.3482 66.6054 90.1238 66.6054C89.346 66.6106 88.9832 66.9656 88.6805 67.7277C87.5165 70.656 85.131 72.1202 82.1348 72.3969C80.4592 72.5508 78.7262 72.2063 77.0324 71.9819C76.5365 71.9166 76.2651 71.8749 76.0302 72.3655C75.6804 73.0963 75.2707 73.801 74.9418 74.4117C79.1386 81.315 78.4339 88.0695 74.5764 94.683C72.9505 97.4704 70.518 99.4174 67.1721 99.9107C65.3764 100.177 63.6356 99.8298 62.0305 99.1095C59.9034 98.1542 57.852 97.0215 55.8006 95.9045C55.3099 95.6383 55.0229 95.5861 54.5322 95.9332C51.6613 97.982 47.7124 97.9898 44.8311 95.9488C44.3065 95.5756 43.9881 95.6096 43.4844 95.9488C41.0415 97.5879 38.442 98.9085 35.5789 99.6602C32.5775 100.448 29.9049 99.7724 27.5403 97.8358C24.304 95.1841 22.7459 91.585 21.9681 87.5971C21.3496 84.4182 21.407 81.2471 22.5214 78.17C22.8503 77.2591 23.2209 76.3091 23.8081 75.5627C24.4658 74.7275 24.4084 74.0907 23.8081 73.3521C23.7872 73.326 23.7716 73.2973 23.7559 73.2686C22.9912 71.8853 22.9964 71.9114 21.4957 72.2403C18.9119 72.804 16.3829 72.6944 13.9948 71.439C12.4132 70.6064 11.1995 69.3928 10.6254 67.6807C10.3774 66.9421 9.97288 66.7046 9.25254 66.6054C1.58718 65.5406 -2.51564 56.5624 1.6733 50.0611C2.66246 48.5264 3.95699 47.2711 5.57253 46.4515C6.45991 46 6.54082 45.4806 6.4573 44.6089C6.1676 41.4953 7.23506 38.8201 9.27602 36.3929H9.27864ZM46.8407 89.1317C46.7781 89.0117 46.7181 88.889 46.6554 88.7689C38.3402 87.6702 31.5987 83.7788 26.2536 77.1678C25.9195 77.8829 25.6194 78.4206 25.408 78.9895C24.4971 81.4298 24.4319 83.951 24.8416 86.4879C25.3245 89.4919 26.358 92.2688 28.4407 94.563C30.4869 96.818 32.9846 97.6244 35.8347 96.4056C38.0035 95.4791 40.1593 94.4351 42.1272 93.1458C43.8393 92.0235 45.28 90.4889 46.8407 89.1343V89.1317ZM52.4677 88.8159C54.8924 91.7704 57.7085 93.8165 60.9135 95.3512C61.6756 95.7166 62.4533 96.0532 63.2467 96.3377C66.637 97.5487 69.2183 96.8963 71.3532 93.9992C74.5477 89.6615 75.4534 84.8045 74.0936 79.5742C73.89 78.7912 73.4672 78.063 73.0783 77.1574C67.681 83.8101 60.9552 87.6936 52.4677 88.8185V88.8159Z" fill="url(#paint1_linear_299_634)"/>
<path d="M49.2079 58.1701C53.7126 58.144 57.3378 61.7561 57.3326 66.2661C57.33 70.7212 53.7413 74.3568 49.3097 74.3986C44.8571 74.4404 41.1406 70.7786 41.1067 66.3209C41.0728 61.8553 44.7084 58.1962 49.2105 58.1701H49.2079Z" fill="url(#paint2_linear_299_634)"/>
<path d="M49.4272 80.8062C42.9676 80.5322 37.445 77.8387 33.1386 72.6763C32.4287 71.8254 32.4339 70.9276 33.1099 70.3378C33.8224 69.714 34.7254 69.8497 35.4692 70.7554C38.0922 73.9447 41.3625 76.1762 45.3739 77.1575C52.5721 78.9166 58.4653 76.5155 63.4007 71.2669C63.6226 71.0294 63.8131 70.7632 64.0375 70.5283C64.7083 69.8341 65.5539 69.7584 66.2064 70.3247C66.8458 70.8806 66.9789 71.8281 66.3134 72.4962C64.7788 74.0334 63.2807 75.6464 61.5424 76.9278C58.0478 79.5065 54.0102 80.6731 49.4272 80.8062Z" fill="url(#paint3_linear_299_634)"/>
<path d="M41.6 57.4601C38.7996 57.4549 36.5863 55.2286 36.6046 52.436C36.6203 49.6617 38.87 47.4667 41.6757 47.485C44.4135 47.5032 46.6215 49.7217 46.6293 52.4621C46.6372 55.2391 44.3979 57.4653 41.5974 57.4575L41.6 57.4601ZM41.5739 50.5308C40.4569 50.5516 39.6321 51.4234 39.666 52.5456C39.6974 53.6027 40.5586 54.4431 41.6104 54.4457C42.6779 54.4457 43.6123 53.5165 43.5992 52.4569C43.5888 51.379 42.6727 50.5073 41.5739 50.5282V50.5308Z" fill="url(#paint4_linear_299_634)"/>
<path d="M57.7163 57.4601C54.9236 57.4601 52.6713 55.2129 52.7 52.4516C52.7261 49.659 54.955 47.4719 57.7632 47.4849C60.5037 47.498 62.7169 49.7112 62.7273 52.449C62.7378 55.2416 60.5193 57.4601 57.7163 57.4601ZM59.6659 52.5038C59.6789 51.3789 58.8411 50.5333 57.7137 50.5333C56.6149 50.5333 55.7144 51.4259 55.7301 52.5012C55.7458 53.5269 56.6279 54.4143 57.6615 54.4456C58.7472 54.4769 59.6502 53.6 59.6633 52.5038H59.6659Z" fill="url(#paint5_linear_299_634)"/>
<path d="M67.467 66.4514C68.2787 66.4671 68.9521 67.1404 68.9599 67.9443C68.9703 68.8473 68.1665 69.6903 67.3235 69.6642C66.4909 69.6381 65.8541 68.983 65.8567 68.1609C65.8567 67.19 66.5692 66.4358 67.467 66.454V66.4514Z" fill="url(#paint6_linear_299_634)"/>
<path d="M33.47 68.2131C33.4596 69.0274 32.7862 69.7034 31.9849 69.7034C31.1472 69.7034 30.3459 68.8369 30.3694 67.9547C30.3903 67.1613 31.0897 66.4723 31.8805 66.4645C32.7523 66.454 33.483 67.2579 33.47 68.2105V68.2131Z" fill="url(#paint7_linear_299_634)"/>
</g>
<defs>
<linearGradient id="paint0_linear_299_634" x1="49.659" y1="0" x2="49.659" y2="34.8086" gradientUnits="userSpaceOnUse">
<stop stop-color="#FFE958"/>
<stop offset="1" stop-color="#FF9E58"/>
</linearGradient>
<linearGradient id="paint1_linear_299_634" x1="49.6719" y1="36.3694" x2="49.6719" y2="100" gradientUnits="userSpaceOnUse">
<stop stop-color="#FFE958"/>
<stop offset="1" stop-color="#FF9E58"/>
</linearGradient>
<linearGradient id="paint2_linear_299_634" x1="49.2195" y1="58.1699" x2="49.2195" y2="74.399" gradientUnits="userSpaceOnUse">
<stop stop-color="#FFE958"/>
<stop offset="1" stop-color="#FF9E58"/>
</linearGradient>
<linearGradient id="paint3_linear_299_634" x1="49.6789" y1="69.948" x2="49.6789" y2="80.8062" gradientUnits="userSpaceOnUse">
<stop stop-color="#FFE958"/>
<stop offset="1" stop-color="#FF9E58"/>
</linearGradient>
<linearGradient id="paint4_linear_299_634" x1="41.6169" y1="47.4849" x2="41.6169" y2="57.4601" gradientUnits="userSpaceOnUse">
<stop stop-color="#FFE958"/>
<stop offset="1" stop-color="#FF9E58"/>
</linearGradient>
<linearGradient id="paint5_linear_299_634" x1="57.7135" y1="47.4849" x2="57.7135" y2="57.4601" gradientUnits="userSpaceOnUse">
<stop stop-color="#FFE958"/>
<stop offset="1" stop-color="#FF9E58"/>
</linearGradient>
<linearGradient id="paint6_linear_299_634" x1="67.4083" y1="66.4514" x2="67.4083" y2="69.6648" gradientUnits="userSpaceOnUse">
<stop stop-color="#FFE958"/>
<stop offset="1" stop-color="#FF9E58"/>
</linearGradient>
<linearGradient id="paint7_linear_299_634" x1="31.9195" y1="66.4644" x2="31.9195" y2="69.7034" gradientUnits="userSpaceOnUse">
<stop stop-color="#FFE958"/>
<stop offset="1" stop-color="#FF9E58"/>
</linearGradient>
<clipPath id="clip0_299_634">
<rect width="100" height="100" fill="white"/>
</clipPath>
</defs>
</svg>
