<svg width="94" height="94" viewBox="0 0 94 94" fill="none" xmlns="http://www.w3.org/2000/svg">
<g clip-path="url(#clip0_299_656)">
<path d="M71.6649 49.1796C77.4439 49.1796 83.2259 49.1765 89.0049 49.1796C92.3943 49.1826 94.0139 50.7961 94.017 54.1672C94.017 65.7649 94.017 77.3596 94.017 88.9574C94.017 92.3684 92.3698 93.9941 88.9251 93.9971C77.3641 93.9971 65.8032 93.9971 54.2422 93.9971C50.8006 93.9971 49.181 92.3806 49.181 88.936C49.1779 77.378 49.1779 65.8201 49.181 54.2592C49.181 50.7347 50.7577 49.1796 54.322 49.1765C60.1009 49.1765 65.8829 49.1765 71.6619 49.1765L71.6649 49.1796ZM71.5269 83.3748C74.2047 83.3748 76.8856 83.3809 79.5634 83.3748C81.9591 83.3687 82.8731 81.9638 81.8977 79.7583C79.2076 73.6788 76.493 67.6084 73.8029 61.5289C73.3704 60.5534 72.7907 59.8173 71.6159 59.8111C70.4472 59.8081 69.849 60.5105 69.4104 61.4982C66.6927 67.6483 63.9443 73.7861 61.2297 79.9362C60.3524 81.9239 61.3095 83.3595 63.4873 83.3717C66.1651 83.3871 68.846 83.3748 71.5238 83.3748H71.5269Z" fill="url(#paint0_linear_299_656)"/>
<path d="M46.9447 44.8176C41.1657 44.8176 35.3837 44.8206 29.6048 44.8176C26.2214 44.8145 24.608 43.2041 24.608 39.8177C24.6049 28.2199 24.6049 16.6252 24.608 5.02744C24.608 1.60731 26.2429 0 29.6999 0C41.2608 0 52.8218 0 64.3828 0C67.8152 0 69.4409 1.63185 69.444 5.06425C69.444 16.6222 69.444 28.1831 69.444 39.741C69.444 43.2011 67.8428 44.8145 64.4012 44.8176C58.5824 44.8237 52.7635 44.8176 46.9447 44.8176ZM39.0063 28.0482C39.0063 28.8334 38.9818 29.6371 39.0124 30.4377C39.083 32.2689 40.5001 33.3916 42.1258 32.5879C45.4417 30.9469 48.5858 30.9499 51.8985 32.5879C53.5242 33.3916 54.9537 32.2812 55.0089 30.4469C55.0334 29.6095 55.0242 28.7567 54.9015 27.9285C54.6224 26.0697 55.0549 24.4931 56.4229 23.1557C56.9904 22.6005 57.4259 21.9042 57.9014 21.257C59.1099 19.6159 58.656 17.8092 56.6898 17.4596C53.1286 16.8277 50.6317 15.0639 48.96 11.8432C48.0888 10.1653 46.1196 10.2635 45.0214 11.8186C44.227 12.9413 43.5092 14.1222 42.6718 15.2081C42.3283 15.6529 41.7976 16.0455 41.27 16.2357C40.0155 16.6866 38.7118 16.9964 37.4327 17.3798C35.4144 17.981 34.8807 19.5699 36.1291 21.2508C36.5861 21.8643 37.0094 22.5146 37.5401 23.0575C38.9112 24.4624 39.5891 26.0574 39.0155 28.0451L39.0063 28.0482Z" fill="url(#paint1_linear_299_656)"/>
<path d="M0.00160742 71.5376C0.00160742 65.7586 0.00160742 59.9797 0.00160742 54.2007C0.00160742 50.8113 1.61198 49.1856 4.98304 49.1825C16.6207 49.1794 28.2584 49.1764 39.896 49.1825C43.2027 49.1825 44.8376 50.8143 44.8376 54.1179C44.8437 65.7525 44.8437 77.3871 44.8376 89.0248C44.8376 92.3713 43.1812 94.0001 39.8009 94.0001C28.2031 94.0001 16.6023 94.0001 5.00453 94.0001C1.66108 94.0001 0.00467481 92.3406 0.00160742 88.991C-0.00145996 83.1722 0.00160742 77.3564 0.00160742 71.5376ZM22.3567 84.4574C29.4332 84.4789 35.249 78.7367 35.3042 71.6695C35.3594 64.5808 29.5129 58.6945 22.4181 58.6975C15.3539 58.6975 9.55958 64.4857 9.54731 71.5529C9.53504 78.6325 15.2956 84.436 22.3567 84.4574Z" fill="url(#paint2_linear_299_656)"/>
</g>
<defs>
<linearGradient id="paint0_linear_299_656" x1="71.5978" y1="49.1765" x2="71.5978" y2="93.9971" gradientUnits="userSpaceOnUse">
<stop stop-color="#FFE958"/>
<stop offset="1" stop-color="#FF9E58"/>
</linearGradient>
<linearGradient id="paint1_linear_299_656" x1="47.0248" y1="0" x2="47.0248" y2="44.8203" gradientUnits="userSpaceOnUse">
<stop stop-color="#FFE958"/>
<stop offset="1" stop-color="#FF9E58"/>
</linearGradient>
<linearGradient id="paint2_linear_299_656" x1="22.4212" y1="49.179" x2="22.4212" y2="94.0001" gradientUnits="userSpaceOnUse">
<stop stop-color="#FFE958"/>
<stop offset="1" stop-color="#FF9E58"/>
</linearGradient>
<clipPath id="clip0_299_656">
<rect width="94" height="94" fill="white"/>
</clipPath>
</defs>
</svg>
