<svg width="100" height="100" viewBox="0 0 100 100" fill="none" xmlns="http://www.w3.org/2000/svg">
<path d="M100 28.6082V80.5598C99.9478 80.6772 99.8748 80.7894 99.8434 80.9146C98.6876 85.6398 95.7627 87.949 90.9174 87.949C63.6096 87.949 36.3018 87.949 8.99406 87.949C3.51997 87.949 0.0367062 84.4579 0.034097 78.976C0.034097 62.7677 0.0941084 46.5568 0.000177522 30.3485C-0.0311328 24.9005 4.08356 21.0598 8.96796 21.3703C10.1238 21.4433 11.2875 21.3807 12.5347 21.3807C12.5347 20.6267 12.5191 20.0135 12.5373 19.4029C12.5791 18.0618 13.2992 17.2399 14.6456 17.2112C17.3774 17.1564 20.1144 17.1564 22.8462 17.2112C24.2317 17.2399 24.9336 18.0723 24.9649 19.4917C24.978 20.0944 24.9649 20.6997 24.9649 21.3807C27.3288 21.3807 29.5362 21.3885 31.7436 21.3807C33.6222 21.3729 35.2347 20.7232 36.5575 19.3716C37.6064 18.3045 38.6736 17.253 39.7329 16.1936C41.7316 14.1976 44.1451 13.0757 46.9682 13.0417C51.7509 12.9843 56.5387 12.9896 61.3214 13.0365C63.9566 13.0626 66.2814 14.0071 68.2044 15.8388C69.3133 16.8929 70.4144 17.9575 71.4581 19.0742C72.9766 20.7023 74.8187 21.412 77.0339 21.3964C81.9809 21.3598 86.9279 21.3572 91.875 21.4016C95.4991 21.4355 98.5832 23.849 99.6008 27.3271C99.726 27.755 99.8643 28.1829 99.9948 28.6108L100 28.6082ZM54.1748 33.7874C42.637 33.7978 33.3326 43.0866 33.3091 54.6192C33.2856 66.1649 42.6448 75.5214 54.2113 75.5136C65.7022 75.5058 75.0353 66.1466 75.0327 54.6296C75.0327 43.1257 65.6761 33.777 54.1748 33.7874ZM18.6689 42.176C20.0361 42.176 21.4034 42.1994 22.7706 42.1681C24.2135 42.1342 25.0093 41.3332 25.0301 39.919C25.0484 38.617 25.051 37.315 25.0301 36.0131C25.0067 34.6484 24.2187 33.8161 22.841 33.7979C20.1066 33.7639 17.3722 33.7613 14.6377 33.7979C13.2705 33.8161 12.4956 34.6615 12.4747 36.0391C12.4565 37.3072 12.4591 38.5779 12.4747 39.8486C12.4904 41.3384 13.2653 42.1342 14.763 42.1681C16.065 42.1968 17.3669 42.1734 18.6689 42.1734V42.176Z" fill="url(#paint0_linear_344_721)"/>
<path d="M70.7799 54.6712C70.759 63.8738 63.2915 71.3126 54.1202 71.2657C44.9202 71.2187 37.5049 63.7564 37.5362 54.5747C37.5675 45.4216 45.0872 37.9776 54.2637 38.0168C63.3881 38.0533 70.8008 45.5286 70.7799 54.6712Z" fill="url(#paint1_linear_344_721)"/>
<defs>
<linearGradient id="paint0_linear_344_721" x1="50" y1="13" x2="50" y2="87.949" gradientUnits="userSpaceOnUse">
<stop stop-color="#FFE958"/>
<stop offset="1" stop-color="#FF9E58"/>
</linearGradient>
<linearGradient id="paint1_linear_344_721" x1="54.158" y1="38.0166" x2="54.158" y2="71.2659" gradientUnits="userSpaceOnUse">
<stop stop-color="#FFE958"/>
<stop offset="1" stop-color="#FF9E58"/>
</linearGradient>
</defs>
</svg>
