<svg width="1970" height="544" viewBox="0 0 1970 544" fill="none" xmlns="http://www.w3.org/2000/svg">
<path d="M1970 174.927V538.116C1809.1 518.091 1705 453.598 1705 453.598C1705 453.598 1518.38 337.991 1258.7 368.247C1173.94 378.12 1081.38 403.538 985.01 453.598C932.23 481.006 880.61 501.031 830.79 515.152C510.82 605.885 265 453.598 265.01 453.598C265.01 453.598 160.9 389.104 0 369.08V5.86871C160.9 25.9044 265.01 90.3981 265.01 90.3981C265.01 90.3981 474.82 220.381 759.07 168.631C830.41 155.644 906.43 131.21 985.01 90.3981C1076.1 43.0811 1163.77 17.7906 1244.68 6.81783C1511.63 -29.3875 1705 90.3981 1705 90.3981C1705.01 90.3981 1809.11 154.892 1970 174.927Z" fill="url(#paint0_linear_461_980)"/>
<defs>
<linearGradient id="paint0_linear_461_980" x1="985" y1="544" x2="985" y2="-9.60748e-06" gradientUnits="userSpaceOnUse">
<stop stop-color="#7C72FF"/>
<stop offset="1" stop-color="#A8A1FF"/>
</linearGradient>
</defs>
</svg>
