<svg width="238" height="200" viewBox="0 0 238 200" fill="none" xmlns="http://www.w3.org/2000/svg">
<g opacity="0.73" clip-path="url(#clip0_299_901)">
<path d="M80.222 136.894C80.222 136.894 36.2063 144.821 48.5212 185.523C60.8235 226.224 137.379 168.403 140.094 166.111C142.81 163.819 221.655 113.512 221.856 66.7623C222.068 20.0122 195.574 8.52814 166.376 46.0986C137.178 83.669 145.726 109.555 145.726 109.555C145.726 109.555 83.7762 17.7204 45.1921 44.2201C6.60803 70.7323 80.2345 136.894 80.2345 136.894H80.222Z" fill="#4BC9FF"/>
<path d="M180.03 138.673C180.03 145.248 174.711 150.57 168.141 150.57C161.57 150.57 156.251 145.248 156.251 138.673C156.251 132.098 161.57 126.775 168.141 126.775C174.711 126.775 180.03 132.098 180.03 138.673Z" fill="#009DE0"/>
<path d="M169.167 127.502C169.117 127.176 169.067 126.838 169.017 126.5C168.954 126.099 168.904 125.711 168.841 125.31C168.829 125.21 168.816 125.11 168.804 125.01C168.716 124.409 168.929 125.974 168.854 125.348C168.816 125.06 168.779 124.784 168.741 124.496C168.341 121.29 168.028 118.059 167.815 114.828C167.527 110.508 167.402 106.174 167.49 101.841C167.54 99.4618 167.665 97.0949 167.865 94.728C167.965 93.5382 168.103 92.361 168.253 91.1713C168.278 90.9709 168.353 90.5702 168.216 91.4468C168.241 91.3216 168.253 91.1963 168.266 91.0711C168.303 90.758 168.353 90.4575 168.403 90.1444C168.491 89.5683 168.591 88.9797 168.691 88.4036C169.092 86.1744 169.592 83.9578 170.256 81.7912C170.581 80.7392 170.932 79.6998 171.332 78.6729C171.42 78.4349 171.52 78.197 171.62 77.959C171.77 77.5708 171.282 78.723 171.532 78.1594C171.582 78.0592 171.62 77.959 171.67 77.8463C171.895 77.3454 172.133 76.8444 172.383 76.3435C172.846 75.4293 173.359 74.5401 173.91 73.6885C174.173 73.2878 174.436 72.9121 174.724 72.5238C174.786 72.4362 174.849 72.361 174.911 72.2734C174.623 72.6491 174.936 72.2358 174.986 72.1857C175.312 71.7724 175.65 71.3591 175.988 70.9584C176.939 69.8313 177.953 68.7417 179.054 67.7524C179.304 67.527 179.554 67.3266 179.805 67.1137C180.017 66.9384 180.155 67.001 179.604 67.264C179.692 67.2139 179.805 67.1137 179.892 67.0511C180.33 66.738 180.781 66.4499 181.256 66.212C181.357 66.1619 181.469 66.1118 181.582 66.0492C181.87 65.8989 182.007 66.0241 181.269 66.1744C181.432 66.1369 181.594 66.0492 181.757 65.9991C181.945 65.9365 182.145 65.8989 182.333 65.8488C182.996 65.6735 181.482 65.8864 182.158 65.8739C182.308 65.8739 182.47 65.8739 182.621 65.8739C182.671 65.8739 182.833 65.8739 182.871 65.8989C182.959 65.9615 181.92 65.6735 182.333 65.8363C182.458 65.8864 182.621 65.9114 182.746 65.9365C183.422 66.0993 182.07 65.5483 182.571 65.8488C182.683 65.9114 182.783 65.974 182.896 66.0367C183.534 66.3998 182.495 65.661 182.721 65.8864C182.946 66.1118 183.184 66.3498 183.409 66.5877C183.709 66.9008 182.896 65.8363 183.221 66.3623C183.321 66.5126 183.422 66.6503 183.509 66.8131C183.684 67.1137 183.835 67.4393 183.985 67.7524C184.135 68.0655 183.659 66.9133 183.822 67.3767C183.847 67.4518 183.885 67.5144 183.91 67.5896C183.972 67.7524 184.035 67.9152 184.085 68.0905C184.21 68.4537 184.31 68.8169 184.398 69.1926C184.485 69.5683 184.56 69.9064 184.623 70.2696C184.661 70.47 184.686 70.6829 184.723 70.8833C184.761 71.1212 184.736 71.4468 184.661 70.4199C184.661 70.5451 184.686 70.6704 184.698 70.7831C184.861 72.2984 184.848 73.8263 184.673 75.3416C184.636 75.6672 184.598 76.0054 184.548 76.331C184.523 76.5439 184.498 76.7442 184.473 76.9571C184.41 77.4706 184.585 76.1807 184.473 76.9947C184.36 77.8087 184.248 78.5727 184.11 79.3617C183.86 80.8394 183.559 82.3172 183.159 83.7699C182.996 84.371 182.808 84.9722 182.583 85.5733C182.533 85.6985 182.408 85.8989 182.408 86.0241C182.408 85.9741 182.733 85.3228 182.508 85.7862C182.383 86.0492 182.258 86.3122 182.12 86.5627C182.02 86.738 181.745 87.0385 181.695 87.2264C181.695 87.1763 182.233 86.6378 181.92 86.9384C181.857 86.9885 181.782 87.0761 181.732 87.1387C181.644 87.2389 181.282 87.5019 181.757 87.1513C182.233 86.8006 181.87 87.0636 181.77 87.1262C181.169 87.4518 182.533 86.9384 181.87 87.0761C181.432 87.1638 182.408 87.0135 182.358 87.0135C181.932 87.0386 182.12 86.8131 182.721 87.1012C182.608 87.0511 182.42 87.001 182.295 86.9759C182.721 87.026 183.059 87.289 182.683 87.1137C182.596 87.0761 182.533 86.9885 182.445 86.9509C182.483 86.9634 183.046 87.5144 182.808 87.2139C182.733 87.1262 182.621 87.026 182.546 86.9509C182.032 86.4499 182.921 87.552 182.583 87.0135C182.47 86.8382 182.358 86.6628 182.245 86.475C182.133 86.2871 182.032 86.0868 181.945 85.8864C181.895 85.7737 181.857 85.6359 181.782 85.5483C181.932 85.7611 182.057 86.2621 181.857 85.7361C181.256 84.1081 180.843 82.4174 180.556 80.7017C180.518 80.4762 180.493 80.2383 180.456 80.0129C180.456 79.9878 180.593 81.0648 180.531 80.5263C180.343 78.9108 179.229 77.3078 177.402 77.3955C175.862 77.4581 174.073 78.7856 174.273 80.5263C174.699 84.2458 175.525 88.4537 178.065 91.3341C180.168 93.7136 183.697 93.8638 186 91.7098C188.127 89.7311 188.978 86.5126 189.592 83.7824C190.28 80.7017 190.806 77.5082 191.018 74.3648C191.143 72.5238 190.981 70.6829 190.68 68.867C190.08 65.2101 188.24 61.1275 184.435 59.9377C179.166 58.2972 174.261 63.269 171.257 66.8883C169.542 68.9546 167.99 71.0962 166.802 73.5132C165.688 75.7799 164.774 78.1469 164.061 80.5764C161.245 90.1694 160.894 100.514 161.282 110.432C161.433 114.34 161.733 118.247 162.171 122.129C162.421 124.384 162.659 126.663 163.059 128.892C163.072 128.992 163.085 129.08 163.11 129.18C163.385 130.796 165.462 131.848 166.964 131.372C168.716 130.808 169.442 129.255 169.154 127.514L169.167 127.502Z" fill="#009DE0"/>
<path d="M179.292 134.302C180.118 133.113 180.969 131.935 181.82 130.771C183.997 127.765 186.212 124.797 188.478 121.854C188.653 121.629 188.828 121.403 189.003 121.165C189.091 121.053 189.166 120.952 189.254 120.84C189.629 120.351 188.853 121.353 189.141 120.99C189.504 120.514 189.879 120.038 190.242 119.562C190.993 118.598 191.757 117.634 192.52 116.669C194.147 114.628 195.799 112.599 197.464 110.583C200.918 106.438 204.472 102.355 208.214 98.4602C211.556 94.9787 215.047 91.685 218.814 88.6543C218.977 88.5291 218.138 89.1678 218.577 88.8422C218.677 88.767 218.764 88.6919 218.864 88.6167C219.09 88.4539 219.315 88.2786 219.54 88.1158C219.928 87.8277 220.329 87.5522 220.729 87.2892C221.493 86.7632 222.281 86.2748 223.094 85.824C223.47 85.6236 223.845 85.4232 224.233 85.2354C224.409 85.1477 224.571 85.0726 224.746 84.9974C225.435 84.6844 224.008 85.2855 224.621 85.0475C225.297 84.7845 225.973 84.5591 226.686 84.4088C226.836 84.3838 226.987 84.3587 227.137 84.3212C227.575 84.2335 226.398 84.3963 226.599 84.3963C226.699 84.3963 226.799 84.3713 226.887 84.3713C227.174 84.3462 227.475 84.3462 227.763 84.3587C227.95 84.3587 228.551 84.4464 227.813 84.3462C227.074 84.246 227.662 84.3337 227.85 84.3713C227.988 84.3963 228.126 84.4339 228.251 84.484C228.313 84.509 228.376 84.5341 228.438 84.5466C228.901 84.6718 227.975 84.3963 227.963 84.3337C227.988 84.4339 228.676 84.7219 228.776 84.7845C228.914 84.8722 229.039 84.9724 229.177 85.0601C229.615 85.3606 228.664 84.6092 229.039 84.9599C229.302 85.1978 229.577 85.4232 229.828 85.6862C230.04 85.8991 230.228 86.1245 230.416 86.35C230.754 86.7257 230.003 85.7614 230.278 86.1746C230.366 86.3124 230.466 86.4502 230.566 86.5879C230.729 86.8509 230.891 87.1139 231.029 87.3894C231.092 87.5147 231.154 87.6399 231.217 87.7651C231.43 88.1784 230.941 87.0137 231.142 87.6023C231.342 88.1909 231.53 88.767 231.642 89.3681C231.667 89.5059 231.692 89.6436 231.717 89.7939C231.818 90.37 231.68 89.3306 231.68 89.5309C231.68 89.8691 231.742 90.2072 231.755 90.5453C231.78 91.159 231.755 91.7852 231.705 92.3988C231.692 92.5741 231.655 92.7495 231.655 92.9248C231.642 93.1252 231.78 92.0982 231.68 92.6994C231.617 93.025 231.567 93.3631 231.492 93.6887C231.204 95.0538 230.704 96.3061 230.266 97.6211C230.378 97.2955 230.528 97.02 230.328 97.4708C230.266 97.6211 230.191 97.7714 230.128 97.9091C229.978 98.2222 229.828 98.5478 229.665 98.8609C229.352 99.4871 229.002 100.101 228.639 100.689C228.276 101.278 227.9 101.854 227.487 102.418C227.4 102.543 227.3 102.668 227.212 102.793C226.862 103.269 227.45 102.505 227.325 102.656C227.099 102.931 226.874 103.219 226.649 103.495C225.848 104.434 224.972 105.323 224.021 106.112C223.92 106.2 223.808 106.275 223.708 106.375C224.459 105.699 224.071 106.1 223.858 106.25C223.633 106.413 223.395 106.575 223.157 106.726C222.707 107.014 222.243 107.239 221.768 107.49C221.355 107.703 222.519 107.202 222.093 107.352C221.993 107.389 221.881 107.427 221.78 107.465C221.543 107.552 221.292 107.627 221.055 107.677C220.954 107.703 220.854 107.715 220.742 107.74C220.216 107.865 221.13 107.728 221.167 107.69C221.08 107.778 220.642 107.728 220.516 107.728C220.404 107.728 220.291 107.728 220.178 107.715C219.628 107.715 220.641 107.753 220.629 107.778C220.604 107.815 220.078 107.652 220.028 107.627C219.916 107.59 219.816 107.54 219.703 107.515C219.377 107.402 219.978 107.615 219.978 107.627C219.978 107.627 219.603 107.44 219.628 107.452C219.265 107.264 218.952 107.039 218.602 106.826C218.326 106.663 218.889 107.051 218.889 107.051C218.852 106.989 218.752 106.939 218.702 106.888C218.577 106.776 218.464 106.663 218.351 106.55C218.239 106.438 218.138 106.312 218.038 106.2C217.788 105.924 218.414 106.788 218.251 106.463C218.201 106.375 218.138 106.287 218.088 106.212C218.013 106.087 217.938 105.949 217.863 105.824C217.801 105.699 217.575 105.198 217.801 105.724C218.026 106.25 217.826 105.749 217.788 105.611C217.738 105.448 217.688 105.285 217.65 105.123C217.613 104.972 217.525 104.359 217.6 104.972C217.675 105.586 217.613 105.022 217.6 104.885C217.588 104.572 217.588 104.259 217.6 103.945C217.6 103.808 217.638 103.657 217.638 103.52C217.638 103.52 217.475 104.384 217.588 103.92C217.6 103.845 217.613 103.783 217.625 103.708C217.688 103.407 217.763 103.094 217.863 102.806C217.901 102.668 217.951 102.53 218.001 102.405C218.176 101.904 218.063 102.443 217.901 102.63C218.088 102.418 218.201 102.017 218.339 101.754C218.476 101.516 218.639 101.303 218.777 101.065C219.04 100.652 218.289 101.641 218.602 101.278C218.714 101.153 218.827 101.015 218.939 100.89C219.102 100.714 219.302 100.552 219.478 100.389C219.79 100.076 218.839 100.802 219.215 100.589C219.315 100.539 219.403 100.464 219.503 100.401C219.603 100.339 219.69 100.301 219.79 100.251C220.166 100.026 218.964 100.502 219.478 100.389C219.565 100.364 219.678 100.339 219.765 100.314C220.254 100.138 218.99 100.389 219.365 100.364C220.992 100.251 222.569 99.0112 222.494 97.2329C222.419 95.6424 221.117 93.9768 219.365 94.102C215.973 94.3525 213.545 96.9824 212.281 99.9755C211.017 102.969 210.855 106.926 212.907 109.769C215.085 112.775 218.614 114.478 222.293 113.814C224.897 113.351 227.275 111.647 229.177 109.907C233.545 105.899 236.899 99.9755 237.762 94.077C238.25 90.7332 238.012 87.427 236.498 84.3587C235.234 81.7914 232.894 79.5372 230.203 78.5353C226.736 77.2454 222.782 78.8234 219.778 80.5266C215.686 82.8309 212.044 86.0118 208.652 89.2304C204.635 93.025 200.88 97.0951 197.251 101.253C193.621 105.411 190.105 109.719 186.675 114.077C183.772 117.771 180.931 121.503 178.14 125.285C176.776 127.139 175.399 128.98 174.098 130.883C174.035 130.971 173.973 131.059 173.923 131.134C172.984 132.486 173.635 134.666 175.049 135.417C176.651 136.269 178.328 135.73 179.329 134.29L179.292 134.302Z" fill="#009DE0"/>
<path d="M160.193 137.32C157.54 138.559 154.912 139.874 152.309 141.214C146.214 144.333 140.207 147.614 134.325 151.095C127.241 155.291 120.333 159.787 113.837 164.859C108.519 169.004 103.049 173.738 99.6453 179.662C98.2311 182.116 97.1924 184.909 97.1924 187.777C97.1924 190.094 97.8807 192.623 99.6453 194.239C103.187 197.482 108.519 196.042 112.448 194.414C118.28 191.985 123.649 188.541 128.818 184.946C135.001 180.651 140.945 176.005 146.79 171.246C151.771 167.188 156.664 163.018 161.483 158.772C164.111 156.456 166.714 154.126 169.279 151.759C169.392 151.646 169.517 151.546 169.63 151.434C170.831 150.319 170.844 148.127 169.63 147C168.341 145.823 166.489 145.811 165.2 147C163.46 148.616 161.695 150.206 159.931 151.784C155.625 155.629 151.27 159.411 146.852 163.105C144.149 165.372 141.421 167.601 138.667 169.793C137.954 170.357 137.241 170.92 136.515 171.484C136.164 171.759 135.814 172.035 135.464 172.298C135.263 172.448 134.688 172.886 135.514 172.26C135.313 172.41 135.126 172.561 134.925 172.711C133.486 173.813 132.034 174.915 130.57 175.992C125.326 179.862 119.932 183.631 114.163 186.687C112.999 187.301 111.835 187.889 110.634 188.415C110.496 188.478 110.358 188.528 110.221 188.591C111.297 188.102 110.734 188.378 110.471 188.478C110.196 188.591 109.908 188.703 109.632 188.804C109.132 188.992 108.619 189.167 108.106 189.33C107.592 189.492 107.104 189.618 106.604 189.73C106.391 189.78 106.178 189.818 105.965 189.856C105.853 189.868 105.753 189.893 105.64 189.906C105.265 189.968 106.679 189.793 106.053 189.843C105.64 189.881 105.24 189.906 104.827 189.893C104.651 189.893 104.476 189.868 104.301 189.856C103.788 189.843 105.215 190.018 104.814 189.931C104.714 189.906 104.601 189.893 104.501 189.868C104.351 189.831 104.201 189.78 104.051 189.743C103.976 189.718 103.9 189.68 103.825 189.655C103.638 189.618 104.739 190.106 104.276 189.843C104.138 189.768 104.001 189.693 103.863 189.618C103.8 189.58 103.75 189.53 103.688 189.505C103.462 189.38 104.464 190.194 104.063 189.78C103.963 189.68 103.85 189.568 103.75 189.467C103.287 189.004 104.276 190.294 103.888 189.63C103.8 189.48 103.725 189.342 103.638 189.192C103.3 188.578 103.951 190.094 103.725 189.392C103.6 188.979 103.513 188.566 103.425 188.152C103.65 189.192 103.487 188.666 103.462 188.19C103.45 187.902 103.45 187.626 103.462 187.338C103.462 187.188 103.425 186.662 103.525 186.562C103.45 186.637 103.362 187.576 103.475 186.963C103.5 186.812 103.525 186.675 103.563 186.524C103.688 185.948 103.85 185.385 104.051 184.834C104.201 184.408 104.526 183.769 104.076 184.721C104.213 184.433 104.339 184.132 104.489 183.857C104.777 183.281 105.089 182.73 105.427 182.191C105.803 181.578 106.216 180.989 106.641 180.413C106.729 180.288 106.829 180.162 106.929 180.037C107.355 179.474 106.454 180.638 106.842 180.15C107.079 179.849 107.33 179.549 107.58 179.248C109.733 176.681 112.185 174.364 114.739 172.185C115.439 171.584 116.153 170.995 116.879 170.407C117.242 170.119 117.592 169.831 117.955 169.543C118.118 169.417 118.28 169.292 118.443 169.167C118.831 168.866 118.193 169.367 118.18 169.367C118.305 169.28 118.431 169.179 118.556 169.079C120.12 167.889 121.697 166.737 123.311 165.61C126.578 163.318 129.919 161.152 133.311 159.06C139.431 155.278 145.713 151.759 152.084 148.415C155.638 146.549 159.23 144.721 162.859 143.005C163.034 142.918 163.197 142.842 163.372 142.767C164.862 142.079 165.35 139.812 164.499 138.484C163.51 136.956 161.808 136.618 160.219 137.357L160.193 137.32Z" fill="#009DE0"/>
<path d="M107.655 170.607C107.092 172.548 106.854 174.652 106.841 176.669C106.816 180.488 107.893 184.621 110.834 187.251C113.124 189.305 115.915 190.181 118.919 190.532C120.546 190.72 122.122 188.954 122.047 187.401C121.96 185.548 120.671 184.471 118.919 184.27C118.355 184.208 119.106 184.27 119.156 184.308C119.031 184.245 118.818 184.258 118.681 184.233C118.443 184.183 118.193 184.132 117.955 184.082C117.454 183.957 116.966 183.782 116.478 183.619C116.115 183.494 117.116 183.932 116.778 183.744C116.666 183.682 116.541 183.632 116.428 183.569C116.253 183.481 116.065 183.381 115.89 183.281C115.715 183.181 115.565 183.068 115.389 182.968C114.751 182.555 115.902 183.444 115.352 182.93C115.076 182.68 114.814 182.429 114.576 182.166C114.513 182.104 114.463 182.029 114.401 181.966C114.1 181.628 114.651 182.292 114.651 182.292C114.551 182.104 114.401 181.928 114.275 181.753C114.075 181.44 113.913 181.114 113.75 180.789C113.462 180.213 114.038 181.553 113.812 180.939C113.737 180.739 113.662 180.538 113.6 180.338C113.487 180 113.399 179.649 113.324 179.298C113.249 178.948 113.149 177.62 113.224 178.885C113.187 178.196 113.099 177.52 113.099 176.819C113.099 176.168 113.137 175.516 113.199 174.865C113.237 174.514 113.437 173.437 113.199 174.765C113.249 174.502 113.274 174.251 113.324 173.988C113.424 173.425 113.537 172.849 113.7 172.298C114.163 170.72 113.149 168.816 111.51 168.441C109.87 168.065 108.156 168.942 107.655 170.632V170.607Z" fill="#009DE0"/>
<path d="M114.751 164.972C114.188 166.913 113.988 169.067 114.05 171.083C114.2 175.416 115.815 179.462 119.357 182.104C121.822 183.945 124.876 184.646 127.88 184.909C129.519 185.047 131.083 183.369 131.008 181.778C130.933 179.962 129.632 178.798 127.88 178.647C127.704 178.635 127.529 178.622 127.341 178.597C126.878 178.547 127.079 178.372 127.454 178.622C127.279 178.51 126.891 178.535 126.678 178.485C126.077 178.372 125.489 178.222 124.913 178.021C124.676 177.946 124.438 177.846 124.2 177.758C123.812 177.621 124.951 178.109 124.425 177.846C124.325 177.796 124.238 177.758 124.138 177.708C123.712 177.495 123.299 177.257 122.911 176.982C122.811 176.919 122.723 176.832 122.623 176.769C122.623 176.769 123.261 177.307 122.924 176.994C122.773 176.857 122.611 176.731 122.46 176.581C122.16 176.293 121.91 175.942 121.609 175.654C122.323 176.331 121.835 175.955 121.647 175.654C121.559 175.517 121.459 175.366 121.384 175.229C121.284 175.053 121.184 174.865 121.084 174.678C120.934 174.377 120.783 173.738 121.084 174.753C120.859 174.014 120.583 173.325 120.433 172.561C120.408 172.411 120.383 172.248 120.345 172.098C120.22 171.396 120.433 172.912 120.37 172.298C120.333 171.935 120.308 171.584 120.283 171.234C120.258 170.57 120.27 169.906 120.308 169.242C120.333 168.967 120.358 168.679 120.383 168.403C120.395 168.24 120.471 167.677 120.383 168.403C120.295 169.13 120.37 168.516 120.395 168.341C120.483 167.765 120.596 167.189 120.746 166.625C121.196 165.047 120.195 163.143 118.556 162.768C116.916 162.392 115.189 163.269 114.701 164.959L114.751 164.972Z" fill="#009DE0"/>
<path d="M178.866 137.22C179.317 136.394 179.755 135.567 180.18 134.74C181.382 132.449 182.558 130.132 183.709 127.815C185.436 124.358 187.113 120.877 188.765 117.383C190.818 113.012 192.808 108.616 194.723 104.196C196.95 99.0485 199.103 93.8638 201.118 88.629C203.133 83.3942 205.073 78.0592 206.812 72.6866C208.552 67.314 210.116 61.9915 211.43 56.5438C212.744 51.0961 213.708 45.9114 214.346 40.5012C214.885 35.9176 215.135 31.2714 214.772 26.6628C214.409 22.0541 213.545 17.984 211.756 13.9139C210.154 10.2695 207.638 7.16372 204.459 4.77174C200.792 2.01657 196.174 0.57637 191.656 0.113001C187.138 -0.350367 182.37 0.513753 178.14 2.26704C173.184 4.32089 168.791 7.30148 164.749 10.8081C160.707 14.3146 156.877 18.5726 153.498 22.9183C149.681 27.8275 146.202 32.9746 143.023 38.3221C139.844 43.6697 137.103 48.8669 134.5 54.3272C131.897 59.7874 129.644 65.0473 127.529 70.5451C125.802 75.0535 124.212 79.6246 122.898 84.2708C121.885 87.84 121.021 91.4593 120.596 95.1537C120.47 96.2182 120.383 97.2952 120.47 98.3597C120.596 99.9878 121.822 101.566 123.599 101.491C125.189 101.415 126.866 100.113 126.728 98.3597C126.64 97.2702 126.728 96.1681 126.866 95.0786C126.866 95.0034 126.878 94.9283 126.891 94.8531C126.953 94.3397 126.791 95.5169 126.828 95.3541C126.853 95.1788 126.878 94.9909 126.903 94.8156C126.953 94.4524 127.016 94.0767 127.091 93.7135C127.229 92.8995 127.404 92.098 127.579 91.2965C128.48 87.2389 129.682 83.2564 131.008 79.324C131.809 76.932 132.673 74.5651 133.574 72.2107C134.049 70.9583 134.55 69.706 135.051 68.4662C135.313 67.8275 135.576 67.1888 135.839 66.5501C135.914 66.3873 135.977 66.2119 136.052 66.0491C136.127 65.8613 135.739 66.7755 135.977 66.2245C136.114 65.8863 136.265 65.5482 136.402 65.2226C138.717 59.8375 141.246 54.5401 143.999 49.3679C146.752 44.1957 149.843 38.9233 153.185 33.964C154.011 32.7367 154.849 31.5344 155.713 30.3322C156.139 29.7436 156.577 29.155 157.002 28.5664C157.215 28.2908 157.415 28.0028 157.628 27.7273C157.74 27.577 157.853 27.4267 157.966 27.2764C158.166 27.0134 157.69 27.6396 157.715 27.5895C157.778 27.5019 157.841 27.4267 157.916 27.3391C159.643 25.1224 161.445 22.9684 163.36 20.902C165.162 18.9483 167.064 17.0698 169.067 15.329C169.542 14.9032 170.03 14.49 170.531 14.0892C170.769 13.9014 171.007 13.701 171.244 13.5131C171.357 13.4255 171.47 13.3378 171.57 13.2501C171.945 12.9621 170.919 13.7385 171.482 13.3128C172.458 12.5739 173.447 11.8726 174.473 11.2088C175.499 10.5451 176.476 9.96898 177.514 9.40543C178.015 9.12991 178.528 8.87944 179.054 8.62897C179.304 8.51626 179.554 8.40355 179.792 8.29083C179.905 8.24074 180.017 8.19065 180.143 8.14055C180.518 7.97775 179.317 8.47869 179.967 8.21569C181.982 7.41419 184.047 6.77549 186.2 6.43736C186.338 6.41231 186.475 6.39979 186.613 6.37474C187.088 6.2996 185.774 6.47493 186.25 6.42484C186.525 6.39979 186.801 6.36222 187.076 6.33717C187.602 6.28708 188.14 6.26203 188.678 6.24951C189.754 6.22446 190.83 6.28708 191.894 6.38727C191.957 6.38727 192.019 6.39979 192.069 6.41231C192.52 6.44988 191.556 6.33717 191.594 6.3497C191.719 6.37474 191.832 6.38727 191.957 6.39979C192.232 6.43736 192.52 6.48745 192.795 6.53755C193.346 6.63773 193.884 6.76297 194.422 6.90073C195.536 7.18877 196.6 7.58952 197.676 8.00279C197.864 8.07794 196.863 7.63961 197.388 7.89008C197.476 7.92765 197.576 7.97775 197.664 8.01532C197.876 8.11551 198.089 8.21569 198.302 8.31588C198.702 8.51626 199.09 8.72916 199.478 8.95458C199.866 9.18 200.229 9.40543 200.592 9.65589C200.767 9.76861 200.93 9.89384 201.105 10.0191C201.18 10.0817 201.256 10.1318 201.331 10.1944C201.406 10.257 200.617 9.61832 201.068 9.99403C201.731 10.5325 202.357 11.1086 202.945 11.7223C203.233 12.0354 203.521 12.3484 203.784 12.6741C203.846 12.7492 203.896 12.8243 203.959 12.8995C204.309 13.3253 203.658 12.4862 203.734 12.5989C203.859 12.7742 203.996 12.9496 204.122 13.1374C204.622 13.8387 205.073 14.5776 205.486 15.3416C205.698 15.7298 205.899 16.118 206.074 16.5188C206.161 16.7191 206.249 16.907 206.337 17.1074C206.399 17.2451 206.562 17.6334 206.312 17.0573C206.049 16.4436 206.274 16.9696 206.324 17.0948C207.013 18.8231 207.526 20.6265 207.889 22.4549C207.989 22.9433 208.076 23.4317 208.151 23.9201C208.189 24.1581 208.226 24.396 208.264 24.634C208.352 25.2351 208.201 24.1706 208.226 24.3084C208.252 24.4461 208.264 24.5714 208.277 24.6966C208.402 25.736 208.489 26.7755 208.552 27.8275C208.677 30.0441 208.664 32.2733 208.552 34.5025C208.439 36.8945 208.201 39.2739 207.901 41.6409C207.838 42.1543 207.901 41.6033 207.939 41.3528C207.914 41.5156 207.901 41.6659 207.876 41.8287C207.826 42.1543 207.788 42.4674 207.738 42.793C207.651 43.4192 207.551 44.0454 207.438 44.659C207.225 45.9239 207 47.2013 206.75 48.4536C205.711 53.726 204.384 58.9483 202.87 64.108C201.356 69.2677 199.516 74.7905 197.614 80.0629C195.711 85.3353 193.746 90.3447 191.644 95.4167C191.394 96.0304 191.131 96.644 190.881 97.2577C190.818 97.3954 190.768 97.5332 190.705 97.6584C190.505 98.1343 191.018 96.932 190.768 97.5207C190.63 97.8337 190.505 98.1468 190.367 98.4599C189.867 99.6371 189.354 100.827 188.841 102.004C187.864 104.233 186.888 106.45 185.874 108.667C184.097 112.574 182.27 116.456 180.393 120.313C179.004 123.181 177.577 126.024 176.125 128.867C175.337 130.42 174.536 131.96 173.71 133.488C173.61 133.688 173.497 133.876 173.397 134.064C172.621 135.504 172.996 137.546 174.523 138.347C176.05 139.149 177.965 138.76 178.803 137.22H178.866Z" fill="#009DE0"/>
<path d="M160.719 138.034C158.879 135.567 156.977 133.15 155.075 130.733C150.519 124.96 145.851 119.261 141.108 113.651C134.575 105.936 127.879 98.3723 120.959 91.0085C113.299 82.8557 105.377 74.9283 97.0547 67.4393C89.045 60.2383 80.6599 53.3629 71.624 47.4643C62.5881 41.5658 52.9514 36.7442 42.7015 33.7135C34.6168 31.3341 25.731 29.969 17.4085 31.8976C13.8792 32.7116 10.6003 34.252 7.77184 36.5063C4.94342 38.7605 3.05364 41.6659 1.73955 44.922C0.312827 48.4662 -0.112687 52.4487 0.0249795 56.2683C0.212706 61.3278 1.30152 66.3497 2.84088 71.1587C4.8433 77.4455 7.59663 83.5194 10.6503 89.3679C13.5538 94.9158 16.8078 100.288 20.4121 105.423C26.8699 114.615 34.3414 123.106 42.8517 130.457C49.6224 136.306 57.0188 141.578 65.0285 145.598C70.7479 148.479 76.9179 150.958 83.3506 151.559C85.3405 151.747 87.5182 151.71 89.408 151.008C92.1112 150.019 94.1637 147.865 94.389 144.872C94.6393 141.415 91.7358 138.735 88.9574 137.233C85.0277 135.104 80.5347 134.202 76.1294 133.776C64.2401 132.611 51.7124 135.78 41.7504 142.342C36.1061 146.062 31.538 151.171 29.1977 157.583C27.1452 163.206 27.3955 169.368 29.8235 174.816C32.4266 180.677 37.7831 184.972 43.5651 187.439C52.2255 191.146 61.9373 191.66 71.2235 190.808C77.5061 190.232 83.7136 189.067 89.821 187.527C91.4104 187.126 92.5242 185.26 92.0111 183.67C91.498 182.079 89.8585 181.052 88.1564 181.478C84.9901 182.28 81.8113 182.981 78.5949 183.544C77.8815 183.67 77.1807 183.782 76.4673 183.895C76.0794 183.958 75.6914 184.008 75.3034 184.07C75.1532 184.095 74.9905 184.108 74.8404 184.133C74.0519 184.246 75.5537 184.045 74.7653 184.133C73.3636 184.308 71.9744 184.471 70.5727 184.584C65.7919 184.985 60.9486 185.01 56.1803 184.409C55.3043 184.296 56.8686 184.509 56.0051 184.384C55.7548 184.346 55.517 184.308 55.2667 184.271C54.7536 184.183 54.253 184.095 53.7399 183.995C52.7762 183.807 51.8125 183.595 50.8614 183.332C49.9603 183.094 49.0717 182.831 48.1957 182.518C47.7952 182.38 47.3947 182.242 47.0067 182.079C46.819 182.004 46.6188 181.929 46.431 181.854C45.605 181.516 47.0443 182.129 46.3685 181.829C44.8792 181.165 43.4399 180.426 42.0883 179.537C41.7879 179.337 41.4876 179.136 41.1872 178.923C41.062 178.836 40.9369 178.735 40.7992 178.648C40.0984 178.122 41.2623 179.023 40.8243 178.673C40.2611 178.222 39.7104 177.746 39.1973 177.245C38.7092 176.782 38.2462 176.281 37.7956 175.767C37.683 175.63 37.5578 175.492 37.4452 175.354C37.3451 175.229 36.9571 174.728 37.3576 175.254C37.7581 175.78 37.3701 175.279 37.2825 175.154C37.1824 175.016 37.0822 174.866 36.9821 174.728C36.2312 173.651 35.6805 172.511 35.1049 171.334C35.6805 172.486 35.1674 171.484 35.0548 171.146C34.9422 170.808 34.842 170.52 34.7419 170.207C34.5542 169.606 34.404 169.005 34.2914 168.391C34.2288 168.103 34.1913 167.802 34.1412 167.514C34.0411 166.888 34.2288 168.303 34.1912 167.853C34.1787 167.652 34.1412 167.464 34.1287 167.264C34.0786 166.663 34.0536 166.049 34.0536 165.436C34.0536 164.822 34.0911 164.171 34.1537 163.544C34.1662 163.394 34.1912 163.244 34.2038 163.094C34.2288 162.768 34.0536 164.083 34.1662 163.382C34.2163 163.069 34.2663 162.755 34.3289 162.442C34.5792 161.165 34.9547 159.913 35.4302 158.71C35.4928 158.56 35.5429 158.422 35.6055 158.272C35.7431 157.934 35.2425 159.111 35.4302 158.685C35.4553 158.623 35.4803 158.56 35.5179 158.497C35.6555 158.172 35.8182 157.859 35.9684 157.546C36.2688 156.932 36.6067 156.343 36.9571 155.755C37.3075 155.166 37.708 154.578 38.1085 154.014C38.1961 153.889 38.2837 153.776 38.3713 153.651C38.7843 153.087 37.8457 154.302 38.2962 153.751C38.5215 153.476 38.7468 153.188 38.9845 152.925C39.9357 151.81 40.9744 150.783 42.0883 149.819C42.3761 149.568 42.6765 149.318 42.9769 149.08C43.1896 148.905 43.7778 148.516 42.8767 149.155C43.0394 149.042 43.2021 148.905 43.3648 148.779C44.3535 148.053 45.3923 147.377 46.431 146.738C47.7827 145.911 49.1718 145.16 50.5986 144.471C51.2243 144.171 51.9252 143.72 52.601 143.557C52.0128 143.695 52.3507 143.657 52.5259 143.595C52.7512 143.507 52.9764 143.407 53.1892 143.319C53.5647 143.169 53.9276 143.031 54.303 142.893C57.0439 141.879 59.8723 141.102 62.7508 140.564C63.4015 140.439 64.0523 140.326 64.7156 140.238C64.8533 140.213 65.0035 140.201 65.1537 140.176C64.4027 140.338 64.7782 140.226 64.9659 140.201C65.3539 140.151 65.7544 140.101 66.1423 140.063C67.4564 139.925 68.783 139.838 70.1096 139.8C72.5251 139.737 74.928 139.85 77.3309 140.138C77.9691 140.213 76.6926 140.038 77.1181 140.113C77.2683 140.138 77.406 140.151 77.5561 140.176C77.7814 140.213 78.0192 140.251 78.2445 140.288C78.8076 140.389 79.3583 140.489 79.909 140.614C80.8852 140.827 81.8488 141.077 82.8 141.378C83.213 141.516 83.626 141.653 84.039 141.804C84.2392 141.879 84.4269 141.954 84.6272 142.029C84.865 142.117 85.1653 142.33 84.3143 141.891C84.4269 141.954 84.5646 141.992 84.6772 142.054C85.3781 142.367 86.0664 142.73 86.7172 143.156C87.0426 143.369 87.8436 144.121 86.9675 143.294C87.2053 143.519 87.4681 143.707 87.7059 143.945C87.7935 144.033 87.8811 144.121 87.9562 144.208C88.194 144.471 88.3066 144.884 87.806 143.983C87.9312 144.208 88.0814 144.421 88.219 144.647C88.5194 145.147 88.0313 144.058 88.0688 144.283C88.0939 144.396 88.1439 144.496 88.169 144.609C88.194 144.722 88.2065 144.834 88.2315 144.935C87.9312 143.97 88.1564 144.158 88.1564 144.571C88.1564 144.684 88.1314 144.797 88.1314 144.897C88.0939 143.883 88.2816 144.095 88.169 144.459C88.1314 144.559 88.0814 144.684 88.0688 144.784C88.0063 145.085 88.2441 144.233 88.2941 144.258C88.2941 144.258 88.2065 144.446 88.1815 144.471C88.1064 144.596 88.0313 144.709 87.9562 144.834C87.6684 145.323 88.4443 144.308 88.194 144.546C88.0939 144.647 87.9937 144.759 87.9061 144.859C87.4055 145.373 88.4318 144.509 88.1815 144.672C88.0438 144.759 87.9187 144.859 87.7685 144.935C87.6308 145.01 87.4931 145.072 87.3555 145.147C88.0188 144.784 88.0939 144.872 87.5432 145.047C87.1803 145.16 86.8173 145.248 86.4544 145.323C86.3543 145.335 86.2667 145.348 86.1665 145.373C85.691 145.461 87.1678 145.26 86.6421 145.31C86.4168 145.335 86.1916 145.36 85.9538 145.373C85.4782 145.398 85.0026 145.398 84.5396 145.385C84.0265 145.373 83.5258 145.335 83.0252 145.273C82.9001 145.26 82.7624 145.248 82.6373 145.223C82.024 145.147 83.5384 145.36 82.9877 145.273C82.6873 145.223 82.3745 145.185 82.0741 145.122C79.3583 144.634 76.6926 143.807 74.1145 142.831C73.7641 142.693 73.4011 142.555 73.0507 142.417C72.8755 142.342 72.6878 142.267 72.5125 142.204C72.4124 142.167 72.3123 142.117 72.2122 142.079C71.7491 141.891 72.9631 142.405 72.475 142.192C71.6865 141.854 70.8981 141.503 70.1222 141.14C68.4702 140.363 66.8432 139.537 65.2538 138.648C61.6244 136.644 58.1327 134.402 54.7786 131.973C53.8525 131.309 52.9514 130.62 52.0503 129.931C51.6373 129.618 52.213 130.057 52.2506 130.082C52.1379 129.982 52.0128 129.894 51.8876 129.794C51.6749 129.618 51.4496 129.456 51.2368 129.28C50.7488 128.892 50.2607 128.504 49.7851 128.103C47.9203 126.575 46.0931 124.985 44.316 123.344C40.4488 119.787 36.8069 115.98 33.4028 111.985C32.4892 110.921 31.6006 109.844 30.7246 108.742C30.299 108.216 29.886 107.69 29.4731 107.151C29.1351 106.713 29.4856 107.176 29.5481 107.251C29.4355 107.101 29.3229 106.951 29.1977 106.801C28.9474 106.462 28.6971 106.137 28.4343 105.799C26.6572 103.432 24.9551 101.002 23.3281 98.5225C19.9115 93.3128 16.8453 87.8901 14.1295 82.2921C13.4036 80.7893 12.7028 79.2865 12.0395 77.7586C11.8893 77.408 11.7391 77.0698 11.5889 76.7192C11.3887 76.2558 11.8768 77.408 11.5639 76.6691C11.5013 76.5188 11.4388 76.3685 11.3762 76.2182C11.0758 75.4793 10.7755 74.7279 10.4876 73.989C9.49892 71.3967 8.62287 68.7542 7.9095 66.0617C7.59663 64.8594 7.30878 63.6572 7.07099 62.4299C6.95836 61.8788 6.85823 61.3403 6.77063 60.7893C6.73308 60.5513 6.69554 60.3134 6.65799 60.0755C6.63296 59.9252 6.62045 59.7874 6.59542 59.6371C6.54536 59.299 6.69554 60.4762 6.62045 59.7749C6.38266 57.7586 6.25751 55.7423 6.3326 53.701C6.34511 53.2627 6.38266 52.8118 6.42021 52.3735C6.44524 52.1356 6.47027 51.8976 6.4953 51.6597C6.4953 51.5595 6.52033 51.4718 6.53284 51.3716C6.59542 50.8081 6.40769 52.1731 6.4953 51.6472C6.63296 50.7956 6.78314 49.9565 6.9959 49.1174C7.19614 48.3284 7.44644 47.5645 7.73429 46.8006C7.75932 46.7254 7.79687 46.6503 7.8219 46.5751C7.99711 46.0992 7.50902 47.2639 7.67172 46.9258C7.74681 46.763 7.8219 46.5877 7.89699 46.4249C8.0722 46.0617 8.24741 45.6985 8.44765 45.3478C8.81059 44.6966 9.22359 44.0704 9.64911 43.4693C10.0371 42.9308 9.22359 43.9953 9.51144 43.6446C9.63659 43.4944 9.74923 43.3441 9.87438 43.1938C10.1122 42.9183 10.3625 42.6428 10.6128 42.3798C11.1259 41.8538 11.6766 41.3904 12.2397 40.9145C12.5151 40.6766 11.5264 41.4405 11.9269 41.1525C11.9894 41.1024 12.052 41.0648 12.1146 41.0147C12.2522 40.9145 12.4024 40.8143 12.5401 40.7142C12.8405 40.5013 13.1533 40.3009 13.4787 40.113C14.1295 39.7248 14.7928 39.3741 15.4811 39.0611C16.2571 38.7104 15.0556 39.2239 15.4061 39.0861C15.5562 39.0235 15.7064 38.9609 15.8566 38.9108C16.2446 38.7605 16.6325 38.6227 17.033 38.4975C17.809 38.247 18.5849 38.0341 19.3859 37.8588C19.7738 37.7711 20.1618 37.696 20.5498 37.6334C20.775 37.5958 20.9878 37.5582 21.2131 37.5207C21.3007 37.5081 21.3883 37.4956 21.4759 37.4831C22.0391 37.3954 20.6123 37.5833 21.188 37.5207C23.0027 37.3203 24.8049 37.2201 26.6321 37.2577C27.5833 37.2827 28.5219 37.3328 29.4731 37.408C29.9737 37.4455 30.4743 37.4956 30.9749 37.5582C31.1876 37.5833 31.4004 37.6083 31.6131 37.6334C31.7258 37.6459 32.2764 37.721 31.6757 37.6334C31.075 37.5457 31.7007 37.6334 31.8259 37.6584C36.2688 38.3096 40.624 39.4743 44.8541 40.9396C46.018 41.3403 47.1819 41.7787 48.3333 42.2295C48.8965 42.4549 49.4472 42.6678 49.9978 42.9058C49.9978 42.9058 50.3483 43.0686 50.3733 43.056C50.2106 43.1312 49.7475 42.7805 50.2732 43.0185C50.6111 43.1688 50.9615 43.319 51.2994 43.4693C53.7148 44.5338 56.0927 45.686 58.433 46.9133C62.9635 49.3053 67.3438 51.9728 71.5614 54.8907C73.6389 56.3184 75.6664 57.7962 77.6813 59.324C77.9191 59.5119 78.1694 59.6872 78.4072 59.8751C78.5699 60.0003 79.3959 60.5889 78.6575 60.0755C79.2206 60.4637 79.7338 60.9145 80.2719 61.3403C81.2982 62.1544 82.3244 62.9809 83.3381 63.8075C91.7233 70.6703 99.6328 78.0967 107.28 85.7862C114.926 93.4756 121.785 100.902 128.705 108.767C134.362 115.191 139.881 121.729 145.275 128.366C147.203 130.733 149.105 133.125 150.995 135.529C151.696 136.419 152.384 137.308 153.072 138.197C153.21 138.372 153.348 138.56 153.485 138.735C153.56 138.836 153.636 138.923 153.698 139.023C153.761 139.124 153.11 138.26 153.335 138.548C153.373 138.598 153.423 138.648 153.46 138.71C153.686 139.011 153.923 139.312 154.149 139.612C154.549 140.138 154.962 140.664 155.35 141.203C156.326 142.505 158.103 143.319 159.63 142.33C160.919 141.491 161.808 139.449 160.757 138.047L160.719 138.034Z" fill="#009DE0"/>
</g>
<defs>
<clipPath id="clip0_299_901">
<rect width="238" height="200" fill="white"/>
</clipPath>
</defs>
</svg>
