<svg width="336" height="143" viewBox="0 0 336 143" fill="none" xmlns="http://www.w3.org/2000/svg">
<path d="M331.902 79.8745C326.246 73.2387 316.238 70.8966 302.75 73.2387C301.009 70.8966 298.399 68.9449 293.178 67.3836C292.307 67.3836 291.437 66.9932 290.567 66.6029C291.872 63.4802 293.613 59.1864 292.307 54.112C291.437 49.4279 288.391 45.1342 283.605 41.2308C274.903 34.595 262.285 31.8626 250.537 33.8143C244.881 34.595 239.66 36.937 234.874 40.0597C232.263 28.3495 222.256 18.2007 208.332 13.1262C193.104 7.27114 175.264 7.27114 159.165 13.1262C152.204 15.4683 146.547 18.591 141.761 22.4944C138.715 15.4683 132.624 9.22284 124.357 5.31943C110.434 -1.70669 92.5944 -1.70669 76.4955 4.92909C61.7019 10.7842 49.0839 23.6654 43.4275 37.7177C38.6414 49.4279 39.0765 61.9188 44.7328 72.0676C45.6031 74.0194 46.9084 75.5807 48.2137 77.1421C44.2977 77.1421 40.3818 77.1421 36.901 77.1421C26.0234 77.9228 17.7564 80.6551 11.6649 84.9489C6.00854 88.8523 1.65749 95.0977 0.352179 101.734C-1.82334 112.273 6.44364 121.251 15.1457 125.544C39.0765 136.474 66.9232 123.593 75.1902 119.299C76.0604 118.909 76.9306 118.518 77.8008 117.737C79.1061 120.86 81.2816 123.593 83.4572 126.325C89.1135 132.961 96.9454 137.645 105.647 140.377C109.999 141.548 114.35 142.329 118.701 142.329C131.754 142.329 144.807 136.864 153.944 127.106C171.783 139.987 196.584 141.939 216.599 131.79C221.82 129.057 226.172 125.935 230.087 122.031C231.828 123.202 233.568 124.373 235.744 125.544C244.881 130.228 256.194 131.79 269.682 132.18C295.353 132.18 317.543 122.422 328.856 107.589C336.688 96.6591 338.428 86.5102 332.337 79.4841L331.902 79.8745ZM149.593 113.444C149.593 113.444 149.593 113.444 149.593 113.834C142.631 124.373 127.838 130.228 114.35 127.886C101.732 125.544 91.289 116.566 87.8082 104.856C87.3731 102.514 85.1976 100.953 82.587 100.953C81.7167 100.953 80.8465 100.953 79.9763 101.343C79.9763 101.343 79.5412 101.343 79.1061 101.734C69.9689 107.589 46.9084 120.47 25.1531 113.834C18.1915 111.492 11.6649 106.027 12.9702 99.7818C12.9702 98.2205 15.5808 95.8784 19.4968 94.3171C22.5425 92.7557 26.4585 91.5847 30.3744 91.1943C41.252 89.2426 52.9998 90.0233 63.8775 93.146C65.1828 93.5364 66.4881 93.5364 67.7934 93.146C72.5795 95.8784 77.8008 97.8301 82.587 99.0011C101.296 104.076 122.617 102.124 140.891 94.3171C143.066 93.5364 144.372 91.1943 144.807 90.0233C144.807 90.0233 144.807 88.8523 145.242 88.4619C146.112 87.2909 146.112 85.3392 145.242 84.1682C143.937 81.8262 140.891 80.6551 137.845 81.8262C115.655 91.5847 88.2433 90.0233 70.404 78.3131C61.7019 72.458 55.6105 65.0415 53.87 56.8444C51.2594 45.9148 55.6105 34.595 65.1828 26.0075C80.4114 12.7359 107.388 7.66148 123.922 21.3234C128.708 25.6171 131.754 31.4722 131.754 36.5467C131.319 37.3274 130.448 38.4984 130.013 40.0597C130.013 41.2308 130.013 42.7921 130.448 43.5728C130.013 45.1342 129.143 46.3052 127.838 47.4762C121.311 54.5023 109.128 58.4057 97.8156 56.8444C92.5944 56.0637 88.6784 54.112 86.5029 51.3796C85.1976 49.8182 84.7625 47.4762 85.1976 45.1342C85.1976 43.1825 87.3731 41.2308 90.4188 39.2791C94.3348 36.937 100.426 34.595 105.212 36.1563C106.953 36.5467 107.823 37.3274 108.693 38.4984C108.693 38.4984 108.693 39.2791 108.693 40.0597C107.823 41.2308 106.953 42.7921 106.518 43.9631C105.647 45.5245 105.647 47.8665 106.518 49.4279C108.258 51.3796 111.739 52.1603 113.914 50.2086C118.701 46.6955 121.746 40.0597 120.441 34.595C118.701 26.3978 110.434 20.9331 99.9911 22.4944C83.8923 24.0558 70.8391 36.937 70.8391 50.5989C70.8391 56.454 73.8849 61.5285 78.671 65.0415C87.3731 71.287 100.426 71.287 109.128 69.7256C124.792 66.6029 136.54 56.8444 141.761 43.1825C142.631 41.2308 142.631 39.279 142.631 36.937C144.372 34.595 146.547 32.6433 149.593 30.6916C153.509 27.9592 158.295 26.0075 163.081 24.8365C172.654 22.1041 182.661 21.3234 191.798 23.2751C206.592 26.0075 221.82 36.1563 221.385 51.7699C220.515 52.941 219.645 54.5023 219.645 56.0637C219.645 56.8444 219.645 57.6251 219.645 58.4057C214.424 72.458 195.714 81.8262 180.05 81.8262C179.615 81.8262 179.18 81.8262 178.31 81.8262C169.608 81.8262 162.211 77.9228 158.295 72.0676C156.555 68.9449 155.685 65.8222 156.12 62.6995C156.99 58.4057 161.341 54.5023 164.387 52.5506C171.783 47.8665 182.226 46.3052 187.882 52.5506C189.623 54.8927 190.493 58.4057 188.752 60.3574C187.882 61.1381 187.012 61.9188 186.142 62.3091C186.142 62.3091 186.142 62.3091 185.707 61.9188C183.531 60.3574 180.486 60.3574 178.31 62.3091C176.57 63.8705 174.829 66.2125 174.394 69.3353C174.394 69.7256 174.394 70.5063 174.394 70.8966C174.394 72.458 175.699 74.0193 177.005 74.8C179.18 76.3614 182.226 76.7517 184.837 75.9711C190.058 74.8 194.844 71.287 198.325 65.8222C201.806 59.9671 203.111 54.8927 201.806 50.2086C200.5 43.9631 195.279 38.8887 187.882 36.5467C172.654 31.4722 156.555 40.0597 148.723 50.9893C140.456 62.3091 140.456 74.4097 148.723 83.3875C155.685 91.1943 165.257 95.4881 177.44 95.4881C177.875 95.4881 178.31 95.4881 179.18 95.4881C196.149 95.0977 215.294 85.7296 224.866 72.8483C228.347 68.1642 230.958 62.6995 232.698 56.454C237.919 50.9893 244.881 47.4762 252.278 46.6955C261.415 45.9148 270.987 49.0376 275.773 54.8927C278.384 57.6251 279.689 61.9188 277.514 64.6512C275.338 67.3836 271.857 69.7256 267.942 71.287C260.98 74.0194 253.148 74.0194 246.186 71.287C243.576 70.116 239.66 72.0676 238.354 74.4097C237.049 76.3614 234.438 81.0455 239.66 83.7779C251.843 89.2426 266.201 87.6813 277.079 80.2648C277.949 80.2648 278.384 79.8745 279.254 79.4841C280.124 79.0938 280.995 78.7034 282.735 79.0938C279.689 80.6551 277.079 82.6068 274.903 85.3392C273.163 87.2909 268.812 92.7557 269.247 98.6108C269.247 102.514 271.422 106.418 274.468 108.76C277.079 110.711 280.124 111.492 283.17 111.492C286.216 111.492 289.262 109.15 291.437 106.418C293.613 103.685 294.048 100.562 293.178 97.8301C292.307 95.0977 288.827 93.9267 286.216 94.7074C284.911 95.0977 283.605 96.2688 283.17 97.0494C283.17 96.6591 282.3 95.8784 282.3 95.0977C282.3 95.0977 282.3 92.3653 294.048 88.4619C294.483 88.4619 295.353 88.4619 295.788 88.0716H296.223C296.223 88.0716 298.399 88.0716 299.269 87.2909C304.925 86.1199 318.849 83.7779 321.459 91.1943C324.505 100.172 309.712 109.54 301.445 113.053C291.872 116.957 280.995 119.299 268.812 119.299H267.942C257.499 119.299 243.576 117.347 234.874 108.369C233.568 106.808 230.958 106.418 229.217 106.808C228.347 106.808 227.042 107.979 226.171 108.76C217.905 118.518 205.286 124.764 192.233 125.154C179.615 126.325 166.997 120.86 158.295 113.053C157.425 112.273 156.12 111.492 154.814 111.492C153.509 111.492 150.898 112.663 149.593 113.834V113.444Z" fill="white"/>
</svg>
