<svg width="273" height="131" viewBox="0 0 273 131" fill="none" xmlns="http://www.w3.org/2000/svg">
<path d="M4.59439 29.4182C9.70862 22.0899 19.5437 16.1575 31.7392 14.0637C40.3941 12.6678 49.4424 12.6678 58.0972 14.0637C62.0313 14.7616 65.5719 15.8085 69.1125 17.2044C70.6861 17.9023 72.6531 18.6002 74.2268 19.6471H75.0136C75.0136 19.6471 75.8004 18.2513 76.1938 17.5533C77.7674 14.0637 80.5212 10.923 83.6684 8.13126C90.3563 2.19884 100.191 -0.592891 109.633 0.105041C120.255 0.802973 130.483 4.99056 137.565 11.272C138.351 11.9699 139.532 13.0168 140.712 14.4126C145.039 11.272 151.334 9.17816 157.628 9.17816C168.25 9.17816 179.265 13.3657 187.92 20.3451C195.002 25.9285 200.509 33.6058 202.476 40.5851C204.443 47.5644 202.476 54.8927 197.362 61.5231C210.344 56.2886 227.261 55.5906 241.817 59.7782C257.553 63.9658 268.568 73.0389 272.109 84.5548C274.469 91.8831 272.109 99.9093 265.421 106.54C258.339 113.519 248.504 116.66 241.817 118.056C227.654 121.545 206.804 125.035 189.101 117.009C187.133 116.311 185.56 115.264 183.593 114.217C180.446 119.451 174.151 123.639 164.71 126.431C155.661 129.222 146.22 130.618 137.171 130.618C111.207 130.618 86.0289 119.8 69.1125 100.607C63.6049 105.144 55.7368 107.587 46.6885 107.936H46.2951C34.0996 107.936 22.6909 103.05 16.3965 95.3728C10.102 87.3465 7.74161 79.3203 10.1021 72.341C10.8889 69.5493 12.8559 66.7575 14.8229 64.6637C8.13501 60.4762 3.41418 54.5437 1.05377 47.2155C-0.913239 40.9341 -0.126434 35.0016 3.41418 29.4182H4.59439ZM31.3458 58.0334C33.7062 58.0334 35.6732 58.0334 38.0337 58.7313C40.7875 59.4293 41.9677 61.5231 43.1479 63.9658V64.6637C43.1479 64.6637 44.3281 66.0596 44.3281 67.1065C44.3281 67.1065 44.3281 67.1065 44.3281 67.4555C44.3281 67.4555 43.5413 69.2003 42.7545 69.8982C42.7545 69.8982 42.3611 70.2472 41.9677 70.5962C41.1809 70.9451 40.3941 71.2941 39.6073 71.2941C39.6073 71.2941 39.6073 71.2941 39.2139 71.2941C37.2469 71.2941 35.6732 71.2941 34.0996 70.9451C30.559 70.9451 27.4118 73.0389 25.4448 75.8307C21.9041 80.3672 23.0843 86.9976 27.8052 90.4872C33.3128 94.3259 41.5743 96.0707 49.4424 95.0238C56.1302 93.9769 61.2444 91.5341 64.3917 87.3465C65.1785 85.9507 66.7521 85.6017 68.7191 85.2527C71.4729 85.2527 72.6531 86.9976 73.4399 88.0445C84.8486 103.748 104.519 114.915 125.369 117.358C136.384 118.753 147.4 117.707 158.022 114.915C164.316 113.17 174.938 108.982 174.151 102.701C174.151 100.607 174.938 98.8624 177.298 98.1645C177.692 98.1645 178.479 98.1645 178.872 98.1645C180.446 98.1645 182.019 98.8624 182.806 99.9093C192.641 109.68 208.377 110.378 217.032 109.68C223.327 109.331 230.014 108.284 237.883 106.191C245.357 104.446 250.471 102.352 254.405 99.2114C258.733 96.0707 261.487 91.5341 261.88 87.3465C261.88 84.9038 261.487 80.7162 253.225 76.5286C242.997 70.9451 229.621 69.2003 217.032 70.9451C209.557 71.992 202.87 74.4348 198.542 77.5755C196.182 79.3203 194.608 81.0651 193.428 82.81C192.248 85.2527 191.854 88.0445 192.248 88.3934C195.788 93.279 194.215 95.7217 192.248 96.7686C190.281 98.1645 186.74 97.4666 185.166 95.3728C182.019 91.5341 176.905 88.7424 169.43 85.9507C163.923 83.8569 156.448 82.112 149.367 82.112C144.253 82.112 139.532 84.5548 137.171 87.3465C135.991 88.7424 135.598 90.4872 135.598 92.2321C135.598 93.279 135.598 93.6279 135.598 93.6279C135.598 93.6279 135.598 93.6279 137.171 94.3259C139.532 95.3728 140.712 97.4665 141.499 99.9093C142.286 101.305 142.679 102.701 141.499 104.097C140.319 106.191 137.565 107.238 134.811 106.191C126.943 103.05 124.189 95.3728 123.402 92.93C121.042 85.6017 124.582 77.9245 132.45 73.3879C137.958 70.2472 144.646 69.2003 152.121 69.8982C151.727 68.8513 151.334 67.8044 152.121 66.7575C152.907 64.3148 155.661 63.2679 158.022 63.6169C165.496 65.3617 174.545 63.6168 181.626 58.7313C188.314 54.1948 194.608 46.1686 191.068 37.7934C187.527 29.4182 174.545 23.4858 164.316 22.0899C159.202 21.392 155.268 22.0899 152.514 23.4858C150.547 24.5327 148.973 26.2775 148.58 28.3713C148.58 29.0692 148.58 30.1161 148.58 31.163C148.58 31.163 148.58 31.512 148.58 31.8609C148.58 31.8609 148.187 33.2568 147.4 33.9547C147.4 33.9547 146.613 34.6527 146.22 34.6527C146.22 34.6527 145.039 35.3506 144.253 35.3506C143.859 35.3506 143.072 35.3506 142.679 35.3506C141.892 35.3506 141.105 35.3506 140.712 34.6527C140.318 34.6527 139.925 33.9547 139.532 33.6058C139.532 33.6058 139.532 33.6058 139.532 33.2568L138.745 32.2099C138.745 32.2099 136.778 29.7672 136.384 28.3713C136.384 28.3713 135.991 26.2775 135.991 25.2306C135.204 22.7878 132.844 19.6471 125.763 16.5064C119.468 13.7147 112.78 12.6678 106.879 13.3657C97.0442 14.4126 86.8157 21.7409 86.8157 31.8609C86.8157 33.2568 86.0289 35.0016 84.4552 35.6996C82.4882 36.7465 80.1278 36.7465 78.5542 35.6996C63.2115 25.2306 41.1809 23.1368 25.4448 30.4651C22.2975 31.8609 12.069 37.4444 13.6427 46.8665C14.8229 53.4968 23.0844 57.3355 31.3458 58.7313V58.0334ZM181.626 73.7369C179.265 74.7838 177.298 75.4817 174.938 75.8307C176.512 76.5286 178.085 77.2265 179.659 78.2734C180.052 76.8776 180.839 75.1327 181.626 73.7369Z" fill="white"/>
</svg>
