<svg width="1970" height="516" viewBox="0 0 1970 516" fill="none" xmlns="http://www.w3.org/2000/svg">
<path d="M1970 87.86C1954.09 87.86 1938.69 90.05 1924.09 94.14C1896.62 46.9 1845.47 15.13 1786.88 15.13C1734.41 15.13 1687.9 40.61 1659.03 79.86C1655.99 79.47 1652.9 79.25 1649.76 79.25C1636.06 79.25 1623.24 83.03 1612.28 89.59C1592.21 71.51 1565.65 60.5 1536.51 60.5C1483.03 60.5 1438.21 97.58 1426.34 147.43H1424.21C1399.05 102.29 1350.85 71.75 1295.51 71.75C1243.04 71.75 1196.98 99.2 1170.9 140.52C1148.21 59.46 1073.81 0 985.51 0C897.21 0 829.07 54.57 803.24 130.43C783 99.61 748.14 79.25 708.51 79.25C668.88 79.25 633.92 99.67 613.69 130.56C584.81 86.44 534.96 57.29 478.3 57.29C431.43 57.29 389.22 77.24 359.69 109.1C346.38 91 324.95 79.25 300.76 79.25C289.54 79.25 278.91 81.79 269.41 86.3C244.17 55.66 205.93 36.12 163.14 36.12C116.16 36.12 74.68 59.67 49.85 95.6C34.1 90.67 17.36 87.97 0 87.87V427.84C14.54 427.76 28.65 425.85 42.1 422.34C62 454.86 97.84 476.56 138.75 476.56C179.66 476.56 216.29 454.38 236.05 421.28C249.31 434.71 267.72 443.05 288.08 443.05C303.6 443.05 317.99 438.2 329.82 429.95C358.08 460.17 398.31 479.07 442.95 479.07C473.86 479.07 502.65 470.01 526.82 454.41C557.59 491.84 604.26 515.72 656.5 515.72C719.45 515.72 774.29 481.05 803 429.77C813.49 435.59 825.57 438.92 838.42 438.92C856.68 438.92 873.36 432.21 886.17 421.15C905.56 455.71 942.55 479.06 984.99 479.06C1027.43 479.06 1065.5 455.02 1084.65 419.64C1097.67 431.61 1115.03 438.92 1134.11 438.92C1146.96 438.92 1159.03 435.59 1169.53 429.77C1198.24 481.05 1253.08 515.72 1316.03 515.72C1383.85 515.72 1442.27 475.48 1468.72 417.58C1486.71 456.32 1525.96 483.2 1571.49 483.2C1605.71 483.2 1636.39 468.02 1657.16 444.02C1685.87 484.73 1733.26 511.32 1786.87 511.32C1849.27 511.32 1903.25 475.29 1929.14 422.91C1942.23 426.14 1955.91 427.86 1969.99 427.86V87.86H1970Z" fill="white"/>
</svg>
