<?xml version="1.0" encoding="UTF-8"?>
<svg id="_Слой_2" data-name="Слой 2" xmlns="http://www.w3.org/2000/svg" xmlns:xlink="http://www.w3.org/1999/xlink" viewBox="0 0 750 500">
  <defs>
    <style>
      .cls-1 {
        opacity: .5;
      }

      .cls-1, .cls-2, .cls-3 {
        stroke-width: 0px;
      }

      .cls-1, .cls-3 {
        fill: #fcd475;
      }

      .cls-2 {
        fill: none;
      }

      .cls-4 {
        clip-path: url(#clippath);
      }
    </style>
    <clipPath id="clippath">
      <rect class="cls-2" width="750" height="500"/>
    </clipPath>
  </defs>
  <g id="BACKGROUND2">
    <g class="cls-4">
      <g>
        <path class="cls-3" d="m271.75,146.79c.43-.88,1.14-.88,1.58,0l2.56,5.19c.43.88,1.58,1.71,2.55,1.85l5.73.83c.97.14,1.19.82.49,1.5l-4.15,4.04c-.7.68-1.14,2.03-.97,3l.98,5.71c.17.97-.41,1.38-1.28.93l-5.13-2.69c-.87-.46-2.29-.46-3.16,0l-5.13,2.69c-.87.46-1.44.04-1.28-.93l.98-5.71c.17-.97-.27-2.32-.97-3l-4.15-4.04c-.7-.68-.48-1.36.49-1.5l5.73-.83c.97-.14,2.12-.98,2.55-1.85l2.56-5.19Z"/>
        <path class="cls-1" d="m288.88,119.92c.27-.76,1.11-1.6,1.87-1.87l3.57-1.25c.76-.27.76-.7,0-.97l-3.57-1.25c-.76-.27-1.6-1.1-1.87-1.86l-1.25-3.56c-.26-.76-.7-.76-.97,0l-1.25,3.56c-.27.76-1.1,1.6-1.86,1.87l-3.56,1.25c-.76.27-.76.7,0,.97l3.56,1.25c.76.27,1.6,1.1,1.86,1.87l1.25,3.56c.27.76.7.76.97,0l1.25-3.56Z"/>
        <path class="cls-3" d="m237.93,116.6c.18-.37.48-.37.66,0l1.08,2.18c.18.37.66.72,1.07.78l2.41.35c.41.06.5.34.2.63l-1.74,1.7c-.29.29-.48.85-.41,1.26l.41,2.4c.07.41-.17.58-.54.39l-2.15-1.13c-.37-.19-.96-.19-1.32,0l-2.15,1.13c-.36.19-.61.02-.54-.39l.41-2.4c.07-.41-.11-.97-.41-1.26l-1.74-1.7c-.29-.29-.2-.57.2-.63l2.41-.35c.41-.06.89-.41,1.07-.78l1.08-2.18Z"/>
        <path class="cls-1" d="m254.33,127.69c0,.74-.6,1.33-1.33,1.33s-1.33-.6-1.33-1.33.6-1.33,1.33-1.33,1.33.6,1.33,1.33Z"/>
        <path class="cls-3" d="m239.6,160.75c0,.74-.6,1.33-1.33,1.33s-1.33-.6-1.33-1.33.6-1.33,1.33-1.33,1.33.6,1.33,1.33Z"/>
        <circle class="cls-3" cx="298" cy="140.33" r="1.33"/>
        <path class="cls-1" d="m250.56,186.08h-5.86c1.09-1.08,2.17-2.17,3.25-3.25.45-.45-.24-1.14-.69-.69-1.08,1.08-2.17,2.17-3.25,3.25v-5.86c0-.63-.98-.63-.98,0v5.86c-1.08-1.08-2.17-2.17-3.25-3.25-.45-.45-1.14.25-.69.69,1.08,1.08,2.17,2.17,3.25,3.25h-5.86c-.63,0-.63.98,0,.98h5.86c-1.08,1.08-2.17,2.17-3.25,3.25-.45.45.24,1.14.69.69,1.08-1.08,2.17-2.17,3.25-3.25v5.86c0,.63.98.63.98,0v-5.86c1.08,1.08,2.17,2.17,3.25,3.25.45.45,1.14-.25.69-.69-1.08-1.08-2.17-2.17-3.25-3.25h5.86c.63,0,.63-.98,0-.98Z"/>
        <path class="cls-3" d="m333.07,115.84h-5.85c1.08-1.08,2.17-2.17,3.25-3.25.45-.45-.24-1.14-.69-.69-1.08,1.08-2.17,2.17-3.25,3.25v-5.86c0-.63-.98-.63-.98,0v5.86c-1.08-1.08-2.17-2.17-3.25-3.25-.45-.45-1.14.25-.69.69,1.09,1.08,2.17,2.17,3.25,3.25h-5.86c-.63,0-.63.98,0,.98h5.86c-1.09,1.08-2.17,2.17-3.25,3.25-.45.45.25,1.14.69.69,1.08-1.08,2.17-2.17,3.25-3.25v5.86c0,.63.98.63.98,0v-5.86c1.08,1.08,2.17,2.17,3.25,3.25.45.45,1.14-.25.69-.69-1.09-1.08-2.17-2.17-3.25-3.25h5.85c.63,0,.63-.98,0-.98Z"/>
        <circle class="cls-3" cx="248.37" cy="93.33" r="1.33"/>
        <path class="cls-3" d="m305.67,94.67c0,.74-.6,1.33-1.33,1.33s-1.33-.6-1.33-1.33.6-1.33,1.33-1.33,1.33.6,1.33,1.33Z"/>
        <path class="cls-3" d="m219.68,71.42c.43-.88,1.14-.88,1.58,0l2.56,5.19c.43.88,1.58,1.71,2.55,1.85l5.73.83c.97.14,1.19.82.49,1.5l-4.15,4.04c-.7.68-1.14,2.03-.97,3l.98,5.71c.17.97-.41,1.38-1.28.93l-5.13-2.69c-.87-.46-2.29-.46-3.16,0l-5.13,2.69c-.87.46-1.44.04-1.28-.93l.98-5.71c.17-.97-.27-2.32-.97-3l-4.15-4.04c-.7-.68-.48-1.36.49-1.5l5.73-.83c.97-.14,2.12-.98,2.55-1.85l2.56-5.19Z"/>
        <path class="cls-1" d="m254,58.92c.18-.37.48-.37.66,0l1.08,2.18c.18.37.66.72,1.07.78l2.41.35c.41.06.5.34.2.63l-1.74,1.7c-.29.29-.48.85-.41,1.26l.41,2.4c.07.41-.17.58-.54.39l-2.15-1.13c-.36-.19-.96-.19-1.32,0l-2.15,1.13c-.36.19-.61.02-.54-.39l.41-2.4c.07-.41-.12-.97-.41-1.26l-1.74-1.7c-.29-.29-.2-.57.2-.63l2.4-.35c.41-.06.89-.41,1.07-.78l1.08-2.18Z"/>
        <path class="cls-3" d="m205.41,146.52c.27-.76,1.11-1.6,1.87-1.87l3.57-1.25c.76-.27.76-.7,0-.97l-3.57-1.25c-.76-.27-1.6-1.1-1.87-1.86l-1.25-3.56c-.26-.76-.7-.76-.97,0l-1.25,3.56c-.27.76-1.1,1.6-1.86,1.87l-3.56,1.25c-.76.27-.76.7,0,.97l3.56,1.25c.76.27,1.6,1.1,1.86,1.87l1.25,3.56c.27.76.7.76.97,0l1.25-3.56Z"/>
        <path class="cls-1" d="m214.07,107.27c0,.74-.6,1.33-1.33,1.33s-1.33-.6-1.33-1.33.6-1.33,1.33-1.33,1.33.6,1.33,1.33Z"/>
        <circle class="cls-3" cx="269" cy="102.33" r="1.33"/>
        <path class="cls-3" d="m321.19,73.29c.18-.37.48-.37.66,0l1.08,2.18c.18.37.66.72,1.07.78l2.41.35c.41.06.5.34.2.63l-1.74,1.7c-.29.29-.48.85-.41,1.26l.41,2.4c.07.41-.17.58-.54.39l-2.15-1.13c-.37-.19-.96-.19-1.32,0l-2.15,1.13c-.36.19-.61.02-.54-.39l.41-2.4c.07-.41-.11-.97-.41-1.26l-1.74-1.7c-.29-.29-.2-.57.21-.63l2.41-.35c.41-.06.89-.41,1.07-.78l1.08-2.18Z"/>
        <circle class="cls-1" cx="279.42" cy="82.71" r="1.33"/>
        <path class="cls-3" d="m296.29,51.67h-5.86c1.08-1.08,2.17-2.17,3.25-3.25.45-.45-.24-1.14-.69-.69-1.09,1.08-2.17,2.17-3.25,3.25v-5.86c0-.63-.98-.63-.98,0v5.86c-1.08-1.08-2.17-2.17-3.25-3.25-.45-.45-1.14.25-.69.69,1.08,1.08,2.17,2.17,3.25,3.25h-5.86c-.63,0-.63.98,0,.98h5.86c-1.08,1.08-2.17,2.17-3.25,3.25-.45.45.24,1.14.69.69,1.08-1.08,2.17-2.17,3.25-3.25v5.86c0,.63.98.63.98,0v-5.86c1.08,1.08,2.17,2.17,3.25,3.25.45.45,1.14-.25.69-.69-1.08-1.08-2.17-2.17-3.25-3.25h5.86c.63,0,.63-.98,0-.98Z"/>
        <path class="cls-3" d="m325.24,25.4c.43-.88,1.14-.88,1.58,0l2.56,5.19c.43.88,1.58,1.71,2.55,1.85l5.73.83c.97.14,1.19.82.49,1.5l-4.15,4.04c-.7.68-1.14,2.03-.97,3l.98,5.71c.17.97-.41,1.38-1.28.93l-5.13-2.69c-.87-.46-2.29-.46-3.16,0l-5.13,2.69c-.87.46-1.44.04-1.28-.93l.98-5.71c.17-.97-.27-2.32-.97-3l-4.15-4.04c-.7-.68-.48-1.36.49-1.5l5.73-.83c.97-.14,2.12-.98,2.55-1.85l2.56-5.19Z"/>
        <path class="cls-3" d="m311.25,62c0,.74-.6,1.33-1.33,1.33s-1.33-.6-1.33-1.33.6-1.33,1.33-1.33,1.33.6,1.33,1.33Z"/>
        <path class="cls-3" d="m346.42,94.67c0,.74-.6,1.33-1.33,1.33s-1.33-.6-1.33-1.33.6-1.33,1.33-1.33,1.33.6,1.33,1.33Z"/>
        <path class="cls-3" d="m261.32,29.83c.27-.76,1.11-1.6,1.87-1.87l3.57-1.25c.76-.27.76-.7,0-.97l-3.57-1.25c-.76-.27-1.6-1.1-1.87-1.86l-1.25-3.56c-.26-.76-.7-.76-.97,0l-1.25,3.56c-.27.76-1.1,1.6-1.86,1.87l-3.56,1.25c-.76.27-.76.7,0,.97l3.56,1.25c.76.27,1.6,1.1,1.86,1.87l1.25,3.56c.27.76.7.76.97,0l1.25-3.56Z"/>
        <path class="cls-3" d="m183.52,99.02h-5.85c1.08-1.08,2.17-2.17,3.25-3.25.45-.45-.24-1.14-.69-.69-1.08,1.08-2.17,2.17-3.25,3.25v-5.86c0-.63-.98-.63-.98,0v5.86c-1.08-1.08-2.17-2.17-3.25-3.25-.45-.45-1.14.25-.69.69,1.09,1.08,2.17,2.17,3.25,3.25h-5.86c-.63,0-.63.98,0,.98h5.86c-1.08,1.08-2.17,2.17-3.25,3.25-.45.45.25,1.14.69.69,1.08-1.08,2.17-2.17,3.25-3.25v5.86c0,.63.98.63.98,0v-5.86c1.08,1.08,2.17,2.17,3.25,3.25.45.45,1.14-.25.69-.69-1.08-1.08-2.17-2.17-3.25-3.25h5.85c.63,0,.63-.98,0-.98Z"/>
        <path class="cls-1" d="m228,57.31c0,.74-.6,1.33-1.33,1.33s-1.33-.6-1.33-1.33.6-1.33,1.33-1.33,1.33.6,1.33,1.33Z"/>
        <circle class="cls-3" cx="188" cy="70.76" r="1.33"/>
        <path class="cls-1" d="m168.21,62.24c.27-.76,1.11-1.6,1.87-1.87l3.57-1.25c.76-.27.76-.7,0-.97l-3.57-1.25c-.76-.27-1.6-1.1-1.87-1.86l-1.25-3.56c-.27-.76-.7-.76-.97,0l-1.25,3.56c-.27.76-1.11,1.6-1.87,1.87l-3.56,1.25c-.76.27-.76.7,0,.97l3.56,1.25c.76.27,1.6,1.1,1.87,1.87l1.25,3.56c.27.76.7.76.97,0l1.25-3.56Z"/>
        <path class="cls-3" d="m217.67,25.02c.18-.37.48-.37.66,0l1.08,2.18c.18.37.66.72,1.07.78l2.41.35c.41.06.5.34.2.63l-1.74,1.7c-.29.29-.48.85-.41,1.26l.41,2.4c.07.41-.17.58-.54.39l-2.15-1.13c-.36-.19-.96-.19-1.32,0l-2.15,1.13c-.36.19-.61.02-.54-.39l.41-2.4c.07-.41-.12-.97-.41-1.26l-1.74-1.7c-.29-.29-.2-.57.2-.63l2.4-.35c.41-.06.89-.41,1.07-.78l1.08-2.18Z"/>
        <circle class="cls-3" cx="190.67" cy="43.31" r="1.33"/>
        <path class="cls-1" d="m188,12.67c0,.74-.6,1.33-1.33,1.33s-1.33-.6-1.33-1.33.6-1.33,1.33-1.33,1.33.6,1.33,1.33Z"/>
        <path class="cls-1" d="m160.52,16.74h-5.85c1.08-1.08,2.17-2.17,3.25-3.25.45-.45-.24-1.14-.69-.69-1.08,1.08-2.17,2.17-3.25,3.25v-5.86c0-.63-.98-.63-.98,0v5.86c-1.08-1.08-2.17-2.17-3.25-3.25-.45-.45-1.14.25-.69.69,1.09,1.08,2.17,2.17,3.25,3.25h-5.86c-.63,0-.63.98,0,.98h5.86c-1.08,1.08-2.17,2.17-3.25,3.25-.45.45.25,1.14.69.69,1.08-1.08,2.17-2.17,3.25-3.25v5.86c0,.63.98.63.98,0v-5.86c1.08,1.08,2.17,2.17,3.25,3.25.45.45,1.14-.25.69-.69-1.08-1.08-2.17-2.17-3.25-3.25h5.85c.63,0,.63-.98,0-.98Z"/>
        <path class="cls-3" d="m145.98,41.98c0,.74-.6,1.33-1.33,1.33s-1.33-.6-1.33-1.33.6-1.33,1.33-1.33,1.33.6,1.33,1.33Z"/>
        <path class="cls-3" d="m137.72,83.58c.18-.37.48-.37.66,0l1.08,2.18c.18.37.66.72,1.07.78l2.41.35c.41.06.5.34.2.63l-1.74,1.7c-.29.29-.48.85-.41,1.26l.41,2.4c.07.41-.17.58-.54.39l-2.15-1.13c-.36-.19-.96-.19-1.32,0l-2.15,1.13c-.36.19-.61.02-.54-.39l.41-2.4c.07-.41-.11-.97-.41-1.26l-1.74-1.7c-.29-.29-.2-.57.21-.63l2.41-.35c.41-.06.89-.41,1.07-.78l1.08-2.18Z"/>
        <path class="cls-3" d="m237.35,8.39c0,.74-.6,1.33-1.33,1.33s-1.33-.6-1.33-1.33.6-1.33,1.33-1.33,1.33.6,1.33,1.33Z"/>
        <path class="cls-3" d="m292.08,6.59c.18-.37.48-.37.66,0l1.08,2.18c.18.37.66.72,1.07.78l2.41.35c.41.06.5.34.21.63l-1.74,1.7c-.29.29-.48.85-.41,1.26l.41,2.4c.07.41-.17.58-.54.39l-2.15-1.13c-.36-.19-.96-.19-1.32,0l-2.15,1.13c-.36.19-.61.02-.54-.39l.41-2.4c.07-.41-.11-.97-.41-1.26l-1.74-1.7c-.29-.29-.2-.57.21-.63l2.41-.35c.41-.06.89-.41,1.07-.78l1.08-2.18Z"/>
        <circle class="cls-3" cx="205.01" cy="177.73" r="1.33"/>
        <path class="cls-1" d="m175.54,127.69c0,.74-.6,1.33-1.33,1.33s-1.33-.6-1.33-1.33.6-1.33,1.33-1.33,1.33.6,1.33,1.33Z"/>
        <path class="cls-3" d="m173.51,158.93h-5.85c1.08-1.08,2.17-2.17,3.25-3.25.45-.45-.24-1.14-.69-.69-1.08,1.08-2.17,2.17-3.25,3.25v-5.86c0-.63-.98-.63-.98,0v5.86c-1.08-1.08-2.17-2.17-3.25-3.25-.45-.45-1.14.25-.69.69,1.09,1.08,2.17,2.17,3.25,3.25h-5.86c-.63,0-.63.98,0,.98h5.86c-1.08,1.08-2.17,2.17-3.25,3.25-.45.45.25,1.14.69.69,1.08-1.08,2.17-2.17,3.25-3.25v5.86c0,.63.98.63.98,0v-5.86c1.08,1.08,2.17,2.17,3.25,3.25.45.45,1.14-.25.69-.69-1.08-1.08-2.17-2.17-3.25-3.25h5.85c.63,0,.63-.98,0-.98Z"/>
        <path class="cls-3" d="m185,191.79c.18-.37.48-.37.66,0l1.08,2.18c.18.37.66.72,1.07.78l2.41.35c.41.06.5.34.2.63l-1.74,1.7c-.29.29-.48.85-.41,1.26l.41,2.4c.07.41-.17.58-.54.39l-2.15-1.13c-.36-.19-.96-.19-1.32,0l-2.15,1.13c-.36.19-.61.02-.54-.39l.41-2.4c.07-.41-.11-.97-.41-1.26l-1.74-1.7c-.29-.29-.2-.57.2-.63l2.4-.35c.41-.06.89-.41,1.07-.78l1.08-2.18Z"/>
        <path class="cls-3" d="m124.21,115.75c.43-.88,1.14-.88,1.58,0l2.56,5.19c.43.88,1.58,1.71,2.55,1.85l5.73.83c.97.14,1.19.82.49,1.5l-4.15,4.04c-.7.68-1.14,2.03-.97,3l.98,5.71c.17.97-.41,1.38-1.28.93l-5.13-2.69c-.87-.46-2.29-.46-3.16,0l-5.13,2.69c-.87.46-1.44.04-1.28-.93l.98-5.71c.17-.97-.27-2.32-.97-3l-4.15-4.04c-.7-.68-.48-1.36.49-1.5l5.73-.83c.97-.14,2.12-.98,2.55-1.85l2.56-5.19Z"/>
        <path class="cls-1" d="m132.46,171.66c.18-.37.48-.37.66,0l1.08,2.18c.18.37.66.72,1.07.78l2.41.35c.41.06.5.34.2.63l-1.74,1.7c-.29.29-.48.85-.41,1.26l.41,2.4c.07.41-.17.58-.54.39l-2.15-1.13c-.36-.19-.96-.19-1.32,0l-2.15,1.13c-.36.19-.61.02-.54-.39l.41-2.4c.07-.41-.11-.97-.41-1.26l-1.74-1.7c-.29-.29-.2-.57.21-.63l2.4-.35c.41-.06.89-.41,1.07-.78l1.08-2.18Z"/>
        <path class="cls-1" d="m153.49,209c0,.74-.6,1.33-1.33,1.33s-1.33-.6-1.33-1.33.6-1.33,1.33-1.33,1.33.6,1.33,1.33Z"/>
        <circle class="cls-1" cx="205.01" cy="221.83" r="1.33"/>
        <path class="cls-1" d="m245.25,237.92c.27-.76,1.11-1.6,1.87-1.87l3.57-1.25c.76-.27.76-.7,0-.97l-3.57-1.25c-.76-.27-1.6-1.1-1.87-1.86l-1.25-3.56c-.27-.76-.7-.76-.97,0l-1.25,3.56c-.27.76-1.11,1.6-1.87,1.87l-3.56,1.25c-.76.27-.76.7,0,.97l3.56,1.25c.76.27,1.6,1.11,1.87,1.87l1.25,3.56c.27.76.7.76.97,0l1.25-3.56Z"/>
        <path class="cls-3" d="m138.65,237.92c.27-.76,1.11-1.6,1.87-1.87l3.57-1.25c.76-.27.76-.7,0-.97l-3.57-1.25c-.76-.27-1.6-1.1-1.87-1.86l-1.25-3.56c-.27-.76-.7-.76-.97,0l-1.25,3.56c-.27.76-1.11,1.6-1.87,1.87l-3.56,1.25c-.76.27-.76.7,0,.97l3.56,1.25c.76.27,1.6,1.11,1.87,1.87l1.25,3.56c.27.76.7.76.97,0l1.25-3.56Z"/>
        <circle class="cls-3" cx="214.07" cy="250" r="1.33"/>
        <path class="cls-3" d="m175.7,249.33c.43-.88,1.14-.88,1.58,0l2.56,5.19c.43.88,1.58,1.71,2.55,1.85l5.73.83c.97.14,1.19.82.49,1.5l-4.15,4.04c-.7.68-1.14,2.03-.97,3l.98,5.71c.17.97-.41,1.38-1.28.93l-5.13-2.7c-.87-.46-2.29-.46-3.16,0l-5.13,2.7c-.87.46-1.44.04-1.28-.93l.98-5.71c.17-.97-.27-2.32-.97-3l-4.15-4.04c-.7-.68-.48-1.36.49-1.5l5.73-.83c.97-.14,2.12-.98,2.55-1.85l2.56-5.19Z"/>
        <path class="cls-3" d="m266.73,332.9c.27-.76,1.11-1.6,1.87-1.87l3.57-1.25c.76-.27.76-.7,0-.97l-3.57-1.25c-.76-.27-1.6-1.1-1.87-1.86l-1.25-3.56c-.27-.76-.7-.76-.97,0l-1.25,3.56c-.27.76-1.11,1.6-1.87,1.87l-3.56,1.25c-.76.27-.76.7,0,.97l3.56,1.25c.76.27,1.6,1.11,1.87,1.87l1.25,3.56c.27.76.7.76.97,0l1.25-3.56Z"/>
        <path class="cls-3" d="m244.85,285.4h-5.86c1.08-1.08,2.17-2.17,3.25-3.25.45-.45-.24-1.14-.69-.69-1.09,1.08-2.17,2.17-3.25,3.25v-5.86c0-.63-.98-.63-.98,0v5.86c-1.08-1.08-2.17-2.17-3.25-3.25-.45-.45-1.14.25-.69.69,1.08,1.08,2.17,2.17,3.25,3.25h-5.86c-.63,0-.63.98,0,.98h5.86c-1.08,1.08-2.17,2.17-3.25,3.25-.45.45.24,1.14.69.69,1.08-1.08,2.17-2.17,3.25-3.25v5.86c0,.63.98.63.98,0v-5.86c1.08,1.08,2.17,2.17,3.25,3.25.45.45,1.14-.25.69-.69-1.08-1.08-2.17-2.17-3.25-3.25h5.86c.63,0,.63-.98,0-.98Z"/>
        <path class="cls-1" d="m236.87,314.07c0,.74-.6,1.33-1.33,1.33s-1.33-.6-1.33-1.33.6-1.33,1.33-1.33,1.33.6,1.33,1.33Z"/>
        <path class="cls-3" d="m234.84,345.31h-5.86c1.08-1.08,2.17-2.17,3.25-3.25.45-.45-.24-1.14-.69-.69-1.09,1.08-2.17,2.17-3.25,3.25v-5.86c0-.63-.98-.63-.98,0v5.86c-1.08-1.08-2.17-2.17-3.25-3.25-.45-.45-1.14.25-.69.69,1.08,1.08,2.17,2.17,3.25,3.25h-5.86c-.63,0-.63.98,0,.98h5.86c-1.08,1.08-2.17,2.17-3.25,3.25-.45.45.24,1.14.69.69,1.08-1.08,2.17-2.17,3.25-3.25v5.86c0,.63.98.63.98,0v-5.86c1.08,1.09,2.17,2.17,3.25,3.25.45.45,1.14-.25.69-.69-1.08-1.08-2.17-2.17-3.25-3.25h5.86c.63,0,.63-.98,0-.98Z"/>
        <path class="cls-3" d="m246.33,378.17c.18-.37.48-.37.66,0l1.08,2.18c.18.37.66.72,1.07.78l2.41.35c.41.06.5.34.21.63l-1.74,1.7c-.29.29-.48.85-.41,1.26l.41,2.39c.07.41-.17.58-.54.39l-2.15-1.13c-.36-.19-.96-.19-1.32,0l-2.15,1.13c-.36.19-.61.02-.54-.39l.41-2.39c.07-.41-.11-.97-.41-1.26l-1.74-1.7c-.29-.29-.2-.57.21-.63l2.41-.35c.41-.06.89-.41,1.07-.78l1.08-2.18Z"/>
        <path class="cls-3" d="m291.17,357.37c.43-.88,1.14-.88,1.58,0l2.56,5.2c.43.88,1.58,1.71,2.55,1.85l5.73.83c.97.14,1.19.82.49,1.5l-4.15,4.04c-.7.68-1.14,2.04-.97,3l.98,5.71c.16.97-.41,1.38-1.28.93l-5.13-2.69c-.87-.46-2.29-.46-3.16,0l-5.13,2.69c-.87.46-1.44.04-1.28-.93l.98-5.71c.17-.97-.27-2.32-.97-3l-4.15-4.04c-.7-.68-.48-1.36.49-1.5l5.73-.83c.97-.14,2.12-.98,2.55-1.85l2.56-5.2Z"/>
        <path class="cls-1" d="m193.79,358.04c.18-.37.48-.37.66,0l1.08,2.18c.18.37.66.72,1.07.78l2.41.35c.41.06.5.34.21.63l-1.74,1.7c-.29.29-.48.85-.41,1.26l.41,2.4c.07.41-.17.58-.54.39l-2.15-1.13c-.36-.19-.96-.19-1.32,0l-2.15,1.13c-.36.19-.61.02-.54-.39l.41-2.4c.07-.41-.11-.97-.41-1.26l-1.74-1.7c-.29-.29-.2-.57.2-.63l2.41-.35c.41-.06.89-.41,1.07-.78l1.08-2.18Z"/>
        <path class="cls-1" d="m214.81,395.38c0,.74-.6,1.33-1.33,1.33s-1.33-.6-1.33-1.33.6-1.33,1.33-1.33,1.33.6,1.33,1.33Z"/>
        <path class="cls-3" d="m199.97,424.3c.27-.76,1.11-1.6,1.87-1.87l3.57-1.25c.76-.27.76-.7,0-.97l-3.57-1.25c-.76-.27-1.6-1.1-1.87-1.86l-1.25-3.56c-.26-.76-.7-.76-.97,0l-1.25,3.56c-.27.76-1.1,1.6-1.86,1.87l-3.56,1.25c-.76.27-.76.7,0,.97l3.56,1.25c.76.27,1.6,1.11,1.86,1.87l1.25,3.56c.27.76.7.76.97,0l1.25-3.56Z"/>
        <path class="cls-3" d="m237.02,435.71c.43-.88,1.14-.88,1.58,0l2.56,5.19c.43.88,1.58,1.71,2.55,1.85l5.73.83c.97.14,1.19.82.49,1.5l-4.15,4.04c-.7.68-1.14,2.03-.97,3l.98,5.71c.16.97-.41,1.38-1.28.93l-5.13-2.7c-.87-.46-2.29-.46-3.16,0l-5.13,2.7c-.87.46-1.44.04-1.28-.93l.98-5.71c.17-.97-.27-2.32-.97-3l-4.15-4.04c-.7-.68-.48-1.36.49-1.5l5.73-.83c.97-.14,2.12-.98,2.55-1.85l2.56-5.19Z"/>
        <path class="cls-3" d="m190.26,306.17c.18-.37.48-.37.66,0l1.08,2.18c.18.37.66.72,1.07.78l2.41.35c.41.06.5.34.21.63l-1.74,1.7c-.29.29-.48.85-.41,1.26l.41,2.39c.07.41-.17.58-.54.39l-2.15-1.13c-.36-.19-.96-.19-1.32,0l-2.15,1.13c-.36.19-.61.02-.54-.39l.41-2.39c.07-.41-.11-.97-.41-1.26l-1.74-1.7c-.29-.29-.2-.57.21-.63l2.41-.35c.41-.06.89-.41,1.07-.78l1.08-2.18Z"/>
        <path class="cls-1" d="m150.35,285.58h-5.86c1.08-1.08,2.17-2.17,3.25-3.25.45-.45-.24-1.14-.69-.69-1.09,1.08-2.17,2.17-3.25,3.25v-5.86c0-.63-.98-.63-.98,0v5.86l-3.25-3.25c-.45-.45-1.14.25-.69.69,1.08,1.08,2.17,2.17,3.25,3.25h-5.86c-.63,0-.63.98,0,.98h5.86c-1.09,1.08-2.17,2.17-3.25,3.25-.45.45.24,1.14.69.69,1.08-1.09,2.17-2.17,3.25-3.25v5.86c0,.63.98.63.98,0v-5.86c1.08,1.08,2.17,2.17,3.25,3.25.45.45,1.14-.25.69-.69-1.09-1.08-2.17-2.17-3.25-3.25h5.86c.63,0,.63-.98,0-.98Z"/>
        <path class="cls-1" d="m153.49,321.58c0,.74-.6,1.33-1.33,1.33s-1.33-.6-1.33-1.33.6-1.33,1.33-1.33,1.33.6,1.33,1.33Z"/>
        <circle class="cls-3" cx="143.31" cy="364.11" r="1.33"/>
        <path class="cls-3" d="m181.41,394.05c0,.74-.6,1.33-1.33,1.33s-1.33-.6-1.33-1.33.6-1.33,1.33-1.33,1.33.6,1.33,1.33Z"/>
        <path class="cls-3" d="m144.65,429.77c0,.74-.6,1.33-1.33,1.33s-1.33-.6-1.33-1.33.6-1.33,1.33-1.33,1.33.6,1.33,1.33Z"/>
        <path class="cls-3" d="m151.82,459.23c.18-.37.48-.37.66,0l1.08,2.18c.18.37.66.72,1.07.78l2.41.35c.41.06.5.34.21.63l-1.74,1.7c-.29.29-.48.85-.41,1.26l.41,2.39c.07.41-.17.58-.54.39l-2.15-1.13c-.37-.19-.96-.19-1.32,0l-2.15,1.13c-.36.19-.61.02-.54-.39l.41-2.39c.07-.41-.11-.97-.41-1.26l-1.74-1.7c-.29-.29-.2-.57.2-.63l2.41-.35c.41-.06.89-.41,1.07-.78l1.08-2.18Z"/>
        <circle class="cls-3" cx="199.38" cy="458.95" r="1.33"/>
        <path class="cls-1" d="m191.93,489c0,.74-.6,1.33-1.33,1.33s-1.33-.6-1.33-1.33.6-1.33,1.33-1.33,1.33.6,1.33,1.33Z"/>
        <path class="cls-1" d="m257.67,487.67c0,.74-.6,1.33-1.33,1.33s-1.33-.6-1.33-1.33.6-1.33,1.33-1.33,1.33.6,1.33,1.33Z"/>
        <path class="cls-1" d="m257.67,412.98c0,.74-.6,1.33-1.33,1.33s-1.33-.6-1.33-1.33.6-1.33,1.33-1.33,1.33.6,1.33,1.33Z"/>
        <path class="cls-1" d="m301.91,411.16h-5.85c1.08-1.08,2.17-2.17,3.25-3.25.45-.45-.24-1.14-.69-.69-1.08,1.08-2.17,2.17-3.25,3.25v-5.86c0-.63-.98-.63-.98,0v5.86c-1.09-1.08-2.17-2.17-3.25-3.25-.45-.45-1.14.25-.69.69,1.08,1.08,2.17,2.17,3.25,3.25h-5.86c-.63,0-.63.98,0,.98h5.86c-1.09,1.08-2.17,2.17-3.25,3.25-.45.45.25,1.14.69.69,1.08-1.08,2.17-2.17,3.25-3.25v5.86c0,.63.98.63.98,0v-5.86c1.08,1.08,2.17,2.17,3.25,3.25.45.45,1.14-.25.69-.69-1.09-1.08-2.17-2.17-3.25-3.25h5.85c.63,0,.63-.98,0-.98Z"/>
        <path class="cls-1" d="m284.75,452.88c.18-.37.48-.37.66,0l1.08,2.18c.18.37.66.72,1.07.78l2.41.35c.41.06.5.34.2.63l-1.74,1.7c-.29.29-.48.85-.41,1.26l.41,2.4c.07.41-.17.58-.54.39l-2.15-1.13c-.36-.19-.96-.19-1.32,0l-2.15,1.13c-.37.19-.61.02-.54-.39l.41-2.4c.07-.41-.12-.97-.41-1.26l-1.74-1.7c-.29-.29-.2-.57.21-.63l2.4-.35c.41-.06.89-.41,1.07-.78l1.08-2.18Z"/>
        <path class="cls-3" d="m325.7,477.91c.18-.37.48-.37.66,0l1.08,2.18c.18.37.66.72,1.07.78l2.41.35c.41.06.5.34.21.63l-1.74,1.7c-.29.29-.48.85-.41,1.26l.41,2.39c.07.41-.17.58-.54.39l-2.15-1.13c-.37-.19-.96-.19-1.32,0l-2.15,1.13c-.36.19-.61.02-.54-.39l.41-2.39c.07-.41-.11-.97-.41-1.26l-1.74-1.7c-.29-.29-.2-.57.21-.63l2.41-.35c.41-.06.89-.41,1.07-.78l1.08-2.18Z"/>
        <path class="cls-3" d="m327.76,434.7c.27-.76,1.11-1.6,1.87-1.87l3.57-1.25c.76-.27.76-.7,0-.97l-3.57-1.25c-.76-.27-1.6-1.1-1.87-1.86l-1.25-3.56c-.26-.76-.7-.76-.96,0l-1.25,3.56c-.27.76-1.1,1.6-1.86,1.87l-3.56,1.25c-.76.27-.76.7,0,.97l3.56,1.25c.76.27,1.6,1.11,1.86,1.87l1.25,3.56c.27.76.7.76.96,0l1.25-3.56Z"/>
        <path class="cls-1" d="m328.7,387.93c0,.74-.6,1.33-1.33,1.33s-1.33-.6-1.33-1.33.6-1.33,1.33-1.33,1.33.6,1.33,1.33Z"/>
        <path class="cls-3" d="m480.56,349.86c-.43.88-1.14.88-1.58,0l-2.56-5.19c-.43-.88-1.58-1.71-2.55-1.85l-5.73-.83c-.97-.14-1.19-.82-.49-1.5l4.15-4.04c.7-.68,1.14-2.03.97-3l-.98-5.71c-.17-.97.41-1.38,1.28-.93l5.13,2.7c.87.46,2.29.46,3.16,0l5.13-2.7c.87-.45,1.44-.04,1.28.93l-.98,5.71c-.17.97.27,2.32.97,3l4.15,4.04c.7.68.48,1.36-.49,1.5l-5.73.83c-.97.14-2.12.98-2.55,1.85l-2.56,5.19Z"/>
        <path class="cls-1" d="m463.44,376.73c-.27.76-1.11,1.6-1.87,1.87l-3.57,1.25c-.76.27-.76.7,0,.97l3.57,1.25c.76.27,1.6,1.1,1.87,1.86l1.25,3.56c.26.76.7.76.97,0l1.25-3.56c.27-.76,1.1-1.6,1.86-1.87l3.56-1.25c.76-.27.76-.7,0-.97l-3.56-1.25c-.76-.27-1.6-1.11-1.86-1.87l-1.25-3.56c-.27-.76-.7-.76-.97,0l-1.25,3.56Z"/>
        <path class="cls-3" d="m514.38,380.05c-.18.37-.48.37-.66,0l-1.08-2.18c-.18-.37-.66-.72-1.07-.78l-2.41-.35c-.41-.06-.5-.34-.21-.63l1.74-1.7c.29-.29.48-.85.41-1.26l-.41-2.4c-.07-.41.17-.58.54-.39l2.15,1.13c.37.19.96.19,1.32,0l2.15-1.13c.36-.19.61-.02.54.39l-.41,2.4c-.07.41.11.97.41,1.26l1.74,1.7c.29.29.2.57-.21.63l-2.41.35c-.41.06-.89.41-1.07.78l-1.08,2.18Z"/>
        <path class="cls-1" d="m497.98,368.96c0-.74.6-1.33,1.33-1.33s1.33.6,1.33,1.33-.6,1.33-1.33,1.33-1.33-.6-1.33-1.33Z"/>
        <path class="cls-3" d="m512.71,335.9c0-.74.6-1.33,1.33-1.33s1.33.6,1.33,1.33-.6,1.33-1.33,1.33-1.33-.6-1.33-1.33Z"/>
        <path class="cls-3" d="m452.98,356.32c0-.74.6-1.33,1.33-1.33s1.33.6,1.33,1.33-.6,1.33-1.33,1.33-1.33-.6-1.33-1.33Z"/>
        <path class="cls-1" d="m501.75,310.57h5.86c-1.09,1.08-2.17,2.17-3.25,3.25-.45.45.24,1.14.69.69,1.08-1.08,2.17-2.17,3.25-3.25v5.86c0,.63.98.63.98,0v-5.86l3.25,3.25c.45.45,1.14-.25.69-.69-1.08-1.08-2.17-2.17-3.25-3.25h5.86c.63,0,.63-.98,0-.98h-5.86c1.08-1.08,2.17-2.17,3.25-3.25.45-.45-.24-1.14-.69-.69-1.08,1.08-2.17,2.17-3.25,3.25v-5.86c0-.63-.98-.63-.98,0v5.86c-1.09-1.08-2.17-2.17-3.25-3.25-.45-.45-1.14.25-.69.69,1.08,1.08,2.17,2.17,3.25,3.25h-5.86c-.63,0-.63.98,0,.98Z"/>
        <path class="cls-3" d="m419.25,380.81h5.85c-1.08,1.08-2.17,2.17-3.25,3.25-.45.45.24,1.14.69.69,1.08-1.08,2.17-2.17,3.25-3.25v5.86c0,.63.98.63.98,0v-5.86c1.08,1.08,2.17,2.17,3.25,3.25.45.45,1.14-.25.69-.69-1.08-1.08-2.17-2.17-3.25-3.25h5.86c.63,0,.63-.98,0-.98h-5.86c1.09-1.08,2.17-2.17,3.25-3.25.45-.45-.25-1.14-.69-.69-1.08,1.08-2.17,2.17-3.25,3.25v-5.86c0-.63-.98-.63-.98,0v5.86c-1.08-1.08-2.17-2.17-3.25-3.25-.45-.45-1.14.24-.69.69,1.09,1.08,2.17,2.17,3.25,3.25h-5.85c-.63,0-.63.98,0,.98Z"/>
        <path class="cls-3" d="m502.61,403.32c0-.74.6-1.33,1.33-1.33s1.33.6,1.33,1.33-.6,1.33-1.33,1.33-1.33-.6-1.33-1.33Z"/>
        <path class="cls-3" d="m446.65,401.99c0-.74.6-1.33,1.33-1.33s1.33.6,1.33,1.33-.6,1.33-1.33,1.33-1.33-.6-1.33-1.33Z"/>
        <path class="cls-3" d="m532.63,425.23c-.43.88-1.14.88-1.58,0l-2.56-5.19c-.43-.88-1.58-1.71-2.55-1.85l-5.73-.83c-.97-.14-1.19-.82-.49-1.5l4.15-4.04c.7-.68,1.14-2.03.97-3l-.98-5.71c-.17-.97.41-1.38,1.28-.93l5.13,2.7c.87.46,2.29.46,3.16,0l5.13-2.7c.87-.46,1.44-.04,1.28.93l-.98,5.71c-.17.97.27,2.32.97,3l4.15,4.04c.7.68.48,1.36-.49,1.5l-5.73.83c-.97.14-2.12.98-2.55,1.85l-2.56,5.19Z"/>
        <path class="cls-1" d="m498.31,437.73c-.18.37-.48.37-.66,0l-1.08-2.18c-.18-.37-.66-.72-1.07-.78l-2.41-.35c-.41-.06-.5-.34-.2-.63l1.74-1.7c.3-.29.48-.85.41-1.26l-.41-2.4c-.07-.41.17-.58.54-.39l2.15,1.13c.36.19.96.19,1.32,0l2.15-1.13c.36-.19.61-.02.54.39l-.41,2.4c-.07.41.12.97.41,1.26l1.74,1.7c.29.29.2.57-.21.63l-2.4.35c-.41.06-.89.41-1.07.78l-1.08,2.18Z"/>
        <path class="cls-3" d="m546.91,350.13c-.27.76-1.11,1.6-1.87,1.87l-3.57,1.25c-.76.27-.76.7,0,.97l3.57,1.25c.76.27,1.6,1.1,1.87,1.86l1.25,3.56c.26.76.7.76.97,0l1.25-3.56c.27-.76,1.1-1.6,1.86-1.87l3.56-1.25c.76-.27.76-.7,0-.97l-3.56-1.25c-.76-.27-1.6-1.11-1.86-1.87l-1.25-3.56c-.27-.76-.7-.76-.97,0l-1.25,3.56Z"/>
        <path class="cls-1" d="m538.24,389.39c0-.74.6-1.33,1.33-1.33s1.33.6,1.33,1.33-.6,1.33-1.33,1.33-1.33-.6-1.33-1.33Z"/>
        <path class="cls-3" d="m481.98,394.32c0-.74.6-1.33,1.33-1.33s1.33.6,1.33,1.33-.6,1.33-1.33,1.33-1.33-.6-1.33-1.33Z"/>
        <path class="cls-3" d="m431.12,423.36c-.18.37-.48.37-.66,0l-1.08-2.18c-.18-.37-.66-.72-1.07-.78l-2.41-.35c-.41-.06-.5-.34-.21-.63l1.74-1.7c.29-.29.48-.85.41-1.26l-.41-2.39c-.07-.41.17-.58.54-.39l2.15,1.13c.37.19.96.19,1.32,0l2.15-1.13c.36-.19.61-.02.54.39l-.41,2.39c-.07.41.11.97.41,1.26l1.74,1.7c.29.29.2.57-.21.63l-2.41.35c-.41.06-.89.41-1.07.78l-1.08,2.18Z"/>
        <circle class="cls-1" cx="472.9" cy="413.94" r="1.33"/>
        <path class="cls-3" d="m456.02,444.99h5.86c-1.08,1.08-2.17,2.17-3.25,3.25-.45.45.24,1.14.69.69,1.09-1.08,2.17-2.17,3.25-3.25v5.86c0,.63.98.63.98,0v-5.86c1.08,1.08,2.17,2.17,3.25,3.25.45.45,1.14-.24.69-.69-1.08-1.08-2.17-2.17-3.25-3.25h5.86c.63,0,.63-.98,0-.98h-5.86c1.08-1.08,2.17-2.17,3.25-3.25.45-.45-.24-1.14-.69-.69-1.08,1.09-2.17,2.17-3.25,3.25v-5.86c0-.63-.98-.63-.98,0v5.86c-1.08-1.08-2.17-2.17-3.25-3.25-.45-.45-1.14.25-.69.69,1.09,1.08,2.17,2.17,3.25,3.25h-5.86c-.63,0-.63.98,0,.98Z"/>
        <path class="cls-3" d="m427.07,471.25c-.43.88-1.14.88-1.58,0l-2.56-5.19c-.43-.88-1.58-1.71-2.55-1.86l-5.73-.83c-.97-.14-1.19-.82-.49-1.5l4.15-4.04c.7-.68,1.14-2.03.97-3l-.98-5.71c-.17-.97.41-1.38,1.28-.93l5.13,2.7c.87.46,2.29.46,3.16,0l5.13-2.7c.87-.46,1.44-.04,1.28.93l-.98,5.71c-.17.97.27,2.32.97,3l4.15,4.04c.7.68.48,1.36-.49,1.5l-5.73.83c-.97.14-2.12.98-2.55,1.86l-2.56,5.19Z"/>
        <path class="cls-3" d="m441.06,434.66c0-.74.6-1.33,1.33-1.33s1.33.6,1.33,1.33-.6,1.33-1.33,1.33-1.33-.6-1.33-1.33Z"/>
        <path class="cls-3" d="m405.9,401.99c0-.74.6-1.33,1.33-1.33s1.33.6,1.33,1.33-.6,1.33-1.33,1.33-1.33-.6-1.33-1.33Z"/>
        <path class="cls-3" d="m490.99,466.83c-.27.76-1.11,1.6-1.87,1.87l-3.57,1.25c-.76.27-.76.7,0,.97l3.57,1.25c.76.27,1.6,1.1,1.87,1.86l1.25,3.56c.26.76.7.76.97,0l1.25-3.56c.27-.76,1.1-1.6,1.86-1.87l3.56-1.25c.76-.27.76-.7,0-.97l-3.56-1.25c-.76-.27-1.6-1.1-1.86-1.87l-1.25-3.56c-.27-.76-.7-.76-.97,0l-1.25,3.56Z"/>
        <path class="cls-3" d="m568.79,397.63h5.85c-1.08,1.08-2.17,2.17-3.25,3.25-.45.45.24,1.14.69.69,1.08-1.08,2.17-2.17,3.25-3.25v5.86c0,.63.98.63.98,0v-5.86c1.09,1.08,2.17,2.17,3.25,3.25.45.45,1.14-.25.69-.69-1.09-1.08-2.17-2.17-3.25-3.25h5.86c.63,0,.63-.98,0-.98h-5.86c1.09-1.08,2.17-2.17,3.25-3.25.45-.45-.25-1.14-.69-.69-1.08,1.08-2.17,2.17-3.25,3.25v-5.86c0-.63-.98-.63-.98,0v5.86c-1.09-1.08-2.17-2.17-3.25-3.25-.45-.45-1.14.25-.69.69,1.09,1.08,2.17,2.17,3.25,3.25h-5.85c-.63,0-.63.98,0,.98Z"/>
        <path class="cls-1" d="m524.31,439.34c0-.74.6-1.33,1.33-1.33s1.33.6,1.33,1.33-.6,1.33-1.33,1.33-1.33-.6-1.33-1.33Z"/>
        <circle class="cls-3" cx="564.31" cy="425.89" r="1.33"/>
        <path class="cls-1" d="m584.11,434.41c-.27.76-1.11,1.6-1.87,1.87l-3.57,1.25c-.76.27-.76.7,0,.97l3.57,1.25c.76.27,1.6,1.1,1.87,1.86l1.25,3.56c.27.76.7.76.97,0l1.25-3.56c.27-.76,1.11-1.6,1.87-1.87l3.56-1.25c.76-.27.76-.7,0-.97l-3.56-1.25c-.76-.27-1.6-1.1-1.87-1.87l-1.25-3.56c-.27-.76-.7-.76-.97,0l-1.25,3.56Z"/>
        <path class="cls-3" d="m534.64,471.64c-.18.37-.48.37-.66,0l-1.08-2.18c-.18-.37-.66-.72-1.07-.78l-2.41-.35c-.41-.06-.5-.34-.2-.63l1.74-1.7c.3-.29.48-.85.41-1.26l-.41-2.4c-.07-.41.17-.58.54-.39l2.15,1.13c.36.19.96.19,1.32,0l2.15-1.13c.36-.19.61-.02.54.39l-.41,2.4c-.07.41.12.97.41,1.26l1.74,1.7c.29.29.2.57-.21.63l-2.4.35c-.41.06-.89.41-1.07.78l-1.08,2.18Z"/>
        <circle class="cls-3" cx="561.65" cy="453.34" r="1.33"/>
        <path class="cls-1" d="m564.31,483.99c0-.74.6-1.33,1.33-1.33s1.33.6,1.33,1.33-.6,1.33-1.33,1.33-1.33-.6-1.33-1.33Z"/>
        <path class="cls-1" d="m591.79,479.91h5.85c-1.08,1.08-2.17,2.17-3.25,3.25-.45.45.24,1.14.69.69,1.08-1.08,2.17-2.17,3.25-3.25v5.86c0,.63.98.63.98,0v-5.86c1.09,1.08,2.17,2.17,3.25,3.25.45.45,1.14-.25.69-.69-1.09-1.08-2.17-2.17-3.25-3.25h5.86c.63,0,.63-.98,0-.98h-5.86c1.09-1.08,2.17-2.17,3.25-3.25.45-.45-.25-1.14-.69-.69-1.08,1.08-2.17,2.17-3.25,3.25v-5.86c0-.63-.98-.63-.98,0v5.86c-1.09-1.09-2.17-2.17-3.25-3.25-.45-.45-1.14.25-.69.69,1.09,1.08,2.17,2.17,3.25,3.25h-5.85c-.63,0-.63.98,0,.98Z"/>
        <path class="cls-3" d="m606.33,454.67c0-.74.6-1.33,1.33-1.33s1.33.6,1.33,1.33-.6,1.33-1.33,1.33-1.33-.6-1.33-1.33Z"/>
        <path class="cls-3" d="m614.59,413.07c-.18.37-.48.37-.66,0l-1.08-2.18c-.18-.37-.66-.72-1.07-.78l-2.41-.35c-.41-.06-.5-.34-.21-.63l1.74-1.7c.29-.29.48-.85.41-1.26l-.41-2.4c-.07-.41.17-.58.54-.39l2.15,1.13c.36.19.96.19,1.32,0l2.15-1.13c.36-.19.61-.02.54.39l-.41,2.4c-.07.41.11.97.41,1.26l1.74,1.7c.29.29.2.57-.2.63l-2.41.35c-.41.06-.89.41-1.07.78l-1.08,2.18Z"/>
        <path class="cls-3" d="m514.96,488.26c0-.74.6-1.33,1.33-1.33s1.33.6,1.33,1.33-.6,1.33-1.33,1.33-1.33-.6-1.33-1.33Z"/>
        <path class="cls-3" d="m460.24,490.06c-.18.37-.48.37-.66,0l-1.08-2.18c-.18-.37-.66-.72-1.07-.78l-2.41-.35c-.41-.06-.5-.34-.21-.63l1.74-1.7c.29-.29.48-.85.41-1.26l-.41-2.4c-.07-.41.17-.58.54-.39l2.15,1.13c.36.19.96.19,1.32,0l2.15-1.13c.36-.19.61-.02.54.39l-.41,2.4c-.07.41.11.97.41,1.26l1.74,1.7c.29.29.2.57-.21.63l-2.41.35c-.41.06-.89.41-1.07.78l-1.08,2.18Z"/>
        <path class="cls-3" d="m545.97,318.92c0-.74.6-1.33,1.33-1.33s1.33.6,1.33,1.33-.6,1.33-1.33,1.33-1.33-.6-1.33-1.33Z"/>
        <path class="cls-1" d="m576.77,368.96c0-.74.6-1.33,1.33-1.33s1.33.6,1.33,1.33-.6,1.33-1.33,1.33-1.33-.6-1.33-1.33Z"/>
        <path class="cls-3" d="m578.8,337.72h5.85c-1.08,1.08-2.17,2.17-3.25,3.25-.45.45.24,1.14.69.69,1.08-1.08,2.17-2.17,3.25-3.25v5.86c0,.63.98.63.98,0v-5.86c1.08,1.08,2.17,2.17,3.25,3.25.45.45,1.14-.25.69-.69-1.09-1.08-2.17-2.17-3.25-3.25h5.86c.63,0,.63-.98,0-.98h-5.86c1.08-1.08,2.17-2.17,3.25-3.25.45-.45-.25-1.14-.69-.69-1.08,1.08-2.17,2.17-3.25,3.25v-5.86c0-.63-.98-.63-.98,0v5.86c-1.08-1.09-2.17-2.17-3.25-3.25-.45-.45-1.14.25-.69.69,1.09,1.08,2.17,2.17,3.25,3.25h-5.85c-.63,0-.63.98,0,.98Z"/>
        <path class="cls-3" d="m567.31,304.86c-.18.37-.48.37-.66,0l-1.08-2.18c-.18-.37-.66-.72-1.07-.78l-2.41-.35c-.41-.06-.5-.34-.2-.63l1.74-1.7c.3-.29.48-.85.41-1.26l-.41-2.39c-.07-.41.17-.58.54-.39l2.15,1.13c.36.19.96.19,1.32,0l2.15-1.13c.36-.19.61-.02.54.39l-.41,2.39c-.07.41.11.97.41,1.26l1.74,1.7c.29.29.2.57-.21.63l-2.4.35c-.41.06-.89.41-1.07.78l-1.08,2.18Z"/>
        <path class="cls-3" d="m628.1,380.9c-.43.88-1.14.88-1.58,0l-2.56-5.2c-.43-.88-1.58-1.71-2.55-1.85l-5.73-.83c-.97-.14-1.19-.82-.49-1.5l4.15-4.04c.7-.68,1.14-2.04.97-3l-.98-5.71c-.17-.97.41-1.38,1.28-.93l5.13,2.69c.87.46,2.29.46,3.16,0l5.13-2.69c.87-.46,1.44-.04,1.28.93l-.98,5.71c-.17.97.27,2.32.97,3l4.15,4.04c.7.68.48,1.36-.49,1.5l-5.73.83c-.97.14-2.12.98-2.55,1.85l-2.56,5.2Z"/>
        <path class="cls-1" d="m619.85,324.99c-.18.37-.48.37-.66,0l-1.08-2.18c-.18-.37-.66-.72-1.07-.78l-2.41-.35c-.41-.06-.5-.34-.2-.63l1.74-1.7c.29-.29.48-.85.41-1.26l-.41-2.4c-.07-.41.17-.58.54-.39l2.15,1.13c.36.19.96.19,1.32,0l2.15-1.13c.36-.19.61-.02.54.39l-.41,2.4c-.07.41.11.97.41,1.26l1.74,1.7c.29.29.2.57-.21.63l-2.4.35c-.41.06-.89.41-1.07.78l-1.08,2.18Z"/>
        <path class="cls-1" d="m598.83,287.65c0-.74.6-1.33,1.33-1.33s1.33.6,1.33,1.33-.6,1.33-1.33,1.33-1.33-.6-1.33-1.33Z"/>
        <path class="cls-1" d="m545.97,274.82c0-.74.6-1.33,1.33-1.33s1.33.6,1.33,1.33-.6,1.33-1.33,1.33-1.33-.6-1.33-1.33Z"/>
        <path class="cls-1" d="m507.06,258.73c-.27.76-1.11,1.6-1.87,1.87l-3.57,1.25c-.76.27-.76.7,0,.97l3.57,1.25c.76.27,1.6,1.1,1.87,1.86l1.25,3.56c.27.76.7.76.97,0l1.25-3.56c.27-.76,1.11-1.6,1.87-1.87l3.56-1.25c.76-.27.76-.7,0-.97l-3.56-1.25c-.76-.27-1.6-1.11-1.87-1.87l-1.25-3.56c-.27-.76-.7-.76-.97,0l-1.25,3.56Z"/>
        <path class="cls-3" d="m613.67,258.73c-.27.76-1.11,1.6-1.87,1.87l-3.57,1.25c-.76.27-.76.7,0,.97l3.57,1.25c.76.27,1.6,1.1,1.87,1.86l1.25,3.56c.27.76.7.76.97,0l1.25-3.56c.27-.76,1.11-1.6,1.87-1.87l3.56-1.25c.76-.27.76-.7,0-.97l-3.56-1.25c-.76-.27-1.6-1.11-1.87-1.87l-1.25-3.56c-.27-.76-.7-.76-.97,0l-1.25,3.56Z"/>
        <path class="cls-3" d="m536.91,246.65c0-.74.6-1.33,1.33-1.33s1.33.6,1.33,1.33-.6,1.33-1.33,1.33-1.33-.6-1.33-1.33Z"/>
        <path class="cls-3" d="m576.61,247.33c-.43.88-1.14.88-1.58,0l-2.56-5.19c-.43-.88-1.58-1.71-2.55-1.85l-5.73-.83c-.97-.14-1.19-.82-.49-1.5l4.15-4.04c.7-.68,1.14-2.03.97-3l-.98-5.71c-.17-.97.41-1.38,1.28-.93l5.13,2.7c.87.46,2.29.46,3.16,0l5.13-2.7c.87-.46,1.44-.04,1.28.93l-.98,5.71c-.17.97.27,2.32.97,3l4.15,4.04c.7.68.48,1.36-.49,1.5l-5.73.83c-.97.14-2.12.98-2.55,1.85l-2.56,5.19Z"/>
        <path class="cls-3" d="m485.58,163.75c-.27.76-1.11,1.6-1.87,1.87l-3.57,1.25c-.76.27-.76.7,0,.97l3.57,1.25c.76.27,1.6,1.1,1.87,1.86l1.25,3.56c.27.76.7.76.97,0l1.25-3.56c.27-.76,1.11-1.6,1.87-1.87l3.56-1.25c.76-.27.76-.7,0-.97l-3.56-1.25c-.76-.27-1.6-1.11-1.87-1.87l-1.25-3.56c-.27-.76-.7-.76-.97,0l-1.25,3.56Z"/>
        <path class="cls-3" d="m507.46,211.25h5.86c-1.08,1.08-2.17,2.17-3.25,3.25-.45.45.24,1.14.69.69,1.09-1.08,2.17-2.17,3.25-3.25v5.86c0,.63.98.63.98,0v-5.86c1.08,1.08,2.17,2.17,3.25,3.25.45.45,1.14-.25.69-.69-1.08-1.08-2.17-2.17-3.25-3.25h5.86c.63,0,.63-.98,0-.98h-5.86c1.09-1.08,2.17-2.17,3.25-3.25.45-.45-.24-1.14-.69-.69-1.08,1.08-2.17,2.17-3.25,3.25v-5.86c0-.63-.98-.63-.98,0v5.86c-1.08-1.08-2.17-2.17-3.25-3.25-.45-.45-1.14.25-.69.69,1.08,1.08,2.17,2.17,3.25,3.25h-5.86c-.63,0-.63.98,0,.98Z"/>
        <path class="cls-1" d="m515.45,182.58c0-.74.6-1.33,1.33-1.33s1.33.6,1.33,1.33-.6,1.33-1.33,1.33-1.33-.6-1.33-1.33Z"/>
        <path class="cls-3" d="m517.47,151.34h5.86c-1.08,1.08-2.17,2.17-3.25,3.25-.45.45.24,1.14.69.69,1.09-1.08,2.17-2.17,3.25-3.25v5.86c0,.63.98.63.98,0v-5.86c1.08,1.08,2.17,2.17,3.25,3.25.45.45,1.14-.25.69-.69-1.08-1.08-2.17-2.17-3.25-3.25h5.86c.63,0,.63-.98,0-.98h-5.86c1.09-1.08,2.17-2.17,3.25-3.25.45-.45-.24-1.14-.69-.69-1.08,1.08-2.17,2.17-3.25,3.25v-5.86c0-.63-.98-.63-.98,0v5.86c-1.08-1.08-2.17-2.17-3.25-3.25-.45-.45-1.14.25-.69.69,1.08,1.08,2.17,2.17,3.25,3.25h-5.86c-.63,0-.63.98,0,.98Z"/>
        <path class="cls-3" d="m505.99,118.48c-.18.37-.48.37-.66,0l-1.08-2.18c-.18-.37-.66-.72-1.07-.78l-2.41-.35c-.41-.06-.5-.34-.21-.63l1.74-1.7c.29-.29.48-.85.41-1.26l-.41-2.39c-.07-.41.17-.58.54-.39l2.15,1.13c.36.19.96.19,1.32,0l2.15-1.13c.36-.19.61-.02.54.39l-.41,2.39c-.07.41.11.97.41,1.26l1.74,1.7c.29.29.2.57-.21.63l-2.41.35c-.41.06-.89.41-1.07.78l-1.08,2.18Z"/>
        <path class="cls-3" d="m461.15,139.28c-.43.88-1.14.88-1.58,0l-2.56-5.2c-.43-.88-1.58-1.71-2.55-1.85l-5.73-.83c-.97-.14-1.19-.82-.49-1.5l4.15-4.04c.7-.68,1.14-2.04.97-3l-.98-5.71c-.17-.97.41-1.38,1.28-.93l5.13,2.69c.87.46,2.29.46,3.16,0l5.13-2.69c.87-.46,1.44-.04,1.28.93l-.98,5.71c-.17.97.27,2.32.97,3l4.15,4.04c.7.68.48,1.36-.49,1.5l-5.73.83c-.97.14-2.12.98-2.55,1.85l-2.56,5.2Z"/>
        <path class="cls-1" d="m558.53,138.61c-.18.37-.48.37-.66,0l-1.08-2.18c-.18-.37-.66-.72-1.07-.78l-2.41-.35c-.41-.06-.5-.34-.2-.63l1.74-1.7c.29-.29.48-.85.41-1.26l-.41-2.4c-.07-.41.17-.58.54-.39l2.15,1.13c.36.19.96.19,1.32,0l2.15-1.13c.36-.19.61-.02.54.39l-.41,2.4c-.07.41.11.97.41,1.26l1.74,1.7c.29.29.2.57-.21.63l-2.41.35c-.41.06-.89.41-1.07.78l-1.08,2.18Z"/>
        <path class="cls-1" d="m537.5,101.27c0-.74.6-1.33,1.33-1.33s1.33.6,1.33,1.33-.6,1.33-1.33,1.33-1.33-.6-1.33-1.33Z"/>
        <path class="cls-3" d="m552.34,72.35c-.27.76-1.11,1.6-1.87,1.87l-3.57,1.25c-.76.27-.76.7,0,.97l3.57,1.25c.76.27,1.6,1.1,1.87,1.86l1.25,3.56c.26.76.7.76.97,0l1.25-3.56c.27-.76,1.1-1.6,1.86-1.87l3.56-1.25c.76-.27.76-.7,0-.97l-3.56-1.25c-.76-.27-1.6-1.11-1.86-1.87l-1.25-3.56c-.27-.76-.7-.76-.97,0l-1.25,3.56Z"/>
        <path class="cls-3" d="m515.29,60.95c-.43.88-1.14.88-1.58,0l-2.56-5.19c-.43-.88-1.58-1.71-2.55-1.85l-5.73-.83c-.97-.14-1.19-.82-.49-1.5l4.15-4.04c.7-.68,1.14-2.03.97-3l-.98-5.71c-.17-.97.41-1.38,1.28-.93l5.13,2.7c.87.46,2.29.46,3.16,0l5.13-2.7c.87-.46,1.44-.04,1.28.93l-.98,5.71c-.17.97.27,2.32.97,3l4.15,4.04c.7.68.48,1.36-.49,1.5l-5.73.83c-.97.14-2.12.98-2.55,1.85l-2.56,5.19Z"/>
        <path class="cls-3" d="m562.05,190.48c-.18.37-.48.37-.66,0l-1.08-2.18c-.18-.37-.66-.72-1.07-.78l-2.41-.35c-.41-.06-.5-.34-.21-.63l1.74-1.7c.29-.29.48-.85.41-1.26l-.41-2.39c-.07-.41.17-.58.54-.39l2.15,1.13c.36.19.96.19,1.32,0l2.15-1.13c.36-.19.61-.02.54.39l-.41,2.39c-.07.41.11.97.41,1.26l1.74,1.7c.29.29.2.57-.2.63l-2.41.35c-.41.06-.89.41-1.07.78l-1.08,2.18Z"/>
        <path class="cls-1" d="m601.96,211.08h5.86c-1.08,1.08-2.17,2.17-3.25,3.25-.45.45.24,1.14.69.69,1.09-1.08,2.17-2.17,3.25-3.25v5.86c0,.63.98.63.98,0v-5.86c1.08,1.08,2.17,2.17,3.25,3.25.45.45,1.14-.25.69-.69-1.08-1.08-2.17-2.17-3.25-3.25h5.86c.63,0,.63-.98,0-.98h-5.86c1.09-1.08,2.17-2.17,3.25-3.25.45-.45-.24-1.14-.69-.69-1.08,1.08-2.17,2.17-3.25,3.25v-5.86c0-.63-.98-.63-.98,0v5.86c-1.08-1.08-2.17-2.17-3.25-3.25-.45-.45-1.14.25-.69.69,1.09,1.08,2.17,2.17,3.25,3.25h-5.86c-.63,0-.63.98,0,.98Z"/>
        <path class="cls-1" d="m598.82,175.07c0-.74.6-1.33,1.33-1.33s1.33.6,1.33,1.33-.6,1.33-1.33,1.33-1.33-.6-1.33-1.33Z"/>
        <path class="cls-3" d="m607.67,132.54c0-.74.6-1.33,1.33-1.33s1.33.6,1.33,1.33-.6,1.33-1.33,1.33-1.33-.6-1.33-1.33Z"/>
        <path class="cls-3" d="m570.91,102.61c0-.74.6-1.33,1.33-1.33s1.33.6,1.33,1.33-.6,1.33-1.33,1.33-1.33-.6-1.33-1.33Z"/>
        <path class="cls-3" d="m607.67,66.88c0-.74.6-1.33,1.33-1.33s1.33.6,1.33,1.33-.6,1.33-1.33,1.33-1.33-.6-1.33-1.33Z"/>
        <path class="cls-3" d="m600.49,37.42c-.18.37-.48.37-.66,0l-1.08-2.18c-.18-.37-.66-.72-1.07-.78l-2.41-.35c-.41-.06-.5-.34-.21-.63l1.74-1.7c.29-.29.48-.85.41-1.26l-.41-2.39c-.07-.41.17-.58.54-.39l2.15,1.13c.37.19.96.19,1.32,0l2.15-1.13c.36-.19.61-.02.54.39l-.41,2.39c-.07.41.11.97.41,1.26l1.74,1.7c.29.29.2.57-.21.63l-2.41.35c-.41.06-.89.41-1.07.78l-1.08,2.18Z"/>
        <path class="cls-3" d="m551.6,37.7c0-.74.6-1.33,1.33-1.33s1.33.6,1.33,1.33-.6,1.33-1.33,1.33-1.33-.6-1.33-1.33Z"/>
        <path class="cls-1" d="m560.39,7.65c0-.74.6-1.33,1.33-1.33s1.33.6,1.33,1.33-.6,1.33-1.33,1.33-1.33-.6-1.33-1.33Z"/>
        <path class="cls-1" d="m494.65,8.98c0-.74.6-1.33,1.33-1.33s1.33.6,1.33,1.33-.6,1.33-1.33,1.33-1.33-.6-1.33-1.33Z"/>
        <path class="cls-1" d="m494.65,83.67c0-.74.6-1.33,1.33-1.33s1.33.6,1.33,1.33-.6,1.33-1.33,1.33-1.33-.6-1.33-1.33Z"/>
        <path class="cls-1" d="m450.4,85.49h5.85c-1.08,1.08-2.17,2.17-3.25,3.25-.45.45.24,1.14.69.69,1.08-1.08,2.17-2.17,3.25-3.25v5.86c0,.63.98.63.98,0v-5.86c1.08,1.08,2.17,2.17,3.25,3.25.45.45,1.14-.25.69-.69-1.09-1.08-2.17-2.17-3.25-3.25h5.86c.63,0,.63-.98,0-.98h-5.86c1.09-1.08,2.17-2.17,3.25-3.25.45-.45-.25-1.14-.69-.69-1.08,1.08-2.17,2.17-3.25,3.25v-5.86c0-.63-.98-.63-.98,0v5.86c-1.08-1.08-2.17-2.17-3.25-3.25-.45-.45-1.14.25-.69.69,1.09,1.08,2.17,2.17,3.25,3.25h-5.85c-.63,0-.63.98,0,.98Z"/>
        <path class="cls-1" d="m467.57,43.77c-.18.37-.48.37-.66,0l-1.08-2.18c-.18-.37-.66-.72-1.07-.78l-2.41-.35c-.41-.06-.5-.34-.21-.63l1.74-1.7c.29-.29.48-.85.41-1.26l-.41-2.4c-.07-.41.17-.58.54-.39l2.15,1.13c.36.19.96.19,1.32,0l2.15-1.13c.37-.19.61-.02.54.39l-.41,2.4c-.07.41.12.97.41,1.26l1.74,1.7c.29.29.2.57-.21.63l-2.4.35c-.41.06-.89.41-1.07.78l-1.08,2.18Z"/>
        <path class="cls-3" d="m426.61,18.74c-.18.37-.48.37-.66,0l-1.08-2.18c-.18-.37-.66-.72-1.07-.78l-2.41-.35c-.41-.06-.5-.34-.21-.63l1.74-1.7c.29-.29.48-.85.41-1.26l-.41-2.39c-.07-.41.17-.58.54-.39l2.15,1.13c.37.19.96.19,1.32,0l2.15-1.13c.36-.19.61-.02.54.39l-.41,2.39c-.07.41.11.97.41,1.26l1.74,1.7c.29.29.2.57-.2.63l-2.41.35c-.41.06-.89.41-1.07.78l-1.08,2.18Z"/>
        <path class="cls-3" d="m424.55,61.95c-.27.76-1.11,1.6-1.87,1.87l-3.57,1.25c-.76.27-.76.7,0,.97l3.57,1.25c.76.27,1.6,1.1,1.87,1.86l1.25,3.56c.26.76.7.76.96,0l1.25-3.56c.27-.76,1.1-1.6,1.86-1.87l3.56-1.25c.76-.27.76-.7,0-.97l-3.56-1.25c-.76-.27-1.6-1.11-1.86-1.87l-1.25-3.56c-.27-.76-.7-.76-.96,0l-1.25,3.56Z"/>
        <path class="cls-1" d="m423.62,108.72c0-.74.6-1.33,1.33-1.33s1.33.6,1.33,1.33-.6,1.33-1.33,1.33-1.33-.6-1.33-1.33Z"/>
        <path class="cls-3" d="m607.67,99.94c0-.74.6-1.33,1.33-1.33s1.33.6,1.33,1.33-.6,1.33-1.33,1.33-1.33-.6-1.33-1.33Z"/>
        <path class="cls-3" d="m373.67,113.74c0-.74.6-1.33,1.33-1.33s1.33.6,1.33,1.33-.6,1.33-1.33,1.33-1.33-.6-1.33-1.33Z"/>
        <path class="cls-3" d="m363.01,392.84c.43-.88,1.14-.88,1.58,0l2.56,5.19c.43.88,1.58,1.71,2.55,1.85l5.73.83c.97.14,1.19.82.49,1.5l-4.15,4.04c-.7.68-1.14,2.03-.97,3l.98,5.71c.16.97-.41,1.38-1.28.93l-5.13-2.7c-.87-.46-2.29-.46-3.16,0l-5.13,2.7c-.87.45-1.44.04-1.28-.93l.98-5.71c.17-.97-.27-2.32-.97-3l-4.15-4.04c-.7-.68-.48-1.36.49-1.5l5.73-.83c.97-.14,2.12-.98,2.55-1.85l2.56-5.19Z"/>
        <path class="cls-1" d="m371.94,72.35c-.27.76-1.11,1.6-1.87,1.87l-3.57,1.25c-.76.27-.76.7,0,.97l3.57,1.25c.76.27,1.6,1.1,1.87,1.86l1.25,3.56c.27.76.7.76.97,0l1.25-3.56c.27-.76,1.11-1.6,1.87-1.87l3.56-1.25c.76-.27.76-.7,0-.97l-3.56-1.25c-.76-.27-1.6-1.11-1.87-1.87l-1.25-3.56c-.27-.76-.7-.76-.97,0l-1.25,3.56Z"/>
        <path class="cls-3" d="m366.63,19.5h5.86c-1.08,1.08-2.17,2.17-3.25,3.25-.45.45.24,1.14.69.69,1.09-1.09,2.17-2.17,3.25-3.25v5.86c0,.63.98.63.98,0v-5.86c1.08,1.08,2.17,2.17,3.25,3.25.45.45,1.14-.25.69-.69-1.08-1.08-2.17-2.17-3.25-3.25h5.86c.63,0,.63-.98,0-.98h-5.86c1.09-1.08,2.17-2.17,3.25-3.25.45-.45-.24-1.14-.69-.69-1.08,1.08-2.17,2.17-3.25,3.25v-5.86c0-.63-.98-.63-.98,0v5.86c-1.08-1.08-2.17-2.17-3.25-3.25-.45-.45-1.14.25-.69.69,1.08,1.08,2.17,2.17,3.25,3.25h-5.86c-.63,0-.63.98,0,.98Z"/>
        <path class="cls-1" d="m396.33,44.65c0-.74.6-1.33,1.33-1.33s1.33.6,1.33,1.33-.6,1.33-1.33,1.33-1.33-.6-1.33-1.33Z"/>
        <path class="cls-1" d="m342.42,8.99c0-.74.6-1.33,1.33-1.33s1.33.6,1.33,1.33-.6,1.33-1.33,1.33-1.33-.6-1.33-1.33Z"/>
        <circle class="cls-1" cx="405.9" cy="96" r="1.33"/>
        <path class="cls-1" d="m395,439.34c0-.74.6-1.33,1.33-1.33s1.33.6,1.33,1.33-.6,1.33-1.33,1.33-1.33-.6-1.33-1.33Z"/>
        <path class="cls-1" d="m362.46,463.97c0-.74.6-1.33,1.33-1.33s1.33.6,1.33,1.33-.6,1.33-1.33,1.33-1.33-.6-1.33-1.33Z"/>
        <path class="cls-3" d="m387.96,480.79h5.85c-1.08,1.08-2.17,2.17-3.25,3.25-.45.45.24,1.14.69.69,1.08-1.08,2.17-2.17,3.25-3.25v5.86c0,.63.98.63.98,0v-5.86c1.08,1.08,2.17,2.17,3.25,3.25.45.45,1.14-.25.69-.69-1.09-1.08-2.17-2.17-3.25-3.25h5.86c.63,0,.63-.98,0-.98h-5.86c1.09-1.08,2.17-2.17,3.25-3.25.45-.45-.25-1.14-.69-.69-1.08,1.08-2.17,2.17-3.25,3.25v-5.86c0-.63-.98-.63-.98,0v5.86c-1.08-1.08-2.17-2.17-3.25-3.25-.45-.45-1.14.24-.69.69,1.09,1.09,2.17,2.17,3.25,3.25h-5.85c-.63,0-.63.98,0,.98Z"/>
        <path class="cls-1" d="m417.44,121.34c0-.74.6-1.33,1.33-1.33s1.33.6,1.33,1.33-.6,1.33-1.33,1.33-1.33-.6-1.33-1.33Z"/>
        <path class="cls-1" d="m468.95,151.91c0-.74.6-1.33,1.33-1.33s1.33.6,1.33,1.33-.6,1.33-1.33,1.33-1.33-.6-1.33-1.33Z"/>
        <path class="cls-1" d="m495.98,191.52c0-.74.6-1.33,1.33-1.33s1.33.6,1.33,1.33-.6,1.33-1.33,1.33-1.33-.6-1.33-1.33Z"/>
        <path class="cls-3" d="m504.32,234.33c0-.74.6-1.33,1.33-1.33s1.33.6,1.33,1.33-.6,1.33-1.33,1.33-1.33-.6-1.33-1.33Z"/>
        <path class="cls-3" d="m493.71,286.32c0-.74.6-1.33,1.33-1.33s1.33.6,1.33,1.33-.6,1.33-1.33,1.33-1.33-.6-1.33-1.33Z"/>
        <path class="cls-1" d="m394.83,372.59c0-.74.6-1.33,1.33-1.33s1.33.6,1.33,1.33-.6,1.33-1.33,1.33-1.33-.6-1.33-1.33Z"/>
        <path class="cls-1" d="m349.93,368.96c0-.74.6-1.33,1.33-1.33s1.33.6,1.33,1.33-.6,1.33-1.33,1.33-1.33-.6-1.33-1.33Z"/>
        <path class="cls-1" d="m286.41,338.57c0,.74-.6,1.33-1.33,1.33s-1.33-.6-1.33-1.33.6-1.33,1.33-1.33,1.33.6,1.33,1.33Z"/>
        <path class="cls-1" d="m249.7,260.62c0,.74-.6,1.33-1.33,1.33s-1.33-.6-1.33-1.33.6-1.33,1.33-1.33,1.33.6,1.33,1.33Z"/>
        <path class="cls-3" d="m54.94,395.93h5.85c-1.08,1.08-2.17,2.17-3.25,3.25-.45.45.24,1.14.69.69,1.08-1.08,2.17-2.17,3.25-3.25v5.86c0,.63.98.63.98,0v-5.86c1.08,1.08,2.17,2.17,3.25,3.25.45.45,1.14-.25.69-.69-1.09-1.08-2.17-2.17-3.25-3.25h5.86c.63,0,.63-.98,0-.98h-5.86c1.08-1.08,2.17-2.17,3.25-3.25.45-.45-.25-1.14-.69-.69-1.08,1.08-2.17,2.17-3.25,3.25v-5.86c0-.63-.98-.63-.98,0v5.86c-1.08-1.08-2.17-2.17-3.25-3.25-.45-.45-1.14.25-.69.69,1.08,1.08,2.17,2.17,3.25,3.25h-5.85c-.63,0-.63.98,0,.98Z"/>
        <path class="cls-1" d="m70.26,432.71c-.27.76-1.11,1.6-1.87,1.87l-3.57,1.25c-.76.27-.76.7,0,.97l3.57,1.25c.76.27,1.6,1.1,1.87,1.86l1.25,3.56c.27.76.7.76.97,0l1.25-3.56c.27-.76,1.11-1.6,1.87-1.87l3.56-1.25c.76-.27.76-.7,0-.97l-3.56-1.25c-.76-.27-1.6-1.11-1.87-1.87l-1.25-3.56c-.27-.76-.7-.76-.97,0l-1.25,3.56Z"/>
        <path class="cls-1" d="m77.94,478.21h5.85c-1.08,1.08-2.17,2.17-3.25,3.25-.45.45.24,1.14.69.69,1.08-1.08,2.17-2.17,3.25-3.25v5.86c0,.63.98.63.98,0v-5.86c1.08,1.08,2.17,2.17,3.25,3.25.45.45,1.14-.25.69-.69-1.09-1.08-2.17-2.17-3.25-3.25h5.86c.63,0,.63-.98,0-.98h-5.86c1.08-1.08,2.17-2.17,3.25-3.25.45-.45-.25-1.14-.69-.69-1.08,1.08-2.17,2.17-3.25,3.25v-5.86c0-.63-.98-.63-.98,0v5.86c-1.08-1.08-2.17-2.17-3.25-3.25-.45-.45-1.14.25-.69.69,1.08,1.08,2.17,2.17,3.25,3.25h-5.85c-.63,0-.63.98,0,.98Z"/>
        <path class="cls-3" d="m92.48,452.97c0-.74.6-1.33,1.33-1.33s1.33.6,1.33,1.33-.6,1.33-1.33,1.33-1.33-.6-1.33-1.33Z"/>
        <path class="cls-3" d="m100.74,411.37c-.18.37-.48.37-.66,0l-1.08-2.18c-.18-.37-.66-.72-1.07-.78l-2.41-.35c-.41-.06-.5-.34-.21-.63l1.74-1.7c.29-.29.48-.85.41-1.26l-.41-2.4c-.07-.41.17-.58.54-.39l2.15,1.13c.36.19.96.19,1.32,0l2.15-1.13c.36-.19.61-.02.54.39l-.41,2.4c-.07.41.11.97.41,1.26l1.74,1.7c.29.29.2.57-.21.63l-2.41.35c-.41.06-.89.41-1.07.78l-1.08,2.18Z"/>
        <path class="cls-1" d="m62.92,367.25c0-.74.6-1.33,1.33-1.33s1.33.6,1.33,1.33-.6,1.33-1.33,1.33-1.33-.6-1.33-1.33Z"/>
        <path class="cls-3" d="m64.95,336.02h5.85c-1.09,1.08-2.17,2.17-3.25,3.25-.45.45.24,1.14.69.69,1.08-1.08,2.17-2.17,3.25-3.25v5.86c0,.63.98.63.98,0v-5.86c1.08,1.08,2.17,2.17,3.25,3.25.45.45,1.14-.25.69-.69-1.09-1.08-2.17-2.17-3.25-3.25h5.86c.63,0,.63-.98,0-.98h-5.86c1.08-1.08,2.17-2.17,3.25-3.25.45-.45-.25-1.14-.69-.69-1.08,1.08-2.17,2.17-3.25,3.25v-5.86c0-.63-.98-.63-.98,0v5.86c-1.08-1.08-2.17-2.17-3.25-3.25-.45-.45-1.14.25-.69.69,1.08,1.08,2.17,2.17,3.25,3.25h-5.85c-.63,0-.63.98,0,.98Z"/>
        <path class="cls-3" d="m53.46,303.16c-.18.37-.48.37-.66,0l-1.08-2.18c-.18-.37-.66-.72-1.07-.78l-2.41-.35c-.41-.06-.5-.34-.2-.63l1.74-1.7c.29-.29.48-.85.41-1.26l-.41-2.39c-.07-.41.17-.58.54-.39l2.15,1.13c.36.19.96.19,1.32,0l2.15-1.13c.36-.19.61-.02.54.39l-.41,2.39c-.07.41.11.97.41,1.26l1.74,1.7c.29.29.2.57-.21.63l-2.4.35c-.41.06-.89.41-1.07.78l-1.08,2.18Z"/>
        <path class="cls-3" d="m114.25,379.2c-.43.88-1.14.88-1.58,0l-2.56-5.19c-.43-.88-1.58-1.71-2.55-1.85l-5.73-.83c-.97-.14-1.19-.82-.49-1.5l4.15-4.04c.7-.68,1.14-2.03.97-3l-.98-5.71c-.17-.97.41-1.38,1.28-.93l5.13,2.69c.87.46,2.29.46,3.16,0l5.13-2.69c.87-.46,1.44-.04,1.28.93l-.98,5.71c-.17.97.27,2.32.97,3l4.15,4.04c.7.68.48,1.36-.49,1.5l-5.73.83c-.97.14-2.12.98-2.55,1.85l-2.56,5.19Z"/>
        <path class="cls-1" d="m106,323.29c-.18.37-.48.37-.66,0l-1.08-2.18c-.18-.37-.66-.72-1.07-.78l-2.41-.35c-.41-.06-.5-.34-.2-.63l1.74-1.7c.29-.29.48-.85.41-1.26l-.41-2.4c-.07-.41.17-.58.54-.39l2.15,1.13c.36.19.96.19,1.32,0l2.15-1.13c.36-.19.61-.02.54.39l-.41,2.4c-.07.41.11.97.41,1.26l1.74,1.7c.29.29.2.57-.21.63l-2.4.35c-.41.06-.89.41-1.07.78l-1.08,2.18Z"/>
        <path class="cls-1" d="m84.98,285.95c0-.74.6-1.33,1.33-1.33s1.33.6,1.33,1.33-.6,1.33-1.33,1.33-1.33-.6-1.33-1.33Z"/>
        <path class="cls-3" d="m99.82,257.03c-.27.76-1.11,1.6-1.87,1.87l-3.57,1.25c-.76.27-.76.7,0,.97l3.57,1.25c.76.27,1.6,1.1,1.87,1.86l1.25,3.56c.27.76.7.76.97,0l1.25-3.56c.27-.76,1.11-1.6,1.87-1.87l3.56-1.25c.76-.27.76-.7,0-.97l-3.56-1.25c-.76-.27-1.6-1.11-1.87-1.87l-1.25-3.56c-.27-.76-.7-.76-.97,0l-1.25,3.56Z"/>
        <path class="cls-3" d="m62.77,245.62c-.43.88-1.14.88-1.58,0l-2.56-5.19c-.43-.88-1.58-1.71-2.55-1.85l-5.73-.83c-.97-.14-1.19-.82-.49-1.5l4.15-4.04c.7-.68,1.14-2.03.97-3l-.98-5.71c-.17-.97.41-1.38,1.28-.93l5.13,2.7c.87.46,2.29.46,3.16,0l5.13-2.7c.87-.45,1.44-.04,1.28.93l-.98,5.71c-.17.97.27,2.32.97,3l4.15,4.04c.7.68.48,1.36-.49,1.5l-5.73.83c-.97.14-2.12.98-2.55,1.85l-2.56,5.19Z"/>
        <path class="cls-1" d="m88.12,209.37h5.86c-1.08,1.08-2.17,2.17-3.25,3.25-.45.45.24,1.14.69.69,1.09-1.08,2.17-2.17,3.25-3.25v5.86c0,.63.98.63.98,0v-5.86c1.08,1.08,2.17,2.17,3.25,3.25.45.45,1.14-.25.69-.69-1.08-1.08-2.17-2.17-3.25-3.25h5.86c.63,0,.63-.98,0-.98h-5.86c1.09-1.08,2.17-2.17,3.25-3.25.45-.45-.24-1.14-.69-.69-1.08,1.08-2.17,2.17-3.25,3.25v-5.86c0-.63-.98-.63-.98,0v5.86c-1.08-1.08-2.17-2.17-3.25-3.25-.45-.45-1.14.25-.69.69,1.09,1.08,2.17,2.17,3.25,3.25h-5.86c-.63,0-.63.98,0,.98Z"/>
        <path class="cls-1" d="m84.98,173.37c0-.74.6-1.33,1.33-1.33s1.33.6,1.33,1.33-.6,1.33-1.33,1.33-1.33-.6-1.33-1.33Z"/>
        <circle class="cls-3" cx="95.15" cy="130.84" r="1.33"/>
        <path class="cls-3" d="m57.06,100.9c0-.74.6-1.33,1.33-1.33s1.33.6,1.33,1.33-.6,1.33-1.33,1.33-1.33-.6-1.33-1.33Z"/>
        <circle class="cls-3" cx="95.15" cy="65.18" r="1.33"/>
        <path class="cls-3" d="m111.26,29.93c-.18.37-.48.37-.66,0l-1.08-2.18c-.18-.37-.66-.72-1.07-.78l-2.41-.35c-.41-.06-.5-.34-.2-.63l1.74-1.7c.29-.29.48-.85.41-1.26l-.41-2.39c-.07-.41.17-.58.54-.39l2.15,1.13c.37.19.96.19,1.32,0l2.15-1.13c.36-.19.61-.02.54.39l-.41,2.39c-.07.41.11.97.41,1.26l1.74,1.7c.29.29.2.57-.21.63l-2.41.35c-.41.06-.89.41-1.07.78l-1.08,2.18Z"/>
        <path class="cls-3" d="m33.99,92.66h-5.85c1.08-1.08,2.17-2.17,3.25-3.25.45-.45-.24-1.14-.69-.69-1.08,1.08-2.17,2.17-3.25,3.25v-5.86c0-.63-.98-.63-.98,0v5.86c-1.08-1.08-2.17-2.17-3.25-3.25-.45-.45-1.14.25-.69.69,1.09,1.08,2.17,2.17,3.25,3.25h-5.86c-.63,0-.63.98,0,.98h5.86c-1.08,1.08-2.17,2.17-3.25,3.25-.45.45.25,1.14.69.69,1.08-1.08,2.17-2.17,3.25-3.25v5.86c0,.63.98.63.98,0v-5.86c1.08,1.08,2.17,2.17,3.25,3.25.45.45,1.14-.25.69-.69-1.08-1.08-2.17-2.17-3.25-3.25h5.85c.63,0,.63-.98,0-.98Z"/>
        <path class="cls-1" d="m18.68,55.88c.27-.76,1.11-1.6,1.87-1.87l3.57-1.25c.76-.27.76-.7,0-.97l-3.57-1.25c-.76-.27-1.6-1.1-1.87-1.86l-1.25-3.56c-.27-.76-.7-.76-.97,0l-1.25,3.56c-.27.76-1.11,1.6-1.87,1.87l-3.56,1.25c-.76.27-.76.7,0,.97l3.56,1.25c.76.27,1.6,1.11,1.87,1.87l1.25,3.56c.27.76.7.76.97,0l1.25-3.56Z"/>
        <path class="cls-1" d="m56.47,15.86h-5.85c1.08-1.08,2.17-2.17,3.25-3.25.45-.45-.24-1.14-.69-.69-1.08,1.08-2.17,2.17-3.25,3.25v-5.86c0-.63-.98-.63-.98,0v5.86c-1.08-1.08-2.17-2.17-3.25-3.25-.45-.45-1.14.25-.69.69,1.09,1.08,2.17,2.17,3.25,3.25h-5.86c-.63,0-.63.98,0,.98h5.86c-1.08,1.08-2.17,2.17-3.25,3.25-.45.45.25,1.14.69.69,1.08-1.08,2.17-2.17,3.25-3.25v5.86c0,.63.98.63.98,0v-5.86c1.09,1.08,2.17,2.17,3.25,3.25.45.45,1.14-.25.69-.69-1.08-1.08-2.17-2.17-3.25-3.25h5.85c.63,0,.63-.98,0-.98Z"/>
        <path class="cls-3" d="m18.28,26.52c0,.74-.6,1.33-1.33,1.33s-1.33-.6-1.33-1.33.6-1.33,1.33-1.33,1.33.6,1.33,1.33Z"/>
        <path class="cls-3" d="m52.8,44.91c.18-.37.48-.37.66,0l1.08,2.18c.18.37.66.72,1.07.78l2.41.35c.41.06.5.34.21.63l-1.74,1.7c-.29.29-.48.85-.41,1.26l.41,2.4c.07.41-.17.58-.54.39l-2.15-1.13c-.36-.19-.96-.19-1.32,0l-2.15,1.13c-.36.19-.61.02-.54-.39l.41-2.4c.07-.41-.11-.97-.41-1.26l-1.74-1.7c-.29-.29-.2-.57.21-.63l2.41-.35c.41-.06.89-.41,1.07-.78l1.08-2.18Z"/>
        <path class="cls-1" d="m26.01,121.33c0,.74-.6,1.33-1.33,1.33s-1.33-.6-1.33-1.33.6-1.33,1.33-1.33,1.33.6,1.33,1.33Z"/>
        <path class="cls-3" d="m23.98,152.57h-5.85c1.08-1.08,2.17-2.17,3.25-3.25.45-.45-.24-1.14-.69-.69-1.08,1.08-2.17,2.17-3.25,3.25v-5.86c0-.63-.98-.63-.98,0v5.86c-1.08-1.08-2.17-2.17-3.25-3.25-.45-.45-1.14.25-.69.69,1.09,1.08,2.17,2.17,3.25,3.25h-5.86c-.63,0-.63.98,0,.98h5.86c-1.08,1.08-2.17,2.17-3.25,3.25-.45.45.25,1.14.69.69,1.08-1.08,2.17-2.17,3.25-3.25v5.86c0,.63.98.63.98,0v-5.86c1.08,1.08,2.17,2.17,3.25,3.25.45.45,1.14-.25.69-.69-1.08-1.08-2.17-2.17-3.25-3.25h5.85c.63,0,.63-.98,0-.98Z"/>
        <path class="cls-3" d="m35.47,185.43c.18-.37.48-.37.66,0l1.08,2.18c.18.37.66.72,1.07.78l2.41.35c.41.06.5.34.2.63l-1.74,1.7c-.29.29-.48.85-.41,1.26l.41,2.39c.07.41-.17.58-.54.39l-2.15-1.13c-.36-.19-.96-.19-1.32,0l-2.15,1.13c-.36.19-.61.02-.54-.39l.41-2.39c.07-.41-.11-.97-.41-1.26l-1.74-1.7c-.29-.29-.2-.57.2-.63l2.4-.35c.41-.06.89-.41,1.07-.78l1.08-2.18Z"/>
        <path class="cls-1" d="m61.65,136.93c.18-.37.48-.37.66,0l1.08,2.18c.18.37.66.72,1.07.78l2.41.35c.41.06.5.34.2.63l-1.74,1.7c-.29.29-.48.85-.41,1.26l.41,2.4c.07.41-.17.58-.54.39l-2.15-1.13c-.36-.19-.96-.19-1.32,0l-2.15,1.13c-.36.19-.61.02-.54-.39l.41-2.4c.07-.41-.11-.97-.41-1.26l-1.74-1.7c-.29-.29-.2-.57.21-.63l2.4-.35c.41-.06.89-.41,1.07-.78l1.08-2.18Z"/>
        <path class="cls-1" d="m3.96,202.64c0,.74-.6,1.33-1.33,1.33s-1.33-.6-1.33-1.33.6-1.33,1.33-1.33,1.33.6,1.33,1.33Z"/>
        <path class="cls-3" d="m25.07,258.19c.27-.76,1.11-1.6,1.87-1.87l3.57-1.25c.76-.27.76-.7,0-.97l-3.57-1.25c-.76-.27-1.6-1.1-1.87-1.86l-1.25-3.56c-.27-.76-.7-.76-.97,0l-1.25,3.56c-.27.76-1.11,1.6-1.87,1.87l-3.56,1.25c-.76.27-.76.7,0,.97l3.56,1.25c.76.27,1.6,1.11,1.87,1.87l1.25,3.56c.27.76.7.76.97,0l1.25-3.56Z"/>
        <path class="cls-1" d="m30.38,299.63h-5.86c1.08-1.08,2.17-2.17,3.25-3.25.45-.45-.24-1.14-.69-.69-1.09,1.08-2.17,2.17-3.25,3.25v-5.86c0-.63-.98-.63-.98,0v5.86c-1.08-1.08-2.17-2.17-3.25-3.25-.45-.45-1.14.25-.69.69,1.08,1.08,2.17,2.17,3.25,3.25h-5.86c-.63,0-.63.98,0,.98h5.86c-1.09,1.08-2.17,2.17-3.25,3.25-.45.45.24,1.14.69.69,1.08-1.08,2.17-2.17,3.25-3.25v5.86c0,.63.98.63.98,0v-5.86c1.08,1.08,2.17,2.17,3.25,3.25.45.45,1.14-.25.69-.69-1.09-1.08-2.17-2.17-3.25-3.25h5.86c.63,0,.63-.98,0-.98Z"/>
        <path class="cls-1" d="m20.79,334.57c0,.74-.6,1.33-1.33,1.33s-1.33-.6-1.33-1.33.6-1.33,1.33-1.33,1.33.6,1.33,1.33Z"/>
        <circle class="cls-3" cx="20.79" cy="368.67" r="1.33"/>
        <path class="cls-3" d="m31.88,387.69c0,.74-.6,1.33-1.33,1.33s-1.33-.6-1.33-1.33.6-1.33,1.33-1.33,1.33.6,1.33,1.33Z"/>
        <path class="cls-3" d="m25.79,434.66c0,.74-.6,1.33-1.33,1.33s-1.33-.6-1.33-1.33.6-1.33,1.33-1.33,1.33.6,1.33,1.33Z"/>
        <path class="cls-3" d="m23.01,468.06c.18-.37.48-.37.66,0l1.08,2.18c.18.37.66.72,1.07.78l2.41.35c.41.06.5.34.21.63l-1.74,1.7c-.29.29-.48.85-.41,1.26l.41,2.39c.07.41-.17.58-.54.39l-2.15-1.13c-.37-.19-.96-.19-1.32,0l-2.15,1.13c-.36.19-.61.02-.54-.39l.41-2.39c.07-.41-.11-.97-.41-1.26l-1.74-1.7c-.29-.29-.2-.57.21-.63l2.41-.35c.41-.06.89-.41,1.07-.78l1.08-2.18Z"/>
        <path class="cls-3" d="m614.79,409.15c-.18.37-.48.37-.66,0l-1.08-2.18c-.18-.37-.66-.72-1.07-.78l-2.41-.35c-.41-.06-.5-.34-.21-.63l1.74-1.7c.29-.29.48-.85.41-1.26l-.41-2.4c-.07-.41.17-.58.54-.39l2.15,1.13c.37.19.96.19,1.32,0l2.15-1.13c.36-.19.61-.02.54.39l-.41,2.4c-.07.4.11.97.41,1.26l1.74,1.7c.29.29.2.57-.21.63l-2.41.35c-.41.06-.89.41-1.07.78l-1.08,2.18Z"/>
        <path class="cls-1" d="m620.05,321.07c-.18.37-.48.37-.66,0l-1.07-2.18c-.18-.37-.66-.72-1.07-.78l-2.41-.35c-.41-.06-.5-.34-.2-.63l1.74-1.7c.29-.29.48-.85.41-1.26l-.41-2.4c-.07-.4.17-.58.54-.39l2.15,1.13c.36.19.96.19,1.32,0l2.15-1.13c.37-.19.61-.02.54.39l-.41,2.4c-.07.41.12.97.41,1.26l1.74,1.7c.3.29.2.57-.2.63l-2.4.35c-.41.06-.89.41-1.07.78l-1.08,2.18Z"/>
        <path class="cls-3" d="m697.57,96.8h-5.85c1.08-1.08,2.17-2.17,3.25-3.25.45-.45-.24-1.14-.69-.69-1.08,1.08-2.17,2.17-3.25,3.25v-5.86c0-.63-.98-.63-.98,0v5.86c-1.09-1.08-2.17-2.17-3.25-3.25-.45-.45-1.14.25-.69.69,1.09,1.08,2.17,2.17,3.25,3.25h-5.86c-.63,0-.63.98,0,.98h5.86c-1.09,1.08-2.17,2.17-3.25,3.25-.45.45.25,1.14.69.69,1.08-1.08,2.17-2.17,3.25-3.25v5.86c0,.63.98.63.98,0v-5.86c1.08,1.08,2.17,2.17,3.25,3.25.45.45,1.14-.25.69-.69-1.09-1.08-2.17-2.17-3.25-3.25h5.85c.63,0,.63-.98,0-.98Z"/>
        <path class="cls-1" d="m682.25,60.02c.27-.76,1.11-1.6,1.87-1.87l3.57-1.25c.76-.27.76-.7,0-.97l-3.57-1.25c-.76-.27-1.6-1.1-1.87-1.86l-1.25-3.56c-.27-.76-.7-.76-.97,0l-1.25,3.56c-.27.76-1.11,1.6-1.87,1.87l-3.56,1.25c-.76.27-.76.7,0,.97l3.56,1.25c.76.27,1.6,1.11,1.87,1.87l1.25,3.56c.27.76.7.76.97,0l1.25-3.56Z"/>
        <path class="cls-1" d="m674.57,14.52h-5.85c1.08-1.08,2.17-2.17,3.25-3.25.45-.45-.24-1.14-.69-.69-1.08,1.08-2.17,2.17-3.25,3.25v-5.86c0-.63-.98-.63-.98,0v5.86c-1.09-1.08-2.17-2.17-3.25-3.25-.45-.45-1.14.25-.69.69,1.09,1.08,2.17,2.17,3.25,3.25h-5.86c-.63,0-.63.98,0,.98h5.86c-1.09,1.08-2.17,2.17-3.25,3.25-.45.45.25,1.14.69.69,1.08-1.08,2.17-2.17,3.25-3.25v5.86c0,.63.98.63.98,0v-5.86c1.08,1.08,2.17,2.17,3.25,3.25.45.45,1.14-.25.69-.69-1.09-1.08-2.17-2.17-3.25-3.25h5.85c.63,0,.63-.98,0-.98Z"/>
        <path class="cls-3" d="m660.02,39.76c0,.74-.6,1.33-1.33,1.33s-1.33-.6-1.33-1.33.6-1.33,1.33-1.33,1.33.6,1.33,1.33Z"/>
        <path class="cls-3" d="m651.76,81.36c.18-.37.48-.37.66,0l1.08,2.18c.18.37.66.72,1.07.78l2.41.35c.41.06.5.34.21.63l-1.74,1.7c-.29.29-.48.85-.41,1.26l.41,2.4c.07.41-.17.58-.54.39l-2.15-1.13c-.36-.19-.96-.19-1.32,0l-2.15,1.13c-.36.19-.61.02-.54-.39l.41-2.4c.07-.41-.11-.97-.41-1.26l-1.74-1.7c-.29-.29-.2-.57.21-.63l2.41-.35c.41-.06.89-.41,1.07-.78l1.08-2.18Z"/>
        <path class="cls-1" d="m689.59,125.48c0,.74-.6,1.33-1.33,1.33s-1.33-.6-1.33-1.33.6-1.33,1.33-1.33,1.33.6,1.33,1.33Z"/>
        <path class="cls-3" d="m687.56,156.71h-5.85c1.08-1.08,2.17-2.17,3.25-3.25.45-.45-.24-1.14-.69-.69-1.08,1.08-2.17,2.17-3.25,3.25v-5.86c0-.63-.98-.63-.98,0v5.86c-1.08-1.08-2.17-2.17-3.25-3.25-.45-.45-1.14.25-.69.69,1.09,1.08,2.17,2.17,3.25,3.25h-5.86c-.63,0-.63.98,0,.98h5.86c-1.08,1.08-2.17,2.17-3.25,3.25-.45.45.25,1.14.69.69,1.08-1.08,2.17-2.17,3.25-3.25v5.86c0,.63.98.63.98,0v-5.86c1.08,1.08,2.17,2.17,3.25,3.25.45.45,1.14-.25.69-.69-1.08-1.08-2.17-2.17-3.25-3.25h5.85c.63,0,.63-.98,0-.98Z"/>
        <path class="cls-3" d="m699.04,189.57c.18-.37.48-.37.66,0l1.08,2.18c.18.37.66.72,1.07.78l2.4.35c.41.06.5.34.21.63l-1.74,1.7c-.3.29-.48.85-.41,1.26l.41,2.39c.07.41-.17.58-.54.39l-2.15-1.13c-.37-.19-.96-.19-1.32,0l-2.15,1.13c-.36.19-.61.02-.54-.39l.41-2.39c.07-.41-.11-.97-.41-1.26l-1.74-1.7c-.29-.29-.2-.57.21-.63l2.4-.35c.41-.06.89-.41,1.07-.78l1.07-2.18Z"/>
        <path class="cls-3" d="m638.25,113.54c.43-.88,1.14-.88,1.58,0l2.56,5.19c.43.88,1.58,1.71,2.55,1.85l5.73.83c.97.14,1.19.82.49,1.5l-4.15,4.04c-.7.68-1.14,2.03-.97,3l.98,5.71c.17.97-.41,1.38-1.28.93l-5.13-2.69c-.87-.46-2.29-.46-3.16,0l-5.13,2.69c-.87.46-1.44.04-1.28-.93l.98-5.71c.17-.97-.27-2.32-.97-3l-4.15-4.04c-.7-.68-.48-1.36.49-1.5l5.73-.83c.97-.14,2.12-.98,2.55-1.85l2.56-5.19Z"/>
        <path class="cls-1" d="m646.5,169.44c.18-.37.48-.37.66,0l1.08,2.18c.18.37.66.72,1.07.78l2.4.35c.41.06.5.34.21.63l-1.74,1.7c-.3.29-.48.85-.41,1.26l.41,2.4c.07.41-.17.58-.54.39l-2.15-1.13c-.37-.19-.96-.19-1.32,0l-2.15,1.13c-.36.19-.61.02-.54-.39l.41-2.4c.07-.41-.11-.97-.41-1.26l-1.74-1.7c-.29-.29-.2-.57.21-.63l2.4-.35c.41-.06.89-.41,1.07-.78l1.08-2.18Z"/>
        <path class="cls-1" d="m667.53,206.78c0,.74-.6,1.33-1.33,1.33s-1.33-.6-1.33-1.33.6-1.33,1.33-1.33,1.33.6,1.33,1.33Z"/>
        <path class="cls-3" d="m652.69,235.71c.27-.76,1.11-1.6,1.87-1.87l3.57-1.25c.76-.27.76-.7,0-.97l-3.57-1.25c-.76-.27-1.6-1.1-1.87-1.86l-1.25-3.56c-.27-.76-.7-.76-.97,0l-1.25,3.56c-.27.76-1.11,1.6-1.87,1.87l-3.56,1.25c-.76.27-.76.7,0,.97l3.56,1.25c.76.27,1.6,1.11,1.87,1.87l1.25,3.56c.27.76.7.76.97,0l1.25-3.56Z"/>
        <path class="cls-3" d="m689.74,247.11c.44-.88,1.14-.88,1.58,0l2.56,5.19c.43.88,1.58,1.71,2.55,1.86l5.73.83c.97.14,1.19.82.49,1.5l-4.15,4.04c-.7.68-1.14,2.03-.97,3l.98,5.71c.17.97-.41,1.38-1.28.93l-5.13-2.7c-.87-.46-2.29-.46-3.16,0l-5.12,2.7c-.87.46-1.44.04-1.28-.93l.98-5.71c.17-.97-.27-2.32-.97-3l-4.15-4.04c-.7-.69-.48-1.36.49-1.5l5.73-.83c.97-.14,2.12-.98,2.55-1.86l2.56-5.19Z"/>
        <path class="cls-1" d="m664.39,283.36h-5.86c1.08-1.08,2.17-2.17,3.25-3.25.45-.45-.24-1.14-.69-.69-1.09,1.08-2.17,2.17-3.25,3.25v-5.86c0-.63-.98-.63-.98,0v5.86l-3.25-3.25c-.45-.45-1.14.25-.69.69,1.08,1.08,2.17,2.17,3.25,3.25h-5.86c-.63,0-.63.98,0,.98h5.86c-1.09,1.08-2.17,2.17-3.25,3.25-.45.45.24,1.14.69.69l3.25-3.25v5.86c0,.63.98.63.98,0v-5.86c1.08,1.08,2.17,2.17,3.25,3.25.45.45,1.14-.25.69-.69-1.09-1.08-2.17-2.17-3.25-3.25h5.86c.63,0,.63-.98,0-.98Z"/>
        <path class="cls-1" d="m667.53,319.36c0,.74-.6,1.33-1.33,1.33s-1.33-.6-1.33-1.33.6-1.33,1.33-1.33,1.33.6,1.33,1.33Z"/>
        <circle class="cls-3" cx="657.36" cy="361.89" r="1.33"/>
        <path class="cls-3" d="m695.45,391.83c0,.74-.6,1.33-1.33,1.33s-1.33-.6-1.33-1.33.6-1.33,1.33-1.33,1.33.6,1.33,1.33Z"/>
        <path class="cls-3" d="m658.69,427.56c0,.74-.6,1.33-1.33,1.33s-1.33-.6-1.33-1.33.6-1.33,1.33-1.33,1.33.6,1.33,1.33Z"/>
        <path class="cls-3" d="m641.24,462.8c.18-.37.48-.37.66,0l1.08,2.18c.18.37.66.72,1.07.78l2.41.35c.41.06.5.34.21.63l-1.74,1.7c-.29.29-.48.85-.41,1.26l.41,2.39c.07.41-.17.58-.54.39l-2.15-1.13c-.37-.19-.96-.19-1.32,0l-2.15,1.13c-.36.19-.61.02-.54-.39l.41-2.39c.07-.41-.11-.97-.41-1.26l-1.74-1.7c-.29-.29-.2-.57.21-.63l2.41-.35c.41-.06.89-.41,1.07-.78l1.08-2.18Z"/>
        <path class="cls-3" d="m718.51,400.07h5.85c-1.08,1.08-2.17,2.17-3.25,3.25-.45.45.24,1.14.69.69,1.08-1.08,2.17-2.17,3.25-3.25v5.86c0,.63.98.63.98,0v-5.86c1.09,1.08,2.17,2.17,3.26,3.25.45.45,1.14-.24.69-.69-1.09-1.08-2.17-2.17-3.26-3.25h5.86c.63,0,.63-.98,0-.98h-5.86c1.09-1.08,2.17-2.17,3.26-3.25.45-.45-.25-1.14-.69-.69-1.09,1.09-2.17,2.17-3.26,3.25v-5.86c0-.63-.98-.63-.98,0v5.86c-1.08-1.08-2.17-2.17-3.25-3.25-.45-.45-1.14.25-.69.69,1.09,1.08,2.17,2.17,3.25,3.25h-5.85c-.63,0-.63.98,0,.98Z"/>
        <path class="cls-1" d="m733.83,436.85c-.27.76-1.11,1.6-1.87,1.87l-3.57,1.25c-.76.27-.76.7,0,.97l3.57,1.25c.76.27,1.6,1.11,1.87,1.87l1.25,3.56c.27.76.7.76.97,0l1.25-3.56c.27-.76,1.11-1.6,1.87-1.87l3.56-1.25c.76-.27.76-.7,0-.97l-3.56-1.25c-.76-.27-1.6-1.11-1.87-1.87l-1.25-3.56c-.27-.76-.7-.76-.97,0l-1.25,3.56Z"/>
        <path class="cls-1" d="m696.03,476.87h5.86c-1.09,1.08-2.17,2.17-3.25,3.25-.45.45.24,1.14.69.69,1.08-1.08,2.17-2.17,3.25-3.25v5.86c0,.63.98.63.98,0v-5.86l3.25,3.25c.45.45,1.14-.25.69-.69-1.09-1.08-2.17-2.17-3.25-3.25h5.86c.63,0,.63-.98,0-.98h-5.86c1.08-1.08,2.17-2.17,3.25-3.25.45-.45-.24-1.14-.69-.69l-3.25,3.25v-5.86c0-.63-.98-.63-.98,0v5.86c-1.09-1.08-2.17-2.17-3.25-3.25-.45-.45-1.14.25-.69.69,1.08,1.08,2.17,2.17,3.25,3.25h-5.86c-.63,0-.63.98,0,.98Z"/>
        <path class="cls-3" d="m734.23,466.21c0-.74.6-1.33,1.33-1.33s1.33.6,1.33,1.33-.6,1.33-1.33,1.33-1.33-.6-1.33-1.33Z"/>
        <path class="cls-3" d="m699.71,447.82c-.18.37-.48.37-.66,0l-1.08-2.18c-.18-.37-.66-.72-1.07-.78l-2.41-.35c-.41-.06-.5-.34-.2-.63l1.74-1.7c.29-.29.48-.85.41-1.26l-.41-2.4c-.07-.4.17-.58.54-.39l2.15,1.13c.36.19.96.19,1.32,0l2.15-1.13c.36-.19.61-.02.54.39l-.41,2.4c-.07.41.12.97.41,1.26l1.74,1.7c.29.29.2.57-.21.63l-2.4.35c-.41.06-.89.41-1.07.78l-1.08,2.18Z"/>
        <path class="cls-1" d="m726.5,371.4c0-.74.6-1.33,1.33-1.33s1.33.6,1.33,1.33-.6,1.33-1.33,1.33-1.33-.6-1.33-1.33Z"/>
        <path class="cls-3" d="m728.52,340.16h5.85c-1.08,1.08-2.17,2.17-3.25,3.25-.45.45.24,1.14.69.69,1.08-1.08,2.17-2.17,3.25-3.25v5.86c0,.63.98.63.98,0v-5.86c1.09,1.08,2.17,2.17,3.26,3.25.45.45,1.14-.24.69-.69-1.09-1.08-2.17-2.17-3.26-3.25h5.86c.63,0,.63-.98,0-.98h-5.86c1.09-1.08,2.17-2.17,3.26-3.25.45-.45-.25-1.14-.69-.69-1.09,1.09-2.17,2.17-3.26,3.25v-5.86c0-.63-.98-.63-.98,0v5.86c-1.08-1.08-2.17-2.17-3.25-3.25-.45-.45-1.14.25-.69.69,1.09,1.08,2.17,2.17,3.25,3.25h-5.85c-.63,0-.63.98,0,.98Z"/>
        <path class="cls-3" d="m717.03,307.3c-.18.37-.48.37-.66,0l-1.07-2.18c-.18-.37-.66-.72-1.07-.78l-2.41-.35c-.41-.06-.5-.34-.2-.63l1.74-1.7c.29-.29.48-.85.41-1.26l-.41-2.39c-.07-.41.17-.58.54-.39l2.15,1.13c.36.19.96.19,1.32,0l2.15-1.13c.37-.19.61-.02.54.39l-.41,2.39c-.07.41.12.97.41,1.26l1.74,1.7c.3.29.2.57-.2.63l-2.4.35c-.41.06-.89.41-1.07.78l-1.08,2.18Z"/>
        <path class="cls-1" d="m690.86,355.8c-.18.37-.48.37-.66,0l-1.08-2.18c-.18-.37-.66-.72-1.07-.78l-2.4-.35c-.41-.06-.5-.34-.21-.63l1.74-1.7c.29-.29.48-.85.41-1.26l-.41-2.4c-.07-.41.17-.58.54-.39l2.15,1.13c.37.19.96.19,1.32,0l2.15-1.13c.36-.19.61-.02.54.39l-.41,2.4c-.07.4.11.97.41,1.26l1.74,1.7c.29.29.2.57-.21.63l-2.4.35c-.41.06-.89.41-1.07.78l-1.07,2.18Z"/>
        <circle class="cls-1" cx="749.88" cy="290.09" r="1.33"/>
        <path class="cls-3" d="m727.43,234.54c-.27.76-1.11,1.6-1.87,1.87l-3.57,1.25c-.76.27-.76.7,0,.97l3.57,1.25c.76.27,1.6,1.1,1.87,1.86l1.25,3.56c.27.76.7.76.97,0l1.25-3.56c.27-.76,1.11-1.6,1.87-1.87l3.56-1.25c.76-.27.76-.7,0-.97l-3.56-1.25c-.76-.27-1.6-1.11-1.87-1.87l-1.25-3.56c-.27-.76-.7-.76-.97,0l-1.25,3.56Z"/>
        <path class="cls-1" d="m722.13,193.1h5.86c-1.08,1.08-2.17,2.17-3.25,3.25-.45.45.24,1.14.69.69,1.09-1.08,2.17-2.17,3.25-3.25v5.86c0,.63.98.63.98,0v-5.86c1.08,1.08,2.17,2.17,3.25,3.25.45.45,1.14-.25.69-.69-1.08-1.08-2.17-2.17-3.25-3.25h5.86c.63,0,.63-.98,0-.98h-5.86c1.09-1.08,2.17-2.17,3.25-3.25.45-.45-.24-1.14-.69-.69-1.08,1.09-2.17,2.17-3.25,3.25v-5.86c0-.63-.98-.63-.98,0v5.86c-1.08-1.08-2.17-2.17-3.25-3.25-.45-.45-1.14.25-.69.69,1.09,1.08,2.17,2.17,3.25,3.25h-5.86c-.63,0-.63.98,0,.98Z"/>
        <path class="cls-1" d="m731.72,158.17c0-.74.6-1.33,1.33-1.33s1.33.6,1.33,1.33-.6,1.33-1.33,1.33-1.33-.6-1.33-1.33Z"/>
        <path class="cls-3" d="m730.39,124.06c0-.74.6-1.33,1.33-1.33s1.33.6,1.33,1.33-.6,1.33-1.33,1.33-1.33-.6-1.33-1.33Z"/>
        <path class="cls-3" d="m720.63,105.05c0-.74.6-1.33,1.33-1.33s1.33.6,1.33,1.33-.6,1.33-1.33,1.33-1.33-.6-1.33-1.33Z"/>
        <circle class="cls-3" cx="728.05" cy="58.08" r="1.33"/>
        <path class="cls-3" d="m729.49,24.68c-.18.37-.48.37-.66,0l-1.08-2.18c-.18-.37-.66-.72-1.07-.78l-2.41-.35c-.41-.06-.5-.34-.21-.63l1.74-1.7c.29-.29.48-.85.41-1.26l-.41-2.39c-.07-.41.17-.58.54-.39l2.15,1.13c.37.19.96.19,1.32,0l2.15-1.13c.36-.19.61-.02.54.39l-.41,2.39c-.07.41.11.97.41,1.26l1.74,1.7c.29.29.2.57-.21.63l-2.41.35c-.41.06-.89.41-1.07.78l-1.08,2.18Z"/>
      </g>
    </g>
  </g>
</svg>