<svg width="200" height="220" viewBox="0 0 200 220" fill="none" xmlns="http://www.w3.org/2000/svg">
<g clip-path="url(#clip0_409_734)">
<path d="M142.991 89.5463C144.231 89.9364 145.917 90.2078 147.355 90.9541C155.355 95.0417 162.578 94.5838 169.024 87.7145C170.132 86.5442 171.719 85.7471 173.19 85.0516C175.256 84.1018 177.537 83.6948 179.405 85.34C181.421 87.1379 180.942 89.5972 179.768 91.5308C174.727 99.8756 178.215 104.167 186.066 107.152C188.893 108.22 193.372 109.035 192.975 113.224C192.579 117.278 188.066 117.312 185.107 118.058C178.314 119.788 173.768 122.824 173.603 130.931C173.553 133.577 173.206 137.41 169.157 138.123C165.405 138.784 163.371 136.02 162.033 133.459C157.504 124.774 151.156 122.468 142.363 126.267C140.941 126.878 139.107 126.64 137.47 126.589C135.602 126.521 133.454 126.776 132.379 124.656C131.272 122.468 132.825 120.975 134.032 119.466C134.379 119.025 134.726 118.567 135.156 118.244C144.032 111.748 147.14 104.336 138.842 94.94C137.801 93.7696 136.776 92.1753 137.916 90.3944C138.462 89.5294 140.214 89.258 142.925 89.5633L142.991 89.5463ZM182.793 112.427C170.479 108.288 167.454 100.775 173.355 88.7322C164.115 99.2311 154.181 98.9767 142.627 93.6C153.189 104.286 148.346 112.512 139.354 120.823C150.313 116.955 157.983 118.821 162.71 129.252C164.264 132.678 167.338 132.271 167.223 128.455C166.909 118.126 173.52 115.175 182.793 112.41V112.427Z" fill="#FFE958"/>
<path d="M7.65612 100.732C7.47186 98.8791 6.83005 97.2346 7.27921 95.9581C8.3202 92.9881 11.4924 89.737 10.8821 87.454C10.0499 84.2797 14.2068 83.6214 12.8881 80.7003C12.4415 79.7352 14.3458 76.3406 15.347 76.2373C17.824 75.975 17.0612 74.2734 17.3583 73.2421C19.1561 67.1273 23.3121 62.1965 25.8915 56.4784C28.7059 50.2213 33.8014 45.4554 38.8997 41.5203C44.423 37.264 48.9521 32.0034 54.5023 27.8469C59.8947 23.8101 64.537 18.7382 69.9716 14.7622C75.3447 10.8302 81.2721 7.70237 86.9656 4.21683C87.1977 4.49532 87.4299 4.77381 87.6563 5.03892C85.8735 9.80261 84.0062 14.5567 82.3194 19.3568C78.9498 28.8911 75.5744 38.4119 72.3853 47.9921C70.9971 52.1763 69.7144 56.4565 69.012 60.7768C68.3831 64.6316 68.9415 68.6667 68.3702 72.5433C66.8577 82.8813 65.8716 93.284 68.8865 103.227C71.2659 111.091 74.987 118.521 78.1948 126.104C81.6211 134.196 87.28 140.744 92.6659 147.481C98.9535 155.344 106.811 161.244 115.937 165.304C121.843 167.931 128.01 170.343 134.328 171.647C142.573 173.354 150.787 175.7 159.54 174.696C163.337 174.249 167.249 175.191 171.614 175.542C170.79 176.509 170.136 177.495 169.293 178.23C160.35 185.946 151.051 193.136 140.416 198.373C134.927 201.061 129.562 204.077 123.97 206.524C115.938 210.033 107.428 211.343 98.7928 211.798C95.8048 211.956 92.8064 212.728 89.8552 212.598C87.4131 212.492 84.6369 213.931 82.4336 211.684C82.2052 211.452 81.3672 211.673 80.8905 211.874C78.9027 212.714 77.1773 212.666 75.7325 210.875C75.5981 210.712 74.7963 211.204 74.3121 211.201C69.5891 211.252 64.7965 211.703 60.8267 208.34C60.3967 207.975 59.3124 208.484 58.644 208.276C53.9786 206.701 49.2977 205.165 44.7402 203.317C43.7434 202.906 43.3534 201.211 42.4917 200.291C41.4016 199.138 39.9436 197.128 38.9442 197.311C36.2171 197.815 36.2497 196.168 35.7885 194.569C30.9975 195.212 25.6031 189.279 27.2181 185.024C23.7384 183.326 19.8663 181.95 19.92 176.981C15.3432 175.237 15.7312 170.26 13.7599 166.867C12.335 164.411 12.9527 160.305 11.1215 158.625C8.79895 156.513 9.05132 154.253 8.49299 151.867C7.40689 147.239 5.84417 142.701 5.08863 138.02C4.28539 133.04 4.0914 127.943 3.81665 122.882C3.66804 120.101 3.7712 117.27 4.01651 114.47C4.3688 110.533 4.81908 106.599 5.56713 102.722C5.7546 101.773 7.23881 101.034 7.59275 100.697L7.65612 100.732ZM34.1055 137.306C33.6534 136.103 33.3452 135.123 32.8755 134.216C32.8237 134.096 31.5033 134.392 31.4781 134.596C31.1528 136.76 30.7276 138.954 30.875 141.095C30.9279 141.855 32.4101 142.91 33.3956 143.07C37.4972 143.781 40.5876 141.463 42.6452 138.351C48.5928 129.389 46.5238 120.599 39.2418 113.605C37.3282 111.771 35.3735 112.275 33.6418 114.311C31.5369 116.789 30.898 121.032 32.5581 122.726C33.4235 120.396 34.2678 118.092 35.1968 115.573C40.3695 120.502 39.2612 135.265 34.092 137.312L34.1055 137.306ZM26.5387 169.281C27.5117 170.311 28.1697 171.244 29.047 171.901C32.4432 174.454 36.8991 172.731 37.8493 168.538C39.5796 160.918 36.9149 155.536 29.8051 152.576C29.1214 152.295 27.5914 152.703 27.2641 153.252C26.8483 153.969 26.8655 155.658 27.3724 156.051C31.3271 159.118 31.308 164.056 32.9941 168.17C33.0689 168.344 32.6861 168.726 32.4088 169.204C31.2414 168.471 30.1374 167.773 28.945 167.019C28.1833 167.717 27.4485 168.403 26.5272 169.255L26.5387 169.281ZM57.5124 189.682C54.7082 186.973 52.0665 183.405 47.2789 182.782C45.2655 182.513 44.4573 183.553 44.6878 185.289C45.1181 188.726 51.3894 194.116 54.8095 194.176C57.1248 194.212 58.6452 192.096 57.5316 189.69L57.5124 189.682ZM35.4832 66.7914C33.604 68.4462 31.7869 69.6087 30.5841 71.228C29.2255 73.0461 28.1739 75.2048 27.4893 77.3565C27.1345 78.4781 27.6381 80.0255 28.1786 81.172C28.3875 81.6211 29.865 81.7653 30.6185 81.5347C35.3296 80.1443 38.4244 72.3674 35.4832 66.7914ZM18.1274 98.034C17.8947 99.8522 18.4991 102.234 15.1743 102.882C14.5189 103.004 14.1842 104.996 13.7045 106.127C14.7919 106.224 16.1382 106.812 16.9054 106.351C20.5779 104.153 23.2154 98.0085 22.2498 93.8866C21.984 92.7432 20.8559 91.2398 19.8781 91.0604C18.8811 90.8737 17.529 92.0327 16.4559 92.7928C15.9636 93.1447 15.7533 93.9285 15.4874 94.5456C15.1117 95.4686 14.7935 96.4135 14.4562 97.3511C15.5243 97.5534 16.5732 97.7486 18.1331 98.0474L18.1274 98.034ZM18.6821 115.322C15.1152 119.264 16.0304 123.793 16.4864 128.227C16.5549 128.836 17.3954 129.782 17.9123 129.787C18.6252 129.799 19.6461 129.254 20.0561 128.636C22.1714 125.433 22.4732 122.015 21.753 118.278C21.3538 116.187 20.6824 115.26 18.6763 115.308L18.6821 115.322ZM13.8323 147.182C14.2818 147.33 15.3478 147.677 16.4273 148.018C16.722 145.708 17.0955 143.393 17.2211 141.064C17.231 140.787 15.833 140.079 15.2794 140.25C13.1267 140.893 12.3799 143.649 13.8515 147.189L13.8323 147.182Z" fill="#FFE958"/>
</g>
<defs>
<clipPath id="clip0_409_734">
<rect width="200" height="220" fill="white"/>
</clipPath>
</defs>
</svg>
