<svg width="176" height="216" viewBox="0 0 176 216" fill="none" xmlns="http://www.w3.org/2000/svg">
<path d="M101.536 0C92.3923 17.4752 80.0733 32.9833 69.8656 49.8028C66.4742 55.3929 62.1517 52.2618 58.328 50.5569C42.2351 43.3274 26.242 35.8849 10.1657 28.5735C7.50577 27.3604 4.64629 25.1473 1.80344 27.9178C-0.640427 30.3112 -0.125061 33.5406 0.606445 36.4423C2.93391 45.9012 8.73599 53.7044 13.7235 61.8191C20.6062 72.9993 27.9543 83.9008 35.3857 94.7368C38.6774 99.54 39.0431 103.737 36.2668 109.081C27.8546 125.343 19.9079 141.851 12.0111 158.375C10.2156 162.13 6.74101 166.605 10.9138 170.375C14.8373 173.916 19.8248 172.179 24.1472 170.097C35.8179 164.457 47.5551 158.9 58.993 152.835C64.6454 149.835 67.7709 149.736 71.179 156.179C79.8904 172.572 89.4996 188.506 98.7929 204.605C100.023 206.736 101.42 208.768 102.75 210.834C104.578 213.654 106.607 216.817 110.497 215.637C114.221 214.506 114.337 210.637 114.736 207.441C115.035 205.014 114.919 202.539 114.919 200.08C114.919 179.342 115.301 158.605 114.736 137.884C114.503 129.491 117.729 125.556 125.609 123.376C136.781 120.277 147.72 116.376 158.709 112.655C162.616 111.327 166.44 109.687 170.18 107.95C172.89 106.687 175.932 105.458 175.999 101.737C176.065 97.8515 173.306 95.9499 170.263 94.4417C155.384 87.0975 139.757 81.5402 123.813 76.9992C115.833 74.7206 112.774 70.9337 113.074 62.5731C113.838 41.5734 110.513 20.8031 108.136 0H101.486L101.536 0ZM80.3393 70.3927C86.823 72.9993 94.7697 76.0648 102.567 79.4254C104.878 80.4254 104.645 83.0811 104.678 85.245C104.844 93.9171 104.445 102.606 106.191 111.228C106.806 114.294 106.939 117.835 102.982 119.622C94.2211 123.589 85.5263 127.687 76.7816 131.687C74.8032 132.589 72.3095 133.949 70.78 131.605C65.5598 123.638 59.658 116.048 55.9174 107.228C55.2358 105.622 55.9174 104.065 56.7819 102.589C62.2514 93.163 67.6712 83.7205 73.1407 74.2943C74.3876 72.1468 75.7342 70.0321 80.3559 70.3927H80.3393ZM106.357 196.719C105.709 196.801 105.06 196.883 104.412 196.965C98.5934 185.556 92.7747 174.146 86.9893 162.736C76.6985 142.474 76.8315 142.163 99.0423 134.458C99.8237 134.179 100.638 133.982 101.386 133.654C105.26 131.966 106.374 133.818 106.374 137.31C106.357 157.113 106.374 176.933 106.374 196.736L106.357 196.719ZM17.5139 46.5077L19.06 44.8356C31.9277 50.3602 44.7953 55.8847 57.663 61.4092C60.5557 62.6551 61.1542 64.7371 59.6746 67.3764C55.934 74.0484 52.21 80.7533 48.3032 87.327C47.2059 89.1794 45.5268 91.3106 43.3822 88.0975C34.3051 74.5075 25.4274 60.7863 17.5139 46.5077ZM157.811 98.8679C157.828 99.8023 157.844 100.72 157.861 101.655C145.093 105.638 132.342 109.687 119.541 113.556C116.116 114.589 115.119 112.114 115.069 109.409C114.952 102.622 115.002 95.8187 115.002 89.0319C115.002 85.6385 116.964 84.6549 119.89 85.6713C132.541 90.0155 145.16 94.4745 157.795 98.8843L157.811 98.8679ZM101.12 22.426C101.769 22.5408 102.417 22.6719 103.066 22.7867C103.066 33.098 103.066 43.4258 103.066 53.7372C103.066 70.9829 102.949 71.0157 86.9061 63.0322C83.5812 61.3764 82.2512 59.524 84.0633 55.9994C89.7989 44.8356 95.4347 33.639 101.12 22.4424V22.426ZM32.2602 153.408C31.7614 152.917 31.2793 152.408 30.7806 151.917C34.6375 144.622 38.3781 137.245 42.4014 130.031C44.3465 126.54 44.9117 120.638 48.7687 120.196C53.4236 119.655 53.1577 126.13 55.6514 129.13C57.2141 130.999 58.3612 133.228 59.4585 135.392C60.589 137.605 60.323 139.605 57.796 140.851C49.284 145.031 40.7721 149.212 32.2602 153.408Z" fill="#FFE958"/>
</svg>
