<svg width="246" height="246" viewBox="0 0 246 246" fill="none" xmlns="http://www.w3.org/2000/svg">
<g clip-path="url(#clip0_299_871)">
<path d="M77.1291 128.337C74.3019 108.419 90.0898 89.6453 108.292 83.9591C130.402 77.034 154.195 89.4865 161.565 111.215C168.458 131.514 155.815 159.214 132.276 159.881C110.516 160.485 88.438 138.598 96.8243 116.361C100.096 107.657 111.437 103.432 120.141 102.987C133.61 102.32 145.268 113.121 146.793 126.558C147.714 134.595 141.742 139.487 133.991 140.027C125.446 140.599 118.267 134.373 113.915 127.638C112.93 126.113 112.39 124.493 111.913 122.746C111.5 121.189 112.581 120.268 111.246 121.634C112.93 119.951 115.916 120.332 118.044 120.649C120.776 121.062 123.286 122.46 125.478 124.112C126.208 124.652 126.748 125.414 127.257 126.177C127.479 126.082 127.543 126.272 127.479 126.78C128.083 125.033 128.654 123.286 129.258 121.539C130.529 120.522 130.56 120.364 129.385 121.062C126.113 122.746 123.794 127.066 123.826 130.656C123.889 134.118 126.621 135.516 129.576 133.991C137.581 129.894 142.187 118.871 134.912 111.977C128.623 106.005 118.902 104.226 111.215 108.546C99.9057 114.9 98.2538 129.131 104.194 139.519C110.262 150.097 122.333 156.133 134.277 153.687C146.634 151.145 156.291 138.979 157.911 126.876C159.69 113.502 152.829 100.891 142.219 93.1079C129.417 83.705 109.626 89.8995 98.6033 99.0164C82.0529 112.708 79.1939 139.551 91.6782 156.832C98.3809 166.107 110.135 171.889 121.126 173.858C133.133 176.019 144.665 171.031 153.591 163.28C171.793 147.492 180.243 121.158 171.094 98.3811C162.39 76.6528 140.217 65.4392 117.473 68.4888C86.1826 72.7138 61.8494 107.117 66.2014 137.772C66.7414 141.584 71.3476 140.154 73.1901 138.566C76.1443 136.024 77.6374 132.244 77.0973 128.432L77.1291 128.337Z" fill="#FFE958"/>
<path d="M75.8268 71.6336C84.4355 55.9091 62.1036 37.6116 53.1772 27.224C49.7782 23.2531 44.8226 25.2862 43.552 29.797C41.9319 35.515 44.1555 41.5507 47.8722 45.8709C50.9218 49.4288 54.162 52.8278 57.2751 56.3539C58.7999 58.101 59.7847 59.2764 61.4683 61.4365C62.2625 62.4848 63.0249 63.5649 63.7555 64.6449C64.4543 65.7567 64.359 65.6297 63.5649 64.2002C65.312 68.171 65.3756 64.7085 63.7555 53.8125C61.0553 58.7681 62.4213 65.5344 65.4709 70.0135C67.7898 73.4125 73.1901 76.5256 75.8903 71.6018L75.8268 71.6336Z" fill="#FFE958"/>
<path d="M53.3043 120.046C48.2852 102.86 19.5365 105.719 5.90864 104.671C0.698932 104.29 -1.36589 109.213 0.921298 113.311C3.81205 118.521 9.62533 121.189 15.3115 121.634C19.9812 121.983 24.6827 122.111 29.3841 122.396C31.7031 122.555 33.2279 122.682 35.928 123.032C37.2304 123.191 38.5329 123.445 39.8035 123.699C41.0742 124.017 40.9154 123.953 39.3588 123.54C43.3931 125.128 40.9789 122.619 32.1478 116.043C33.7361 121.443 39.5176 125.287 44.8226 126.272C48.857 127.034 54.8926 125.414 53.3043 120.014V120.046Z" fill="#FFE958"/>
<path d="M71.6335 170.173C55.9409 161.565 37.6116 183.896 27.2557 192.823C23.2849 196.222 25.3179 201.177 29.8288 202.448C35.5468 204.068 41.5824 201.844 45.9026 198.16C49.4605 195.11 52.8595 191.87 56.3856 188.757C58.1328 187.232 59.3081 186.247 61.4682 184.595C62.5165 183.801 63.5966 183.039 64.6767 182.308C65.7885 181.641 65.6614 181.704 64.2319 182.499C68.2027 180.751 64.7402 180.688 53.8443 182.308C58.7999 185.008 65.5661 183.642 70.0452 180.593C73.4442 178.274 76.5573 172.873 71.6335 170.173Z" fill="#FFE958"/>
<path d="M120.046 192.696C102.86 197.715 105.719 226.464 104.671 240.092C104.29 245.301 109.213 247.366 113.311 245.079C118.521 242.188 121.189 236.375 121.634 230.689C121.983 226.019 122.111 221.317 122.396 216.616C122.555 214.297 122.682 212.772 123.032 210.072C123.191 208.77 123.445 207.467 123.699 206.197C124.017 204.926 123.953 205.085 123.54 206.641C125.128 202.607 122.619 205.021 116.043 213.852C121.443 212.264 125.287 206.483 126.272 201.178C127.034 197.143 125.414 191.108 120.014 192.696H120.046Z" fill="#FFE958"/>
<path d="M170.173 174.367C161.565 190.091 183.896 208.388 192.823 218.776C196.222 222.747 201.177 220.714 202.448 216.203C204.068 210.485 201.844 204.449 198.128 200.129C195.078 196.571 191.838 193.172 188.725 189.646C187.2 187.899 186.215 186.724 184.563 184.564C183.769 183.515 183.007 182.435 182.276 181.355C181.609 180.243 181.673 180.37 182.499 181.8C180.751 177.829 180.688 181.292 182.308 192.188C185.008 187.232 183.642 180.466 180.593 175.987C178.274 172.588 172.873 169.474 170.173 174.398V174.367Z" fill="#FFE958"/>
<path d="M192.696 125.954C197.715 143.14 226.464 140.281 240.092 141.329C245.301 141.71 247.366 136.787 245.079 132.689C242.188 127.479 236.375 124.811 230.689 124.366C226.019 124.016 221.317 123.889 216.616 123.603C214.297 123.445 212.772 123.318 210.072 122.968C208.77 122.809 207.467 122.555 206.197 122.301C204.926 121.983 205.085 122.047 206.641 122.46C202.607 120.872 205.021 123.381 213.852 129.957C212.264 124.556 206.514 120.713 201.178 119.728C197.143 118.966 191.108 120.586 192.696 125.986V125.954Z" fill="#FFE958"/>
<path d="M174.367 75.8269C190.091 84.4356 208.389 62.1037 218.744 53.1774C222.715 49.7783 220.682 44.8228 216.171 43.5521C210.453 41.932 204.418 44.1557 200.097 47.8406C196.54 50.8902 193.141 54.1304 189.614 57.2435C187.867 58.7683 186.692 59.753 184.532 61.4049C183.484 62.199 182.404 62.9614 181.323 63.6921C180.212 64.3909 180.339 64.2956 181.768 63.5015C177.797 65.2486 181.26 65.3122 192.156 63.6921C187.232 60.9919 180.434 62.3579 175.955 65.4075C172.556 67.7264 169.443 73.1267 174.367 75.8269Z" fill="#FFE958"/>
<path d="M125.954 53.3043C143.14 48.2852 140.281 19.5365 141.329 5.90864C141.742 0.698932 136.787 -1.36589 132.689 0.921298C127.479 3.81205 124.811 9.62533 124.366 15.3115C124.017 19.9812 123.89 24.6827 123.604 29.3841C123.445 31.7031 123.318 33.2279 122.968 35.928C122.81 37.2304 122.555 38.5329 122.301 39.8035C121.984 41.0742 122.047 40.9154 122.46 39.3588C120.872 43.3931 123.381 40.9789 129.957 32.1478C124.557 33.7361 120.713 39.5176 119.728 44.8226C118.966 48.857 120.586 54.8926 125.986 53.3043H125.954Z" fill="#FFE958"/>
</g>
<defs>
<clipPath id="clip0_299_871">
<rect width="246" height="246" fill="white"/>
</clipPath>
</defs>
</svg>
